<svg width="1270" height="726" viewBox="0 0 1270 726" fill="none" xmlns="http://www.w3.org/2000/svg">
<g clip-path="url(#clip0_139_243)">
<rect width="1270" height="726" fill="black"/>
<g clip-path="url(#clip1_139_243)">
<path d="M151.463 134.082C152.296 134.077 153.122 134.235 153.893 134.545C154.664 134.855 155.366 135.312 155.958 135.889C156.549 136.467 157.02 137.153 157.343 137.91C157.665 138.667 157.834 139.479 157.838 140.3C157.847 141.978 157.181 143.592 155.984 144.785C154.787 145.978 153.158 146.654 151.456 146.664C149.753 146.673 148.116 146.016 146.906 144.836C145.695 143.656 145.009 142.051 145 140.373C144.95 136.87 147.825 134.071 151.463 134.082Z" fill="white"/>
<path d="M179.503 134.082C180.338 134.068 181.167 134.217 181.943 134.522C182.718 134.827 183.424 135.282 184.02 135.859C184.615 136.436 185.088 137.124 185.411 137.883C185.733 138.642 185.899 139.457 185.899 140.28C185.922 141.534 185.566 142.766 184.876 143.82C184.186 144.874 183.194 145.702 182.025 146.197C180.856 146.693 179.564 146.834 178.313 146.603C177.063 146.372 175.91 145.779 175.003 144.899C174.095 144.02 173.474 142.894 173.219 141.665C172.963 140.437 173.084 139.161 173.567 138.001C174.05 136.84 174.872 135.848 175.929 135.15C176.987 134.452 178.231 134.08 179.503 134.082Z" fill="white"/>
<path d="M179.568 119.696C176.17 119.733 173.149 116.846 173.089 113.478C173.026 110.039 175.965 107.047 179.447 107C182.93 106.953 185.916 109.902 185.909 113.353C185.903 116.74 182.986 119.655 179.568 119.696Z" fill="white"/>
<path d="M179.545 175C176.151 175.021 173.131 172.103 173.086 168.761C173.042 165.322 175.994 162.337 179.471 162.309C182.949 162.28 185.917 165.219 185.906 168.685C185.898 172.064 182.959 174.979 179.545 175Z" fill="white"/>
<path d="M201.177 140.334C201.177 136.681 203.853 134.067 207.572 134.082C211.163 134.1 213.834 136.774 213.834 140.35C213.848 141.171 213.696 141.987 213.387 142.749C213.078 143.512 212.618 144.206 212.034 144.792C211.45 145.378 210.754 145.843 209.985 146.161C209.217 146.479 208.392 146.643 207.559 146.644C203.598 146.719 200.822 143.156 201.177 140.334Z" fill="white"/>
<path d="M200.952 126.011C200.952 129.602 198.324 132.214 194.693 132.253C191.063 132.292 188.285 129.574 188.282 125.982C188.279 125.151 188.444 124.327 188.767 123.559C189.09 122.791 189.565 122.094 190.164 121.509C190.764 120.924 191.475 120.462 192.257 120.151C193.039 119.84 193.876 119.685 194.72 119.696C198.255 119.72 200.96 122.461 200.952 126.011Z" fill="white"/>
<path d="M200.953 153.639C200.953 157.303 198.248 159.961 194.578 159.907C190.959 159.855 188.291 157.212 188.27 153.67C188.261 152.838 188.421 152.012 188.741 151.242C189.06 150.471 189.532 149.771 190.129 149.182C190.726 148.593 191.436 148.128 192.217 147.813C192.999 147.498 193.837 147.34 194.681 147.348C198.232 147.363 200.953 150.097 200.953 153.639Z" fill="white"/>
<path d="M164.279 119.696C165.959 119.696 167.571 120.348 168.766 121.512C169.961 122.677 170.642 124.259 170.661 125.915C170.686 126.75 170.539 127.581 170.228 128.358C169.917 129.135 169.449 129.841 168.853 130.435C168.256 131.028 167.544 131.495 166.758 131.809C165.973 132.122 165.131 132.275 164.284 132.258C163.439 132.268 162.6 132.11 161.818 131.796C161.036 131.481 160.325 131.015 159.728 130.425C159.132 129.836 158.661 129.134 158.343 128.362C158.026 127.59 157.869 126.763 157.881 125.93C157.881 122.546 160.825 119.696 164.279 119.696Z" fill="white"/>
<path d="M164.287 147.348C165.969 147.351 167.582 148.008 168.776 149.177C169.97 150.346 170.647 151.932 170.661 153.59C170.684 154.424 170.534 155.254 170.222 156.029C169.909 156.804 169.44 157.509 168.843 158.1C168.246 158.691 167.533 159.157 166.748 159.468C165.963 159.78 165.122 159.931 164.276 159.912C163.431 159.921 162.592 159.763 161.81 159.447C161.028 159.131 160.318 158.664 159.722 158.073C159.126 157.483 158.656 156.78 158.34 156.008C158.023 155.235 157.867 154.408 157.881 153.574C157.881 150.198 160.835 147.346 164.287 147.348Z" fill="white"/>
<path d="M256.529 126.755C254.004 126.558 251.467 126.547 248.94 126.723C245.447 127.011 243.26 129.219 243.207 132.683C243.176 134.937 243.207 137.194 243.207 139.448C243.207 141.796 243.165 144.146 243.207 146.493C243.283 149.862 245.279 151.857 248.68 152.178C251.297 152.416 253.931 152.411 256.547 152.163C259.87 151.857 261.973 149.647 261.999 146.384C262.031 141.736 262.031 137.086 261.999 132.434C261.973 129.146 259.87 126.97 256.529 126.755ZM254.589 146.566C253.298 146.548 252.008 146.543 250.717 146.566C249.426 146.589 248.785 145.991 248.806 144.69C248.832 142.905 248.806 141.117 248.806 139.332C248.806 137.546 248.819 135.761 248.806 133.976C248.793 132.805 249.416 132.217 250.538 132.162C251.921 132.11 253.309 132.113 254.694 132.162C255.746 132.201 256.379 132.774 256.379 133.862C256.379 137.529 256.379 141.195 256.379 144.858C256.384 146.037 255.769 146.581 254.589 146.566Z" fill="#FFD532"/>
<path d="M280.091 137.453C282.625 131.872 278.777 127.348 274.114 127.053C272.923 126.975 271.724 127.022 270.528 127.035C266.803 127.071 264.693 129.144 264.661 132.836C264.635 135.751 264.661 138.663 264.661 141.578V150.46C264.661 152.186 264.821 152.274 266.525 151.792C267.161 151.608 267.626 151.085 268.496 151.367C271.322 152.284 274.24 151.937 277.126 151.626C278.012 151.533 278.703 150.979 279.352 150.419C282.144 147.988 282.662 141.71 280.272 138.868C279.847 138.352 279.807 138.078 280.091 137.453ZM272.81 131.828C275.207 131.828 275.83 132.447 275.735 134.717C275.667 136.43 275.141 136.922 273.356 136.945C273.117 136.945 272.881 136.945 272.642 136.945C270.068 136.945 270.068 136.945 270.068 134.37C270.068 131.794 270.068 131.825 272.81 131.828ZM274.011 147.022C273.154 147.048 272.284 146.947 271.438 147.045C270.26 147.185 269.913 146.708 270.058 145.641C270.089 145.172 270.089 144.702 270.058 144.234C270.058 141.441 270.058 141.441 272.847 141.441C273.23 141.441 273.611 141.441 273.993 141.441C275.793 141.48 276.621 142.345 276.621 144.216C276.621 146.087 275.793 146.965 274.011 147.022Z" fill="#FFD532"/>
<path d="M296.539 127.252C294.53 126.633 292.477 126.778 290.43 126.778C286.689 126.778 284.444 128.965 284.429 132.613C284.429 135.572 284.429 138.531 284.429 141.49C284.429 144.685 284.429 147.877 284.429 151.077C284.429 151.738 284.508 152.113 285.338 152.098C288.109 152.049 290.885 152.176 293.647 152.043C298.839 151.797 302.395 148.592 302.655 143.819C302.874 140.679 302.839 137.526 302.55 134.391C302.19 130.934 299.922 128.296 296.539 127.252ZM297.29 142.394C297.214 145.162 295.606 146.695 292.785 146.737C289.965 146.778 289.933 146.778 289.933 143.967V139.327C289.933 137.254 289.967 135.199 289.917 133.139C289.899 132.338 290.159 132.123 290.969 132.103C296.089 131.958 297.296 133.095 297.296 138.179C297.296 139.583 297.327 140.99 297.29 142.394Z" fill="#FFD532"/>
<path d="M323.705 127.177C321.213 127.319 318.802 129.421 318.579 131.88C318.475 133.285 318.446 134.695 318.492 136.103C318.505 136.88 318.266 137.189 317.441 137.158C315.914 137.101 314.381 137.077 312.856 137.158C311.805 137.22 311.442 136.917 311.476 135.836C311.555 133.302 311.458 130.763 311.524 128.226C311.55 127.21 311.198 127.081 310.283 127.254C307.531 127.773 305.607 129.802 305.578 132.652C305.504 138.852 305.578 145.055 305.533 151.256C305.533 152.033 305.825 152.214 306.543 152.144C309.032 151.906 311.274 149.693 311.434 147.221C311.516 145.864 311.511 144.495 311.476 143.135C311.461 142.449 311.71 142.244 312.389 142.259C314.013 142.298 315.643 142.34 317.262 142.259C318.313 142.2 318.521 142.596 318.497 143.539C318.437 146.029 318.542 148.522 318.45 151.009C318.405 152.248 318.976 152.305 319.909 152.085C322.601 151.452 324.351 149.408 324.401 146.643C324.456 143.638 324.401 140.63 324.401 137.621C324.401 134.476 324.401 131.325 324.401 128.18C324.404 127.729 324.675 127.122 323.705 127.177Z" fill="#FFD532"/>
<path d="M239.341 146.04C236.762 146.094 234.181 146.003 231.605 146.084C230.477 146.12 230.167 145.794 230.18 144.682C230.24 139.241 230.18 133.8 230.238 128.343C230.253 127.159 229.872 127.047 228.86 127.28C226.282 127.843 224.46 129.827 224.415 132.416C224.358 135.466 224.402 138.518 224.402 141.57H224.384C224.384 144.679 224.397 147.768 224.384 150.867C224.384 151.515 224.434 151.903 225.278 151.883C228.571 151.833 231.867 151.911 235.161 151.839C237.771 151.779 239.866 149.766 240.308 147.175C240.455 146.317 240.287 146.019 239.341 146.04Z" fill="#FFD532"/>
<path d="M332.971 137.551C332.971 134.403 332.971 131.255 332.957 128.109C332.957 127.682 333.257 127.031 332.29 127.088C329.703 127.236 327.24 129.56 327.217 132.159C327.161 138.453 327.217 144.747 327.172 151.043C327.172 151.903 327.54 151.937 328.194 151.867C330.742 151.608 332.9 149.39 332.944 146.851C332.999 143.741 332.944 140.65 332.944 137.551H332.971Z" fill="#FFD532"/>
</g>
<path d="M144.56 322.28C148.213 322.28 151.053 323.04 153.08 324.56C155.107 326.08 156.12 328.333 156.12 331.32C156.12 334.44 155.12 336.8 153.12 338.4C151.147 339.973 148.493 340.76 145.16 340.76H142.16V350H135.6V322.28H144.56ZM144.6 336.04C146.147 336.04 147.32 335.68 148.12 334.96C148.947 334.213 149.36 333 149.36 331.32C149.36 328.413 147.733 326.96 144.48 326.96H142.16V336.04H144.6ZM170.203 328.16C170.976 328.16 171.683 328.253 172.323 328.44L171.323 334.56C170.523 334.373 169.883 334.28 169.403 334.28C168.15 334.28 167.19 334.72 166.523 335.6C165.883 336.453 165.376 337.747 165.003 339.48V350H158.683V328.76H164.203L164.723 332.88C165.203 331.413 165.923 330.267 166.883 329.44C167.87 328.587 168.976 328.16 170.203 328.16ZM182.727 328.08C185.98 328.08 188.527 329.08 190.367 331.08C192.207 333.053 193.127 335.827 193.127 339.4C193.127 341.667 192.7 343.653 191.847 345.36C191.02 347.04 189.82 348.347 188.247 349.28C186.7 350.213 184.86 350.68 182.727 350.68C179.5 350.68 176.954 349.693 175.087 347.72C173.247 345.72 172.327 342.933 172.327 339.36C172.327 337.093 172.74 335.12 173.567 333.44C174.42 331.733 175.62 330.413 177.167 329.48C178.74 328.547 180.594 328.08 182.727 328.08ZM182.727 332.72C181.447 332.72 180.487 333.267 179.847 334.36C179.207 335.427 178.887 337.093 178.887 339.36C178.887 341.68 179.194 343.373 179.807 344.44C180.447 345.507 181.42 346.04 182.727 346.04C184.007 346.04 184.967 345.507 185.607 344.44C186.247 343.347 186.567 341.667 186.567 339.4C186.567 337.08 186.247 335.387 185.607 334.32C184.994 333.253 184.034 332.72 182.727 332.72ZM215.926 320.32V350H210.326L210.006 347.52C208.513 349.627 206.5 350.68 203.966 350.68C201.326 350.68 199.313 349.667 197.926 347.64C196.566 345.613 195.886 342.84 195.886 339.32C195.886 337.16 196.246 335.227 196.966 333.52C197.686 331.813 198.7 330.48 200.006 329.52C201.34 328.56 202.86 328.08 204.566 328.08C206.593 328.08 208.273 328.747 209.606 330.08V319.64L215.926 320.32ZM205.926 346.04C207.393 346.04 208.62 345.24 209.606 343.64V334.48C209.1 333.867 208.58 333.413 208.046 333.12C207.54 332.827 206.953 332.68 206.286 332.68C205.113 332.68 204.18 333.227 203.486 334.32C202.793 335.413 202.446 337.093 202.446 339.36C202.446 341.84 202.74 343.573 203.326 344.56C203.94 345.547 204.806 346.04 205.926 346.04ZM238.791 350H233.311L233.031 347.32C231.484 349.56 229.337 350.68 226.591 350.68C224.644 350.68 223.164 350.093 222.151 348.92C221.164 347.747 220.671 346.107 220.671 344V328.76H226.991V343.2C226.991 344.24 227.151 344.973 227.471 345.4C227.817 345.8 228.337 346 229.031 346C230.364 346 231.511 345.173 232.471 343.52V328.76H238.791V350ZM252.961 328.08C254.428 328.08 255.748 328.293 256.921 328.72C258.095 329.147 259.201 329.8 260.241 330.68L257.521 334.44C256.188 333.427 254.841 332.92 253.481 332.92C252.068 332.92 251.001 333.44 250.281 334.48C249.561 335.52 249.201 337.2 249.201 339.52C249.201 341.76 249.561 343.347 250.281 344.28C251.001 345.213 252.041 345.68 253.401 345.68C254.121 345.68 254.775 345.573 255.361 345.36C255.948 345.12 256.655 344.747 257.481 344.24L260.241 348.16C258.135 349.84 255.748 350.68 253.081 350.68C250.921 350.68 249.055 350.227 247.481 349.32C245.908 348.387 244.695 347.093 243.841 345.44C242.988 343.76 242.561 341.8 242.561 339.56C242.561 337.32 242.988 335.333 243.841 333.6C244.695 331.867 245.908 330.52 247.481 329.56C249.055 328.573 250.881 328.08 252.961 328.08ZM276.222 349C275.449 349.533 274.542 349.947 273.502 350.24C272.489 350.533 271.475 350.68 270.462 350.68C265.822 350.653 263.502 348.093 263.502 343V333.16H260.502V328.76H263.502V324.16L269.822 323.44V328.76H274.702L274.022 333.16H269.822V342.92C269.822 343.907 269.982 344.613 270.302 345.04C270.622 345.467 271.129 345.68 271.822 345.68C272.542 345.68 273.302 345.453 274.102 345L276.222 349ZM315.464 350H309.024L308.544 339.16C308.41 336.573 308.344 334.267 308.344 332.24C308.344 330.693 308.384 329.227 308.464 327.84L304.184 347.08H297.984L293.424 327.84C293.584 330.16 293.664 332.347 293.664 334.4C293.664 335.947 293.624 337.56 293.544 339.24L293.064 350H286.664L288.744 322.28H297.024L301.184 341.08L305.064 322.28H313.384L315.464 350ZM336.149 343.84C336.149 344.64 336.256 345.227 336.469 345.6C336.709 345.973 337.082 346.253 337.589 346.44L336.269 350.56C334.962 350.453 333.896 350.173 333.069 349.72C332.242 349.24 331.602 348.493 331.149 347.48C329.762 349.613 327.629 350.68 324.749 350.68C322.642 350.68 320.962 350.067 319.709 348.84C318.456 347.613 317.829 346.013 317.829 344.04C317.829 341.72 318.682 339.947 320.389 338.72C322.096 337.493 324.562 336.88 327.789 336.88H329.949V335.96C329.949 334.707 329.682 333.853 329.149 333.4C328.616 332.92 327.682 332.68 326.349 332.68C325.656 332.68 324.816 332.787 323.829 333C322.842 333.187 321.829 333.453 320.789 333.8L319.349 329.64C320.682 329.133 322.042 328.747 323.429 328.48C324.842 328.213 326.149 328.08 327.349 328.08C330.389 328.08 332.616 328.707 334.029 329.96C335.442 331.213 336.149 333.093 336.149 335.6V343.84ZM326.589 346.16C328.029 346.16 329.149 345.48 329.949 344.12V340.36H328.389C326.949 340.36 325.869 340.613 325.149 341.12C324.456 341.627 324.109 342.413 324.109 343.48C324.109 344.333 324.322 345 324.749 345.48C325.202 345.933 325.816 346.16 326.589 346.16ZM353.623 328.08C355.463 328.08 356.903 328.64 357.943 329.76C358.983 330.88 359.503 332.453 359.503 334.48V350H353.183V335.56C353.183 334.493 353.01 333.76 352.663 333.36C352.343 332.933 351.85 332.72 351.183 332.72C349.903 332.72 348.676 333.64 347.503 335.48V350H341.183V328.76H346.703L347.143 331.28C348.05 330.213 349.023 329.413 350.063 328.88C351.13 328.347 352.316 328.08 353.623 328.08ZM381.149 343.84C381.149 344.64 381.256 345.227 381.469 345.6C381.709 345.973 382.082 346.253 382.589 346.44L381.269 350.56C379.962 350.453 378.896 350.173 378.069 349.72C377.242 349.24 376.602 348.493 376.149 347.48C374.762 349.613 372.629 350.68 369.749 350.68C367.642 350.68 365.962 350.067 364.709 348.84C363.456 347.613 362.829 346.013 362.829 344.04C362.829 341.72 363.682 339.947 365.389 338.72C367.096 337.493 369.562 336.88 372.789 336.88H374.949V335.96C374.949 334.707 374.682 333.853 374.149 333.4C373.616 332.92 372.682 332.68 371.349 332.68C370.656 332.68 369.816 332.787 368.829 333C367.842 333.187 366.829 333.453 365.789 333.8L364.349 329.64C365.682 329.133 367.042 328.747 368.429 328.48C369.842 328.213 371.149 328.08 372.349 328.08C375.389 328.08 377.616 328.707 379.029 329.96C380.442 331.213 381.149 333.093 381.149 335.6V343.84ZM371.589 346.16C373.029 346.16 374.149 345.48 374.949 344.12V340.36H373.389C371.949 340.36 370.869 340.613 370.149 341.12C369.456 341.627 369.109 342.413 369.109 343.48C369.109 344.333 369.322 345 369.749 345.48C370.202 345.933 370.816 346.16 371.589 346.16ZM405.352 330C403.966 330.56 401.926 330.84 399.233 330.84C400.619 331.427 401.633 332.147 402.273 333C402.913 333.853 403.233 334.96 403.233 336.32C403.233 337.68 402.873 338.907 402.153 340C401.433 341.067 400.393 341.907 399.033 342.52C397.699 343.133 396.126 343.44 394.313 343.44C393.459 343.44 392.646 343.36 391.873 343.2C391.659 343.307 391.486 343.48 391.353 343.72C391.246 343.933 391.193 344.16 391.193 344.4C391.193 344.8 391.339 345.12 391.633 345.36C391.953 345.573 392.579 345.68 393.513 345.68H396.713C398.339 345.68 399.766 345.947 400.993 346.48C402.219 347.013 403.166 347.747 403.833 348.68C404.499 349.613 404.833 350.667 404.833 351.84C404.833 354.053 403.873 355.773 401.953 357C400.059 358.253 397.313 358.88 393.713 358.88C391.126 358.88 389.086 358.6 387.593 358.04C386.099 357.507 385.046 356.747 384.433 355.76C383.846 354.773 383.553 353.533 383.553 352.04H389.233C389.233 352.68 389.353 353.187 389.593 353.56C389.859 353.933 390.326 354.213 390.993 354.4C391.659 354.587 392.619 354.68 393.872 354.68C395.606 354.68 396.806 354.467 397.473 354.04C398.139 353.64 398.473 353.053 398.473 352.28C398.473 351.64 398.219 351.133 397.713 350.76C397.206 350.387 396.446 350.2 395.433 350.2H392.353C390.166 350.2 388.526 349.813 387.433 349.04C386.366 348.24 385.833 347.227 385.833 346C385.833 345.227 386.059 344.48 386.513 343.76C386.966 343.013 387.579 342.4 388.353 341.92C387.019 341.2 386.046 340.36 385.433 339.4C384.846 338.413 384.553 337.227 384.553 335.84C384.553 333.467 385.406 331.587 387.113 330.2C388.819 328.787 391.073 328.08 393.872 328.08C396.006 328.133 397.806 327.92 399.273 327.44C400.766 326.96 402.299 326.253 403.872 325.32L405.352 330ZM394.033 332.24C393.046 332.24 392.259 332.56 391.673 333.2C391.113 333.813 390.833 334.667 390.833 335.76C390.833 336.907 391.113 337.8 391.673 338.44C392.259 339.053 393.046 339.36 394.033 339.36C395.073 339.36 395.859 339.053 396.393 338.44C396.953 337.827 397.233 336.907 397.233 335.68C397.233 333.387 396.166 332.24 394.033 332.24ZM425.445 338.96C425.445 339.84 425.405 340.6 425.325 341.24H412.165C412.379 343.027 412.885 344.28 413.685 345C414.485 345.72 415.592 346.08 417.005 346.08C417.859 346.08 418.685 345.933 419.485 345.64C420.285 345.32 421.152 344.84 422.085 344.2L424.685 347.72C422.205 349.693 419.445 350.68 416.405 350.68C412.965 350.68 410.325 349.667 408.485 347.64C406.645 345.613 405.725 342.893 405.725 339.48C405.725 337.32 406.112 335.387 406.885 333.68C407.659 331.947 408.792 330.587 410.285 329.6C411.779 328.587 413.565 328.08 415.645 328.08C418.712 328.08 421.112 329.04 422.845 330.96C424.579 332.88 425.445 335.547 425.445 338.96ZM419.245 337.16C419.192 333.907 418.045 332.28 415.805 332.28C414.712 332.28 413.859 332.68 413.245 333.48C412.659 334.28 412.299 335.6 412.165 337.44H419.245V337.16ZM440.516 328.16C441.289 328.16 441.996 328.253 442.636 328.44L441.636 334.56C440.836 334.373 440.196 334.28 439.716 334.28C438.462 334.28 437.502 334.72 436.836 335.6C436.196 336.453 435.689 337.747 435.316 339.48V350H428.996V328.76H434.516L435.036 332.88C435.516 331.413 436.236 330.267 437.196 329.44C438.182 328.587 439.289 328.16 440.516 328.16Z" fill="white"/>
<path d="M147.885 251.955V297H137.225V251.955H147.885ZM171.868 255.27C170.395 255.27 169.333 255.617 168.683 256.31C168.033 257.003 167.708 258.173 167.708 259.82V262.485H175.833L174.728 269.635H167.708V297H157.438V269.635H152.238V262.485H157.438V259.43C157.438 255.963 158.565 253.147 160.818 250.98C163.115 248.77 166.386 247.665 170.633 247.665C174.056 247.665 177.198 248.402 180.058 249.875L177.263 256.57C175.53 255.703 173.731 255.27 171.868 255.27ZM200.887 295.375C199.63 296.242 198.157 296.913 196.467 297.39C194.82 297.867 193.174 298.105 191.527 298.105C183.987 298.062 180.217 293.902 180.217 285.625V269.635H175.342V262.485H180.217V255.01L190.487 253.84V262.485H198.417L197.312 269.635H190.487V285.495C190.487 287.098 190.747 288.247 191.267 288.94C191.787 289.633 192.61 289.98 193.737 289.98C194.907 289.98 196.142 289.612 197.442 288.875L200.887 295.375ZM233.268 279.06C233.268 280.49 233.203 281.725 233.073 282.765H211.688C212.034 285.668 212.858 287.705 214.158 288.875C215.458 290.045 217.256 290.63 219.553 290.63C220.939 290.63 222.283 290.392 223.583 289.915C224.883 289.395 226.291 288.615 227.808 287.575L232.033 293.295C228.003 296.502 223.518 298.105 218.578 298.105C212.988 298.105 208.698 296.458 205.708 293.165C202.718 289.872 201.223 285.452 201.223 279.905C201.223 276.395 201.851 273.253 203.108 270.48C204.364 267.663 206.206 265.453 208.633 263.85C211.059 262.203 213.963 261.38 217.343 261.38C222.326 261.38 226.226 262.94 229.043 266.06C231.859 269.18 233.268 273.513 233.268 279.06ZM223.193 276.135C223.106 270.848 221.243 268.205 217.603 268.205C215.826 268.205 214.439 268.855 213.443 270.155C212.489 271.455 211.904 273.6 211.688 276.59H223.193V276.135ZM249.307 247.665V297H239.037V248.77L249.307 247.665ZM270.627 262.485L260.162 277.63L271.472 297H259.902L249.632 278.15L260.162 262.485H270.627ZM295.116 261.38C298.106 261.38 300.446 262.29 302.136 264.11C303.826 265.93 304.671 268.487 304.671 271.78V297H294.401V273.535C294.401 271.802 294.119 270.61 293.556 269.96C292.993 269.267 292.191 268.92 291.151 268.92C289.071 268.92 287.078 270.393 285.171 273.34V297H274.901V248.77L285.171 247.73V266.19C286.601 264.587 288.118 263.395 289.721 262.615C291.324 261.792 293.123 261.38 295.116 261.38ZM342.511 279.06C342.511 280.49 342.446 281.725 342.316 282.765H320.931C321.277 285.668 322.101 287.705 323.401 288.875C324.701 290.045 326.499 290.63 328.796 290.63C330.182 290.63 331.526 290.392 332.826 289.915C334.126 289.395 335.534 288.615 337.051 287.575L341.276 293.295C337.246 296.502 332.761 298.105 327.821 298.105C322.231 298.105 317.941 296.458 314.951 293.165C311.961 289.872 310.466 285.452 310.466 279.905C310.466 276.395 311.094 273.253 312.351 270.48C313.607 267.663 315.449 265.453 317.876 263.85C320.302 262.203 323.206 261.38 326.586 261.38C331.569 261.38 335.469 262.94 338.286 266.06C341.102 269.18 342.511 273.513 342.511 279.06ZM332.436 276.135C332.349 270.848 330.486 268.205 326.846 268.205C325.069 268.205 323.682 268.855 322.686 270.155C321.732 271.455 321.147 273.6 320.931 276.59H332.436V276.135ZM367 261.51C368.257 261.51 369.405 261.662 370.445 261.965L368.82 271.91C367.52 271.607 366.48 271.455 365.7 271.455C363.663 271.455 362.103 272.17 361.02 273.6C359.98 274.987 359.157 277.088 358.55 279.905V297H348.28V262.485H357.25L358.095 269.18C358.875 266.797 360.045 264.933 361.605 263.59C363.208 262.203 365.007 261.51 367 261.51ZM414.169 297V277.695H400.649V297H389.989V251.955H400.649V269.375H414.169V251.955H424.829V297H414.169ZM448.035 261.38C453.321 261.38 457.46 263.005 460.45 266.255C463.44 269.462 464.935 273.968 464.935 279.775C464.935 283.458 464.241 286.687 462.855 289.46C461.511 292.19 459.561 294.313 457.005 295.83C454.491 297.347 451.501 298.105 448.035 298.105C442.791 298.105 438.653 296.502 435.62 293.295C432.63 290.045 431.135 285.517 431.135 279.71C431.135 276.027 431.806 272.82 433.15 270.09C434.536 267.317 436.486 265.172 439 263.655C441.556 262.138 444.568 261.38 448.035 261.38ZM448.035 268.92C445.955 268.92 444.395 269.808 443.355 271.585C442.315 273.318 441.795 276.027 441.795 279.71C441.795 283.48 442.293 286.232 443.29 287.965C444.33 289.698 445.911 290.565 448.035 290.565C450.115 290.565 451.675 289.698 452.715 287.965C453.755 286.188 454.275 283.458 454.275 279.775C454.275 276.005 453.755 273.253 452.715 271.52C451.718 269.787 450.158 268.92 448.035 268.92ZM483.199 261.38C485.669 261.38 487.987 261.748 490.154 262.485C492.32 263.222 494.227 264.262 495.874 265.605L492.104 271.39C489.287 269.613 486.449 268.725 483.589 268.725C482.245 268.725 481.205 268.963 480.469 269.44C479.775 269.873 479.429 270.502 479.429 271.325C479.429 271.975 479.58 272.517 479.884 272.95C480.23 273.34 480.902 273.752 481.899 274.185C482.895 274.618 484.434 275.138 486.514 275.745C490.11 276.785 492.775 278.15 494.509 279.84C496.285 281.487 497.174 283.783 497.174 286.73C497.174 289.07 496.502 291.107 495.159 292.84C493.815 294.53 491.974 295.83 489.634 296.74C487.294 297.65 484.694 298.105 481.834 298.105C478.93 298.105 476.222 297.65 473.709 296.74C471.239 295.83 469.137 294.573 467.404 292.97L472.409 287.38C475.312 289.633 478.367 290.76 481.574 290.76C483.134 290.76 484.347 290.478 485.214 289.915C486.124 289.352 486.579 288.55 486.579 287.51C486.579 286.687 486.405 286.037 486.059 285.56C485.712 285.083 485.04 284.65 484.044 284.26C483.047 283.827 481.465 283.307 479.299 282.7C475.875 281.703 473.319 280.317 471.629 278.54C469.939 276.763 469.094 274.553 469.094 271.91C469.094 269.917 469.657 268.14 470.784 266.58C471.954 264.977 473.6 263.72 475.724 262.81C477.89 261.857 480.382 261.38 483.199 261.38ZM514.175 261.38C516.645 261.38 518.964 261.748 521.13 262.485C523.297 263.222 525.204 264.262 526.85 265.605L523.08 271.39C520.264 269.613 517.425 268.725 514.565 268.725C513.222 268.725 512.182 268.963 511.445 269.44C510.752 269.873 510.405 270.502 510.405 271.325C510.405 271.975 510.557 272.517 510.86 272.95C511.207 273.34 511.879 273.752 512.875 274.185C513.872 274.618 515.41 275.138 517.49 275.745C521.087 276.785 523.752 278.15 525.485 279.84C527.262 281.487 528.15 283.783 528.15 286.73C528.15 289.07 527.479 291.107 526.135 292.84C524.792 294.53 522.95 295.83 520.61 296.74C518.27 297.65 515.67 298.105 512.81 298.105C509.907 298.105 507.199 297.65 504.685 296.74C502.215 295.83 500.114 294.573 498.38 292.97L503.385 287.38C506.289 289.633 509.344 290.76 512.55 290.76C514.11 290.76 515.324 290.478 516.19 289.915C517.1 289.352 517.555 288.55 517.555 287.51C517.555 286.687 517.382 286.037 517.035 285.56C516.689 285.083 516.017 284.65 515.02 284.26C514.024 283.827 512.442 283.307 510.275 282.7C506.852 281.703 504.295 280.317 502.605 278.54C500.915 276.763 500.07 274.553 500.07 271.91C500.07 269.917 500.634 268.14 501.76 266.58C502.93 264.977 504.577 263.72 506.7 262.81C508.867 261.857 511.359 261.38 514.175 261.38ZM560.236 286.99C560.236 288.29 560.41 289.243 560.756 289.85C561.146 290.457 561.753 290.912 562.576 291.215L560.431 297.91C558.308 297.737 556.575 297.282 555.231 296.545C553.888 295.765 552.848 294.552 552.111 292.905C549.858 296.372 546.391 298.105 541.711 298.105C538.288 298.105 535.558 297.108 533.521 295.115C531.485 293.122 530.466 290.522 530.466 287.315C530.466 283.545 531.853 280.663 534.626 278.67C537.4 276.677 541.408 275.68 546.651 275.68H550.161V274.185C550.161 272.148 549.728 270.762 548.861 270.025C547.995 269.245 546.478 268.855 544.311 268.855C543.185 268.855 541.82 269.028 540.216 269.375C538.613 269.678 536.966 270.112 535.276 270.675L532.936 263.915C535.103 263.092 537.313 262.463 539.566 262.03C541.863 261.597 543.986 261.38 545.936 261.38C550.876 261.38 554.495 262.398 556.791 264.435C559.088 266.472 560.236 269.527 560.236 273.6V286.99ZM544.701 290.76C547.041 290.76 548.861 289.655 550.161 287.445V281.335H547.626C545.286 281.335 543.531 281.747 542.361 282.57C541.235 283.393 540.671 284.672 540.671 286.405C540.671 287.792 541.018 288.875 541.711 289.655C542.448 290.392 543.445 290.76 544.701 290.76ZM578.687 262.485V297H568.417V262.485H578.687ZM573.487 244.285C575.263 244.285 576.715 244.848 577.842 245.975C579.012 247.058 579.597 248.445 579.597 250.135C579.597 251.825 579.012 253.233 577.842 254.36C576.715 255.443 575.263 255.985 573.487 255.985C571.71 255.985 570.258 255.443 569.132 254.36C568.005 253.233 567.442 251.825 567.442 250.135C567.442 248.445 568.005 247.058 569.132 245.975C570.258 244.848 571.71 244.285 573.487 244.285ZM606.976 261.38C609.966 261.38 612.306 262.29 613.996 264.11C615.686 265.93 616.531 268.487 616.531 271.78V297H606.261V273.535C606.261 271.802 605.98 270.61 605.416 269.96C604.896 269.267 604.095 268.92 603.011 268.92C600.931 268.92 598.938 270.415 597.031 273.405V297H586.761V262.485H595.731L596.446 266.58C597.92 264.847 599.501 263.547 601.191 262.68C602.925 261.813 604.853 261.38 606.976 261.38ZM663.621 297L661.281 287.315H648.151L645.876 297H634.826L648.411 251.955H661.346L674.931 297H663.621ZM649.971 279.58H659.461L654.716 259.69L649.971 279.58ZM697.606 261.38C701.722 261.38 704.886 263.005 707.096 266.255C709.306 269.462 710.411 273.968 710.411 279.775C710.411 283.328 709.847 286.492 708.721 289.265C707.637 292.038 706.056 294.205 703.976 295.765C701.939 297.325 699.512 298.105 696.696 298.105C694.832 298.105 693.121 297.715 691.561 296.935C690.044 296.155 688.744 295.072 687.661 293.685L687.141 297H678.041V248.77L688.311 247.665V265.995C689.351 264.565 690.672 263.438 692.276 262.615C693.922 261.792 695.699 261.38 697.606 261.38ZM693.706 290.63C697.736 290.63 699.751 287.012 699.751 279.775C699.751 275.658 699.274 272.82 698.321 271.26C697.367 269.7 695.981 268.92 694.161 268.92C691.864 268.92 689.914 270.263 688.311 272.95V287.315C688.961 288.355 689.741 289.178 690.651 289.785C691.604 290.348 692.622 290.63 693.706 290.63ZM727.095 262.485V297H716.825V262.485H727.095ZM721.895 244.285C723.672 244.285 725.123 244.848 726.25 245.975C727.42 247.058 728.005 248.445 728.005 250.135C728.005 251.825 727.42 253.233 726.25 254.36C725.123 255.443 723.672 255.985 721.895 255.985C720.118 255.985 718.667 255.443 717.54 254.36C716.413 253.233 715.85 251.825 715.85 250.135C715.85 248.445 716.413 247.058 717.54 245.975C718.667 244.848 720.118 244.285 721.895 244.285ZM753.89 261.51C755.146 261.51 756.295 261.662 757.335 261.965L755.71 271.91C754.41 271.607 753.37 271.455 752.59 271.455C750.553 271.455 748.993 272.17 747.91 273.6C746.87 274.987 746.046 277.088 745.44 279.905V297H735.17V262.485H744.14L744.985 269.18C745.765 266.797 746.935 264.933 748.495 263.59C750.098 262.203 751.896 261.51 753.89 261.51Z" fill="#FFD532"/>
<path d="M208.65 435.5C212.783 435.5 215.933 437.017 218.1 440.05C220.3 443.083 221.4 447.45 221.4 453.15C221.4 458.817 220.3 463.183 218.1 466.25C215.933 469.317 212.783 470.85 208.65 470.85C204.517 470.85 201.35 469.317 199.15 466.25C196.983 463.183 195.9 458.817 195.9 453.15C195.9 447.45 196.983 443.083 199.15 440.05C201.35 437.017 204.517 435.5 208.65 435.5ZM208.65 441.35C207.517 441.35 206.617 441.717 205.95 442.45C205.283 443.183 204.783 444.4 204.45 446.1C204.15 447.8 204 450.15 204 453.15C204 456.15 204.15 458.517 204.45 460.25C204.783 461.95 205.283 463.167 205.95 463.9C206.617 464.633 207.517 465 208.65 465C209.783 465 210.683 464.65 211.35 463.95C212.017 463.217 212.5 462 212.8 460.3C213.133 458.567 213.3 456.183 213.3 453.15C213.3 450.117 213.133 447.75 212.8 446.05C212.5 444.317 212.017 443.1 211.35 442.4C210.683 441.7 209.783 441.35 208.65 441.35ZM241.225 436.2V470H233.475V443.9L226.225 448.35L222.775 443.1L234.175 436.2H241.225ZM266.168 451.85C268.435 452.95 270.118 454.25 271.218 455.75C272.318 457.217 272.868 458.917 272.868 460.85C272.868 462.683 272.335 464.367 271.268 465.9C270.235 467.4 268.718 468.6 266.718 469.5C264.718 470.4 262.368 470.85 259.668 470.85C257.035 470.85 254.735 470.417 252.768 469.55C250.835 468.65 249.352 467.467 248.318 466C247.285 464.5 246.768 462.833 246.768 461C246.768 457.233 248.868 454.433 253.068 452.6C249.768 450.667 248.118 448 248.118 444.6C248.118 442.8 248.618 441.217 249.618 439.85C250.618 438.483 252.002 437.417 253.768 436.65C255.568 435.883 257.602 435.5 259.868 435.5C263.302 435.5 266.102 436.283 268.268 437.85C270.468 439.383 271.568 441.5 271.568 444.2C271.568 445.7 271.118 447.117 270.218 448.45C269.352 449.75 268.002 450.883 266.168 451.85ZM259.918 440.85C258.652 440.85 257.635 441.183 256.868 441.85C256.135 442.517 255.768 443.467 255.768 444.7C255.768 445.833 256.085 446.767 256.718 447.5C257.385 448.2 258.435 448.85 259.868 449.45L260.918 449.85C262.052 449.117 262.835 448.35 263.268 447.55C263.702 446.717 263.918 445.733 263.918 444.6C263.918 443.467 263.568 442.567 262.868 441.9C262.202 441.2 261.218 440.85 259.918 440.85ZM259.918 465.2C261.518 465.2 262.752 464.8 263.618 464C264.518 463.167 264.968 462.1 264.968 460.8C264.968 459.433 264.585 458.367 263.818 457.6C263.052 456.8 261.702 456.05 259.768 455.35L258.118 454.75C255.852 456.017 254.718 457.967 254.718 460.6C254.718 462 255.185 463.117 256.118 463.95C257.052 464.783 258.318 465.2 259.918 465.2ZM286.321 435.5C288.688 435.5 290.704 435.883 292.371 436.65C294.071 437.417 295.354 438.45 296.221 439.75C297.121 441.05 297.571 442.5 297.571 444.1C297.571 446.133 296.988 447.833 295.821 449.2C294.688 450.567 293.071 451.55 290.971 452.15C293.238 452.383 295.088 453.2 296.521 454.6C297.954 455.967 298.671 457.917 298.671 460.45C298.671 462.35 298.171 464.1 297.171 465.7C296.171 467.267 294.688 468.517 292.721 469.45C290.788 470.383 288.471 470.85 285.771 470.85C280.838 470.85 276.971 469.15 274.171 465.75L278.421 461.6C279.554 462.733 280.654 463.567 281.721 464.1C282.821 464.6 284.021 464.85 285.321 464.85C286.888 464.85 288.154 464.417 289.121 463.55C290.088 462.683 290.571 461.483 290.571 459.95C290.571 458.217 290.104 456.983 289.171 456.25C288.271 455.483 286.904 455.1 285.071 455.1H282.271L283.121 449.65H285.071C286.571 449.65 287.754 449.267 288.621 448.5C289.488 447.733 289.921 446.65 289.921 445.25C289.921 444.017 289.521 443.067 288.721 442.4C287.921 441.7 286.821 441.35 285.421 441.35C283.054 441.35 280.854 442.333 278.821 444.3L274.921 440.05C278.121 437.017 281.921 435.5 286.321 435.5ZM311.759 435.5C314.193 435.5 316.276 435.933 318.009 436.8C319.776 437.667 321.109 438.833 322.009 440.3C322.943 441.767 323.409 443.383 323.409 445.15C323.409 446.95 323.043 448.667 322.309 450.3C321.576 451.933 320.276 453.817 318.409 455.95C316.543 458.05 313.826 460.717 310.259 463.95H324.109L323.309 470H301.309V464.4C305.409 460.367 308.393 457.333 310.259 455.3C312.126 453.233 313.426 451.517 314.159 450.15C314.926 448.783 315.309 447.383 315.309 445.95C315.309 444.583 314.909 443.517 314.109 442.75C313.343 441.95 312.293 441.55 310.959 441.55C309.759 441.55 308.693 441.833 307.759 442.4C306.826 442.933 305.843 443.817 304.809 445.05L300.159 441.35C301.559 439.517 303.226 438.083 305.159 437.05C307.126 436.017 309.326 435.5 311.759 435.5ZM346.539 451.85C348.806 452.95 350.489 454.25 351.589 455.75C352.689 457.217 353.239 458.917 353.239 460.85C353.239 462.683 352.706 464.367 351.639 465.9C350.606 467.4 349.089 468.6 347.089 469.5C345.089 470.4 342.739 470.85 340.039 470.85C337.406 470.85 335.106 470.417 333.139 469.55C331.206 468.65 329.723 467.467 328.689 466C327.656 464.5 327.139 462.833 327.139 461C327.139 457.233 329.239 454.433 333.439 452.6C330.139 450.667 328.489 448 328.489 444.6C328.489 442.8 328.989 441.217 329.989 439.85C330.989 438.483 332.373 437.417 334.139 436.65C335.939 435.883 337.973 435.5 340.239 435.5C343.673 435.5 346.473 436.283 348.639 437.85C350.839 439.383 351.939 441.5 351.939 444.2C351.939 445.7 351.489 447.117 350.589 448.45C349.723 449.75 348.373 450.883 346.539 451.85ZM340.289 440.85C339.023 440.85 338.006 441.183 337.239 441.85C336.506 442.517 336.139 443.467 336.139 444.7C336.139 445.833 336.456 446.767 337.089 447.5C337.756 448.2 338.806 448.85 340.239 449.45L341.289 449.85C342.423 449.117 343.206 448.35 343.639 447.55C344.073 446.717 344.289 445.733 344.289 444.6C344.289 443.467 343.939 442.567 343.239 441.9C342.573 441.2 341.589 440.85 340.289 440.85ZM340.289 465.2C341.889 465.2 343.123 464.8 343.989 464C344.889 463.167 345.339 462.1 345.339 460.8C345.339 459.433 344.956 458.367 344.189 457.6C343.423 456.8 342.073 456.05 340.139 455.35L338.489 454.75C336.223 456.017 335.089 457.967 335.089 460.6C335.089 462 335.556 463.117 336.489 463.95C337.423 464.783 338.689 465.2 340.289 465.2ZM371.992 447.25C373.859 447.25 375.526 447.7 376.992 448.6C378.459 449.467 379.609 450.75 380.442 452.45C381.276 454.117 381.692 456.117 381.692 458.45C381.692 460.75 381.192 462.85 380.192 464.75C379.192 466.617 377.759 468.1 375.892 469.2C374.059 470.3 371.909 470.85 369.442 470.85C365.109 470.85 361.892 469.4 359.792 466.5C357.692 463.6 356.642 459.617 356.642 454.55C356.642 450.75 357.226 447.417 358.392 444.55C359.592 441.683 361.292 439.467 363.492 437.9C365.726 436.3 368.342 435.5 371.342 435.5C374.242 435.5 376.809 436.25 379.042 437.75L376.142 442.45C374.642 441.583 373.109 441.15 371.542 441.15C369.642 441.15 368.109 441.95 366.942 443.55C365.776 445.15 365.076 447.417 364.842 450.35C366.876 448.283 369.259 447.25 371.992 447.25ZM369.542 465.2C370.942 465.2 371.992 464.617 372.692 463.45C373.426 462.25 373.792 460.617 373.792 458.55C373.792 456.45 373.459 454.95 372.792 454.05C372.126 453.15 371.126 452.7 369.792 452.7C367.992 452.7 366.342 453.583 364.842 455.35C364.909 458.917 365.292 461.45 365.992 462.95C366.692 464.45 367.876 465.2 369.542 465.2ZM397.615 435.5C401.748 435.5 404.898 437.017 407.065 440.05C409.265 443.083 410.365 447.45 410.365 453.15C410.365 458.817 409.265 463.183 407.065 466.25C404.898 469.317 401.748 470.85 397.615 470.85C393.482 470.85 390.315 469.317 388.115 466.25C385.948 463.183 384.865 458.817 384.865 453.15C384.865 447.45 385.948 443.083 388.115 440.05C390.315 437.017 393.482 435.5 397.615 435.5ZM397.615 441.35C396.482 441.35 395.582 441.717 394.915 442.45C394.248 443.183 393.748 444.4 393.415 446.1C393.115 447.8 392.965 450.15 392.965 453.15C392.965 456.15 393.115 458.517 393.415 460.25C393.748 461.95 394.248 463.167 394.915 463.9C395.582 464.633 396.482 465 397.615 465C398.748 465 399.648 464.65 400.315 463.95C400.982 463.217 401.465 462 401.765 460.3C402.098 458.567 402.265 456.183 402.265 453.15C402.265 450.117 402.098 447.75 401.765 446.05C401.465 444.317 400.982 443.1 400.315 442.4C399.648 441.7 398.748 441.35 397.615 441.35ZM429.463 447.25C431.33 447.25 432.996 447.7 434.463 448.6C435.93 449.467 437.08 450.75 437.913 452.45C438.746 454.117 439.163 456.117 439.163 458.45C439.163 460.75 438.663 462.85 437.663 464.75C436.663 466.617 435.23 468.1 433.363 469.2C431.53 470.3 429.38 470.85 426.913 470.85C422.58 470.85 419.363 469.4 417.263 466.5C415.163 463.6 414.113 459.617 414.113 454.55C414.113 450.75 414.696 447.417 415.863 444.55C417.063 441.683 418.763 439.467 420.963 437.9C423.196 436.3 425.813 435.5 428.813 435.5C431.713 435.5 434.28 436.25 436.513 437.75L433.613 442.45C432.113 441.583 430.58 441.15 429.013 441.15C427.113 441.15 425.58 441.95 424.413 443.55C423.246 445.15 422.546 447.417 422.313 450.35C424.346 448.283 426.73 447.25 429.463 447.25ZM427.013 465.2C428.413 465.2 429.463 464.617 430.163 463.45C430.896 462.25 431.263 460.617 431.263 458.55C431.263 456.45 430.93 454.95 430.263 454.05C429.596 453.15 428.596 452.7 427.263 452.7C425.463 452.7 423.813 453.583 422.313 455.35C422.38 458.917 422.763 461.45 423.463 462.95C424.163 464.45 425.346 465.2 427.013 465.2ZM467.636 456.8V462.7H463.836V470H456.136L456.086 462.7H441.836V457.45L451.436 435.35L458.136 437.85L449.986 456.8H456.186L457.036 448.8H463.836V456.8H467.636ZM479.876 435.5C482.242 435.5 484.259 435.883 485.926 436.65C487.626 437.417 488.909 438.45 489.776 439.75C490.676 441.05 491.126 442.5 491.126 444.1C491.126 446.133 490.542 447.833 489.376 449.2C488.242 450.567 486.626 451.55 484.526 452.15C486.792 452.383 488.642 453.2 490.076 454.6C491.509 455.967 492.226 457.917 492.226 460.45C492.226 462.35 491.726 464.1 490.726 465.7C489.726 467.267 488.242 468.517 486.276 469.45C484.342 470.383 482.026 470.85 479.326 470.85C474.392 470.85 470.526 469.15 467.726 465.75L471.976 461.6C473.109 462.733 474.209 463.567 475.276 464.1C476.376 464.6 477.576 464.85 478.876 464.85C480.442 464.85 481.709 464.417 482.676 463.55C483.642 462.683 484.126 461.483 484.126 459.95C484.126 458.217 483.659 456.983 482.726 456.25C481.826 455.483 480.459 455.1 478.626 455.1H475.826L476.676 449.65H478.626C480.126 449.65 481.309 449.267 482.176 448.5C483.042 447.733 483.476 446.65 483.476 445.25C483.476 444.017 483.076 443.067 482.276 442.4C481.476 441.7 480.376 441.35 478.976 441.35C476.609 441.35 474.409 442.333 472.376 444.3L468.476 440.05C471.676 437.017 475.476 435.5 479.876 435.5ZM205 503.45V530H197.1V503.45H205ZM201 489.45C202.367 489.45 203.483 489.883 204.35 490.75C205.25 491.583 205.7 492.65 205.7 493.95C205.7 495.25 205.25 496.333 204.35 497.2C203.483 498.033 202.367 498.45 201 498.45C199.633 498.45 198.517 498.033 197.65 497.2C196.783 496.333 196.35 495.25 196.35 493.95C196.35 492.65 196.783 491.583 197.65 490.75C198.517 489.883 199.633 489.45 201 489.45ZM223.361 497.9C222.228 497.9 221.411 498.167 220.911 498.7C220.411 499.233 220.161 500.133 220.161 501.4V503.45H226.411L225.561 508.95H220.161V530H212.261V508.95H208.261V503.45H212.261V501.1C212.261 498.433 213.128 496.267 214.861 494.6C216.628 492.9 219.145 492.05 222.411 492.05C225.045 492.05 227.461 492.617 229.661 493.75L227.511 498.9C226.178 498.233 224.795 497.9 223.361 497.9ZM245.684 528.75C244.717 529.417 243.584 529.933 242.284 530.3C241.017 530.667 239.75 530.85 238.484 530.85C232.684 530.817 229.784 527.617 229.784 521.25V508.95H226.034V503.45H229.784V497.7L237.684 496.8V503.45H243.784L242.934 508.95H237.684V521.15C237.684 522.383 237.884 523.267 238.284 523.8C238.684 524.333 239.317 524.6 240.184 524.6C241.084 524.6 242.034 524.317 243.034 523.75L245.684 528.75ZM270.592 516.2C270.592 517.3 270.542 518.25 270.442 519.05H253.992C254.258 521.283 254.892 522.85 255.892 523.75C256.892 524.65 258.275 525.1 260.042 525.1C261.108 525.1 262.142 524.917 263.142 524.55C264.142 524.15 265.225 523.55 266.392 522.75L269.642 527.15C266.542 529.617 263.092 530.85 259.292 530.85C254.992 530.85 251.692 529.583 249.392 527.05C247.092 524.517 245.942 521.117 245.942 516.85C245.942 514.15 246.425 511.733 247.392 509.6C248.358 507.433 249.775 505.733 251.642 504.5C253.508 503.233 255.742 502.6 258.342 502.6C262.175 502.6 265.175 503.8 267.342 506.2C269.508 508.6 270.592 511.933 270.592 516.2ZM262.842 513.95C262.775 509.883 261.342 507.85 258.542 507.85C257.175 507.85 256.108 508.35 255.342 509.35C254.608 510.35 254.158 512 253.992 514.3H262.842V513.95ZM282.93 492.05V530H275.03V492.9L282.93 492.05ZM299.33 503.45L291.28 515.1L299.98 530H291.08L283.18 515.5L291.28 503.45H299.33ZM318.168 502.6C320.468 502.6 322.268 503.3 323.568 504.7C324.868 506.1 325.518 508.067 325.518 510.6V530H317.618V511.95C317.618 510.617 317.401 509.7 316.968 509.2C316.534 508.667 315.918 508.4 315.118 508.4C313.518 508.4 311.984 509.533 310.518 511.8V530H302.618V492.9L310.518 492.1V506.3C311.618 505.067 312.784 504.15 314.018 503.55C315.251 502.917 316.634 502.6 318.168 502.6ZM354.625 516.2C354.625 517.3 354.575 518.25 354.475 519.05H338.025C338.292 521.283 338.925 522.85 339.925 523.75C340.925 524.65 342.308 525.1 344.075 525.1C345.142 525.1 346.175 524.917 347.175 524.55C348.175 524.15 349.258 523.55 350.425 522.75L353.675 527.15C350.575 529.617 347.125 530.85 343.325 530.85C339.025 530.85 335.725 529.583 333.425 527.05C331.125 524.517 329.975 521.117 329.975 516.85C329.975 514.15 330.458 511.733 331.425 509.6C332.392 507.433 333.808 505.733 335.675 504.5C337.542 503.233 339.775 502.6 342.375 502.6C346.208 502.6 349.208 503.8 351.375 506.2C353.542 508.6 354.625 511.933 354.625 516.2ZM346.875 513.95C346.808 509.883 345.375 507.85 342.575 507.85C341.208 507.85 340.142 508.35 339.375 509.35C338.642 510.35 338.192 512 338.025 514.3H346.875V513.95ZM373.463 502.7C374.43 502.7 375.313 502.817 376.113 503.05L374.863 510.7C373.863 510.467 373.063 510.35 372.463 510.35C370.896 510.35 369.696 510.9 368.863 512C368.063 513.067 367.43 514.683 366.963 516.85V530H359.063V503.45H365.963L366.613 508.6C367.213 506.767 368.113 505.333 369.313 504.3C370.546 503.233 371.93 502.7 373.463 502.7ZM398.473 522.3C398.473 523.3 398.607 524.033 398.873 524.5C399.173 524.967 399.64 525.317 400.273 525.55L398.623 530.7C396.99 530.567 395.657 530.217 394.623 529.65C393.59 529.05 392.79 528.117 392.223 526.85C390.49 529.517 387.823 530.85 384.223 530.85C381.59 530.85 379.49 530.083 377.923 528.55C376.357 527.017 375.573 525.017 375.573 522.55C375.573 519.65 376.64 517.433 378.773 515.9C380.907 514.367 383.99 513.6 388.023 513.6H390.723V512.45C390.723 510.883 390.39 509.817 389.723 509.25C389.057 508.65 387.89 508.35 386.223 508.35C385.357 508.35 384.307 508.483 383.073 508.75C381.84 508.983 380.573 509.317 379.273 509.75L377.473 504.55C379.14 503.917 380.84 503.433 382.573 503.1C384.34 502.767 385.973 502.6 387.473 502.6C391.273 502.6 394.057 503.383 395.823 504.95C397.59 506.517 398.473 508.867 398.473 512V522.3ZM386.523 525.2C388.323 525.2 389.723 524.35 390.723 522.65V517.95H388.773C386.973 517.95 385.623 518.267 384.723 518.9C383.857 519.533 383.423 520.517 383.423 521.85C383.423 522.917 383.69 523.75 384.223 524.35C384.79 524.917 385.557 525.2 386.523 525.2ZM419.816 502.6C422.983 502.6 425.416 503.85 427.116 506.35C428.816 508.817 429.666 512.283 429.666 516.75C429.666 519.483 429.233 521.917 428.366 524.05C427.533 526.183 426.316 527.85 424.716 529.05C423.149 530.25 421.283 530.85 419.116 530.85C417.683 530.85 416.366 530.55 415.166 529.95C413.999 529.35 412.999 528.517 412.166 527.45L411.766 530H404.766V492.9L412.666 492.05V506.15C413.466 505.05 414.483 504.183 415.716 503.55C416.983 502.917 418.349 502.6 419.816 502.6ZM416.816 525.1C419.916 525.1 421.466 522.317 421.466 516.75C421.466 513.583 421.099 511.4 420.366 510.2C419.633 509 418.566 508.4 417.166 508.4C415.399 508.4 413.899 509.433 412.666 511.5V522.55C413.166 523.35 413.766 523.983 414.466 524.45C415.199 524.883 415.983 525.1 416.816 525.1ZM442.5 503.45V530H434.6V503.45H442.5ZM438.5 489.45C439.867 489.45 440.983 489.883 441.85 490.75C442.75 491.583 443.2 492.65 443.2 493.95C443.2 495.25 442.75 496.333 441.85 497.2C440.983 498.033 439.867 498.45 438.5 498.45C437.133 498.45 436.017 498.033 435.15 497.2C434.283 496.333 433.85 495.25 433.85 493.95C433.85 492.65 434.283 491.583 435.15 490.75C436.017 489.883 437.133 489.45 438.5 489.45ZM463.111 502.7C464.078 502.7 464.961 502.817 465.761 503.05L464.511 510.7C463.511 510.467 462.711 510.35 462.111 510.35C460.545 510.35 459.345 510.9 458.511 512C457.711 513.067 457.078 514.683 456.611 516.85V530H448.711V503.45H455.611L456.261 508.6C456.861 506.767 457.761 505.333 458.961 504.3C460.195 503.233 461.578 502.7 463.111 502.7ZM485.268 496.2V530H477.518V503.9L470.268 508.35L466.818 503.1L478.218 496.2H485.268ZM512.061 501.85H499.811V508.95C501.378 508.217 503.045 507.85 504.811 507.85C506.678 507.85 508.345 508.283 509.811 509.15C511.278 510.017 512.428 511.283 513.261 512.95C514.095 514.617 514.511 516.583 514.511 518.85C514.511 521.217 513.961 523.317 512.861 525.15C511.795 526.95 510.245 528.35 508.211 529.35C506.211 530.35 503.895 530.85 501.261 530.85C496.695 530.85 492.945 529.15 490.011 525.75L494.411 521.65C496.245 523.817 498.428 524.9 500.961 524.9C502.695 524.9 504.028 524.383 504.961 523.35C505.928 522.317 506.411 520.833 506.411 518.9C506.411 515.133 504.828 513.25 501.661 513.25C500.995 513.25 500.345 513.35 499.711 513.55C499.078 513.717 498.378 514.017 497.611 514.45H492.261V496.2H512.961L512.061 501.85ZM529.286 495.5C533.352 495.5 536.469 496.7 538.636 499.1C540.802 501.467 541.886 504.633 541.886 508.6C541.886 513.167 541.136 516.95 539.636 519.95C538.169 522.95 535.902 525.367 532.836 527.2C529.769 529 525.769 530.4 520.836 531.4L519.236 525.9C523.602 524.833 526.886 523.5 529.086 521.9C531.286 520.267 532.719 517.983 533.386 515.05C531.619 517.217 529.286 518.3 526.386 518.3C524.619 518.3 523.002 517.85 521.536 516.95C520.069 516.05 518.902 514.75 518.036 513.05C517.169 511.35 516.736 509.383 516.736 507.15C516.736 504.85 517.286 502.817 518.386 501.05C519.486 499.283 520.986 497.917 522.886 496.95C524.819 495.983 526.952 495.5 529.286 495.5ZM528.836 512.75C529.802 512.75 530.702 512.5 531.536 512C532.402 511.467 533.169 510.717 533.836 509.75C533.869 506.617 533.536 504.4 532.836 503.1C532.136 501.8 530.952 501.15 529.286 501.15C527.852 501.15 526.719 501.65 525.886 502.65C525.086 503.617 524.686 505.033 524.686 506.9C524.686 508.967 525.052 510.467 525.786 511.4C526.552 512.3 527.569 512.75 528.836 512.75ZM569.764 504.85C571.164 504.85 572.614 505.05 574.114 505.45C575.647 505.817 577.081 506.367 578.414 507.1V519.45C578.414 521.483 578.581 522.9 578.914 523.7C579.281 524.5 579.897 524.9 580.764 524.9C582.064 524.9 583.081 524.1 583.814 522.5C584.547 520.867 584.914 518.133 584.914 514.3C584.914 509.833 583.647 506.383 581.114 503.95C578.581 501.483 574.781 500.25 569.714 500.25C566.214 500.25 563.197 501 560.664 502.5C558.164 503.967 556.247 506.033 554.914 508.7C553.614 511.333 552.964 514.4 552.964 517.9C552.964 523.3 554.397 527.533 557.264 530.6C560.164 533.7 564.331 535.25 569.764 535.25C571.431 535.25 573.147 535.083 574.914 534.75C576.681 534.45 578.247 534.05 579.614 533.55L581.464 539C579.831 539.633 577.964 540.133 575.864 540.5C573.797 540.9 571.747 541.1 569.714 541.1C564.914 541.1 560.714 540.15 557.114 538.25C553.514 536.35 550.731 533.65 548.764 530.15C546.797 526.65 545.814 522.567 545.814 517.9C545.814 513.433 546.831 509.417 548.864 505.85C550.931 502.283 553.781 499.5 557.414 497.5C561.047 495.5 565.164 494.5 569.764 494.5C574.331 494.5 578.297 495.417 581.664 497.25C585.031 499.05 587.597 501.45 589.364 504.45C591.131 507.45 592.014 510.7 592.014 514.2C592.014 517.2 591.564 519.883 590.664 522.25C589.764 524.617 588.481 526.467 586.814 527.8C585.181 529.133 583.281 529.8 581.114 529.8C579.247 529.8 577.731 529.3 576.564 528.3C575.431 527.3 574.714 526.1 574.414 524.7C573.781 526.2 572.864 527.4 571.664 528.3C570.464 529.167 568.997 529.6 567.264 529.6C564.231 529.6 561.947 528.583 560.414 526.55C558.881 524.483 558.114 521.75 558.114 518.35C558.114 514.217 559.131 510.933 561.164 508.5C563.231 506.067 566.097 504.85 569.764 504.85ZM568.314 524.65C569.114 524.65 569.797 524.417 570.364 523.95C570.931 523.483 571.381 522.9 571.714 522.2V510.3C570.947 510 570.214 509.85 569.514 509.85C568.147 509.85 567.097 510.517 566.364 511.85C565.631 513.15 565.264 515.333 565.264 518.4C565.264 520.667 565.497 522.283 565.964 523.25C566.464 524.183 567.247 524.65 568.314 524.65ZM621.941 505C620.207 505.7 617.657 506.05 614.291 506.05C616.024 506.783 617.291 507.683 618.091 508.75C618.891 509.817 619.291 511.2 619.291 512.9C619.291 514.6 618.841 516.133 617.941 517.5C617.041 518.833 615.741 519.883 614.041 520.65C612.374 521.417 610.407 521.8 608.141 521.8C607.074 521.8 606.057 521.7 605.091 521.5C604.824 521.633 604.607 521.85 604.441 522.15C604.307 522.417 604.241 522.7 604.241 523C604.241 523.5 604.424 523.9 604.791 524.2C605.191 524.467 605.974 524.6 607.141 524.6H611.141C613.174 524.6 614.957 524.933 616.491 525.6C618.024 526.267 619.207 527.183 620.041 528.35C620.874 529.517 621.291 530.833 621.291 532.3C621.291 535.067 620.091 537.217 617.691 538.75C615.324 540.317 611.891 541.1 607.391 541.1C604.157 541.1 601.607 540.75 599.741 540.05C597.874 539.383 596.557 538.433 595.791 537.2C595.057 535.967 594.691 534.417 594.691 532.55H601.791C601.791 533.35 601.941 533.983 602.241 534.45C602.574 534.917 603.157 535.267 603.991 535.5C604.824 535.733 606.024 535.85 607.591 535.85C609.757 535.85 611.257 535.583 612.091 535.05C612.924 534.55 613.341 533.817 613.341 532.85C613.341 532.05 613.024 531.417 612.391 530.95C611.757 530.483 610.807 530.25 609.541 530.25H605.691C602.957 530.25 600.907 529.767 599.541 528.8C598.207 527.8 597.541 526.533 597.541 525C597.541 524.033 597.824 523.1 598.391 522.2C598.957 521.267 599.724 520.5 600.691 519.9C599.024 519 597.807 517.95 597.041 516.75C596.307 515.517 595.941 514.033 595.941 512.3C595.941 509.333 597.007 506.983 599.141 505.25C601.274 503.483 604.091 502.6 607.591 502.6C610.257 502.667 612.507 502.4 614.341 501.8C616.207 501.2 618.124 500.317 620.091 499.15L621.941 505ZM607.791 507.8C606.557 507.8 605.574 508.2 604.841 509C604.141 509.767 603.791 510.833 603.791 512.2C603.791 513.633 604.141 514.75 604.841 515.55C605.574 516.317 606.557 516.7 607.791 516.7C609.091 516.7 610.074 516.317 610.741 515.55C611.441 514.783 611.791 513.633 611.791 512.1C611.791 509.233 610.457 507.8 607.791 507.8ZM654.38 502.6C656.48 502.6 658.163 503.317 659.43 504.75C660.696 506.15 661.33 508.1 661.33 510.6V530H653.43V511.95C653.43 509.583 652.68 508.4 651.18 508.4C650.346 508.4 649.613 508.683 648.98 509.25C648.346 509.817 647.73 510.683 647.13 511.85V530H639.23V511.95C639.23 509.583 638.48 508.4 636.98 508.4C636.18 508.4 635.446 508.7 634.78 509.3C634.146 509.867 633.53 510.717 632.93 511.85V530H625.03V503.45H631.93L632.48 506.55C633.513 505.217 634.646 504.233 635.88 503.6C637.146 502.933 638.58 502.6 640.18 502.6C641.68 502.6 642.963 502.967 644.03 503.7C645.13 504.433 645.93 505.467 646.43 506.8C647.496 505.367 648.663 504.317 649.93 503.65C651.23 502.95 652.713 502.6 654.38 502.6ZM688.366 522.3C688.366 523.3 688.499 524.033 688.766 524.5C689.066 524.967 689.533 525.317 690.166 525.55L688.516 530.7C686.883 530.567 685.549 530.217 684.516 529.65C683.483 529.05 682.683 528.117 682.116 526.85C680.383 529.517 677.716 530.85 674.116 530.85C671.483 530.85 669.383 530.083 667.816 528.55C666.249 527.017 665.466 525.017 665.466 522.55C665.466 519.65 666.533 517.433 668.666 515.9C670.799 514.367 673.883 513.6 677.916 513.6H680.616V512.45C680.616 510.883 680.283 509.817 679.616 509.25C678.949 508.65 677.783 508.35 676.116 508.35C675.249 508.35 674.199 508.483 672.966 508.75C671.733 508.983 670.466 509.317 669.166 509.75L667.366 504.55C669.033 503.917 670.733 503.433 672.466 503.1C674.233 502.767 675.866 502.6 677.366 502.6C681.166 502.6 683.949 503.383 685.716 504.95C687.483 506.517 688.366 508.867 688.366 512V522.3ZM676.416 525.2C678.216 525.2 679.616 524.35 680.616 522.65V517.95H678.666C676.866 517.95 675.516 518.267 674.616 518.9C673.749 519.533 673.316 520.517 673.316 521.85C673.316 522.917 673.583 523.75 674.116 524.35C674.683 524.917 675.449 525.2 676.416 525.2ZM702.559 503.45V530H694.659V503.45H702.559ZM698.559 489.45C699.925 489.45 701.042 489.883 701.909 490.75C702.809 491.583 703.259 492.65 703.259 493.95C703.259 495.25 702.809 496.333 701.909 497.2C701.042 498.033 699.925 498.45 698.559 498.45C697.192 498.45 696.075 498.033 695.209 497.2C694.342 496.333 693.909 495.25 693.909 493.95C693.909 492.65 694.342 491.583 695.209 490.75C696.075 489.883 697.192 489.45 698.559 489.45ZM715.82 530.85C713.52 530.85 711.72 530.2 710.42 528.9C709.153 527.567 708.52 525.683 708.52 523.25V492.9L716.42 492.05V522.95C716.42 524.05 716.87 524.6 717.77 524.6C718.237 524.6 718.67 524.517 719.07 524.35L720.62 529.95C719.187 530.55 717.587 530.85 715.82 530.85ZM726.904 521.8C728.138 521.8 729.188 522.25 730.054 523.15C730.954 524.017 731.404 525.067 731.404 526.3C731.404 527.567 730.954 528.65 730.054 529.55C729.188 530.417 728.138 530.85 726.904 530.85C725.638 530.85 724.554 530.417 723.654 529.55C722.788 528.65 722.354 527.567 722.354 526.3C722.354 525.067 722.788 524.017 723.654 523.15C724.554 522.25 725.638 521.8 726.904 521.8ZM747.028 502.6C748.861 502.6 750.511 502.867 751.978 503.4C753.444 503.933 754.828 504.75 756.128 505.85L752.728 510.55C751.061 509.283 749.378 508.65 747.678 508.65C745.911 508.65 744.578 509.3 743.678 510.6C742.778 511.9 742.328 514 742.328 516.9C742.328 519.7 742.778 521.683 743.678 522.85C744.578 524.017 745.878 524.6 747.578 524.6C748.478 524.6 749.294 524.467 750.028 524.2C750.761 523.9 751.644 523.433 752.678 522.8L756.128 527.7C753.494 529.8 750.511 530.85 747.178 530.85C744.478 530.85 742.144 530.283 740.178 529.15C738.211 527.983 736.694 526.367 735.628 524.3C734.561 522.2 734.028 519.75 734.028 516.95C734.028 514.15 734.561 511.667 735.628 509.5C736.694 507.333 738.211 505.65 740.178 504.45C742.144 503.217 744.428 502.6 747.028 502.6ZM769.977 502.6C774.044 502.6 777.227 503.85 779.527 506.35C781.827 508.817 782.977 512.283 782.977 516.75C782.977 519.583 782.444 522.067 781.377 524.2C780.344 526.3 778.844 527.933 776.877 529.1C774.944 530.267 772.644 530.85 769.977 530.85C765.944 530.85 762.76 529.617 760.427 527.15C758.127 524.65 756.977 521.167 756.977 516.7C756.977 513.867 757.494 511.4 758.527 509.3C759.594 507.167 761.094 505.517 763.027 504.35C764.994 503.183 767.31 502.6 769.977 502.6ZM769.977 508.4C768.377 508.4 767.177 509.083 766.377 510.45C765.577 511.783 765.177 513.867 765.177 516.7C765.177 519.6 765.56 521.717 766.327 523.05C767.127 524.383 768.344 525.05 769.977 525.05C771.577 525.05 772.777 524.383 773.577 523.05C774.377 521.683 774.777 519.583 774.777 516.75C774.777 513.85 774.377 511.733 773.577 510.4C772.81 509.067 771.61 508.4 769.977 508.4ZM817.026 502.6C819.126 502.6 820.81 503.317 822.076 504.75C823.343 506.15 823.976 508.1 823.976 510.6V530H816.076V511.95C816.076 509.583 815.326 508.4 813.826 508.4C812.993 508.4 812.26 508.683 811.626 509.25C810.993 509.817 810.376 510.683 809.776 511.85V530H801.876V511.95C801.876 509.583 801.126 508.4 799.626 508.4C798.826 508.4 798.093 508.7 797.426 509.3C796.793 509.867 796.176 510.717 795.576 511.85V530H787.676V503.45H794.576L795.126 506.55C796.16 505.217 797.293 504.233 798.526 503.6C799.793 502.933 801.226 502.6 802.826 502.6C804.326 502.6 805.61 502.967 806.676 503.7C807.776 504.433 808.576 505.467 809.076 506.8C810.143 505.367 811.31 504.317 812.576 503.65C813.876 502.95 815.36 502.6 817.026 502.6ZM204.15 590.85C201.85 590.85 200.05 590.2 198.75 588.9C197.483 587.567 196.85 585.683 196.85 583.25V552.9L204.75 552.05V582.95C204.75 584.05 205.2 584.6 206.1 584.6C206.567 584.6 207 584.517 207.4 584.35L208.95 589.95C207.517 590.55 205.917 590.85 204.15 590.85ZM223.2 562.6C227.266 562.6 230.45 563.85 232.75 566.35C235.05 568.817 236.2 572.283 236.2 576.75C236.2 579.583 235.666 582.067 234.6 584.2C233.566 586.3 232.066 587.933 230.1 589.1C228.166 590.267 225.866 590.85 223.2 590.85C219.166 590.85 215.983 589.617 213.65 587.15C211.35 584.65 210.2 581.167 210.2 576.7C210.2 573.867 210.716 571.4 211.75 569.3C212.816 567.167 214.316 565.517 216.25 564.35C218.216 563.183 220.533 562.6 223.2 562.6ZM223.2 568.4C221.6 568.4 220.4 569.083 219.6 570.45C218.8 571.783 218.4 573.867 218.4 576.7C218.4 579.6 218.783 581.717 219.55 583.05C220.35 584.383 221.566 585.05 223.2 585.05C224.8 585.05 226 584.383 226.8 583.05C227.6 581.683 228 579.583 228 576.75C228 573.85 227.6 571.733 226.8 570.4C226.033 569.067 224.833 568.4 223.2 568.4ZM255.949 562.6C259.115 562.6 261.549 563.85 263.249 566.35C264.949 568.817 265.799 572.283 265.799 576.75C265.799 579.483 265.365 581.917 264.499 584.05C263.665 586.183 262.449 587.85 260.849 589.05C259.282 590.25 257.415 590.85 255.249 590.85C253.815 590.85 252.499 590.55 251.299 589.95C250.132 589.35 249.132 588.517 248.299 587.45L247.899 590H240.899V552.9L248.799 552.05V566.15C249.599 565.05 250.615 564.183 251.849 563.55C253.115 562.917 254.482 562.6 255.949 562.6ZM252.949 585.1C256.049 585.1 257.599 582.317 257.599 576.75C257.599 573.583 257.232 571.4 256.499 570.2C255.765 569 254.699 568.4 253.299 568.4C251.532 568.4 250.032 569.433 248.799 571.5V582.55C249.299 583.35 249.899 583.983 250.599 584.45C251.332 584.883 252.115 585.1 252.949 585.1ZM294.533 552.9V590H287.533L287.133 586.9C285.266 589.533 282.749 590.85 279.583 590.85C276.283 590.85 273.766 589.583 272.033 587.05C270.333 584.517 269.483 581.05 269.483 576.65C269.483 573.95 269.933 571.533 270.833 569.4C271.733 567.267 272.999 565.6 274.633 564.4C276.299 563.2 278.199 562.6 280.333 562.6C282.866 562.6 284.966 563.433 286.633 565.1V552.05L294.533 552.9ZM282.033 585.05C283.866 585.05 285.399 584.05 286.633 582.05V570.6C285.999 569.833 285.349 569.267 284.683 568.9C284.049 568.533 283.316 568.35 282.483 568.35C281.016 568.35 279.849 569.033 278.983 570.4C278.116 571.767 277.683 573.867 277.683 576.7C277.683 579.8 278.049 581.967 278.783 583.2C279.549 584.433 280.633 585.05 282.033 585.05ZM316.263 562.6C318.563 562.6 320.363 563.3 321.663 564.7C322.963 566.1 323.613 568.067 323.613 570.6V590H315.713V571.95C315.713 570.617 315.497 569.7 315.063 569.2C314.63 568.667 314.013 568.4 313.213 568.4C311.613 568.4 310.08 569.533 308.613 571.8V590H300.713V552.9L308.613 552.1V566.3C309.713 565.067 310.88 564.15 312.113 563.55C313.347 562.917 314.73 562.6 316.263 562.6ZM337.471 563.45V590H329.571V563.45H337.471ZM333.471 549.45C334.837 549.45 335.954 549.883 336.821 550.75C337.721 551.583 338.171 552.65 338.171 553.95C338.171 555.25 337.721 556.333 336.821 557.2C335.954 558.033 334.837 558.45 333.471 558.45C332.104 558.45 330.987 558.033 330.121 557.2C329.254 556.333 328.821 555.25 328.821 553.95C328.821 552.65 329.254 551.583 330.121 550.75C330.987 549.883 332.104 549.45 333.471 549.45ZM358.682 562.6C362.015 562.6 364.499 563.833 366.132 566.3C367.765 568.767 368.582 572.217 368.582 576.65C368.582 579.383 368.149 581.833 367.282 584C366.449 586.133 365.232 587.817 363.632 589.05C362.032 590.25 360.165 590.85 358.032 590.85C355.365 590.85 353.215 589.933 351.582 588.1V600.25L343.682 601.1V563.45H350.632L351.032 566.4C352.065 565.1 353.249 564.15 354.582 563.55C355.915 562.917 357.282 562.6 358.682 562.6ZM355.632 585.05C358.799 585.05 360.382 582.283 360.382 576.75C360.382 573.617 360.032 571.45 359.332 570.25C358.632 569.017 357.582 568.4 356.182 568.4C355.282 568.4 354.432 568.667 353.632 569.2C352.865 569.733 352.182 570.5 351.582 571.5V582.7C352.649 584.267 353.999 585.05 355.632 585.05ZM389.066 562.6C391.366 562.6 393.166 563.3 394.466 564.7C395.766 566.1 396.416 568.067 396.416 570.6V590H388.516V571.95C388.516 570.617 388.299 569.7 387.866 569.2C387.433 568.667 386.816 568.4 386.016 568.4C384.416 568.4 382.883 569.533 381.416 571.8V590H373.516V552.9L381.416 552.1V566.3C382.516 565.067 383.683 564.15 384.916 563.55C386.149 562.917 387.533 562.6 389.066 562.6ZM416.73 590.05C415.664 593.483 413.914 596.117 411.48 597.95C409.08 599.817 405.847 600.867 401.78 601.1L400.93 595.55C403.464 595.217 405.33 594.65 406.53 593.85C407.764 593.05 408.747 591.767 409.48 590H406.78L398.68 563.45H407.08L411.83 584.95L417.03 563.45H425.18L416.73 590.05ZM436.87 562.6C438.77 562.6 440.553 562.883 442.22 563.45C443.887 564.017 445.353 564.817 446.62 565.85L443.72 570.3C441.553 568.933 439.37 568.25 437.17 568.25C436.137 568.25 435.337 568.433 434.77 568.8C434.237 569.133 433.97 569.617 433.97 570.25C433.97 570.75 434.087 571.167 434.32 571.5C434.587 571.8 435.103 572.117 435.87 572.45C436.637 572.783 437.82 573.183 439.42 573.65C442.187 574.45 444.237 575.5 445.57 576.8C446.937 578.067 447.62 579.833 447.62 582.1C447.62 583.9 447.103 585.467 446.07 586.8C445.037 588.1 443.62 589.1 441.82 589.8C440.02 590.5 438.02 590.85 435.82 590.85C433.587 590.85 431.503 590.5 429.57 589.8C427.67 589.1 426.053 588.133 424.72 586.9L428.57 582.6C430.803 584.333 433.153 585.2 435.62 585.2C436.82 585.2 437.753 584.983 438.42 584.55C439.12 584.117 439.47 583.5 439.47 582.7C439.47 582.067 439.337 581.567 439.07 581.2C438.803 580.833 438.287 580.5 437.52 580.2C436.753 579.867 435.537 579.467 433.87 579C431.237 578.233 429.27 577.167 427.97 575.8C426.67 574.433 426.02 572.733 426.02 570.7C426.02 569.167 426.453 567.8 427.32 566.6C428.22 565.367 429.487 564.4 431.12 563.7C432.787 562.967 434.703 562.6 436.87 562.6ZM459.59 563.45V590H451.69V563.45H459.59ZM455.59 549.45C456.957 549.45 458.073 549.883 458.94 550.75C459.84 551.583 460.29 552.65 460.29 553.95C460.29 555.25 459.84 556.333 458.94 557.2C458.073 558.033 456.957 558.45 455.59 558.45C454.223 558.45 453.107 558.033 452.24 557.2C451.373 556.333 450.94 555.25 450.94 553.95C450.94 552.65 451.373 551.583 452.24 550.75C453.107 549.883 454.223 549.45 455.59 549.45ZM477.301 562.6C479.135 562.6 480.785 562.867 482.251 563.4C483.718 563.933 485.101 564.75 486.401 565.85L483.001 570.55C481.335 569.283 479.651 568.65 477.951 568.65C476.185 568.65 474.851 569.3 473.951 570.6C473.051 571.9 472.601 574 472.601 576.9C472.601 579.7 473.051 581.683 473.951 582.85C474.851 584.017 476.151 584.6 477.851 584.6C478.751 584.6 479.568 584.467 480.301 584.2C481.035 583.9 481.918 583.433 482.951 582.8L486.401 587.7C483.768 589.8 480.785 590.85 477.451 590.85C474.751 590.85 472.418 590.283 470.451 589.15C468.485 587.983 466.968 586.367 465.901 584.3C464.835 582.2 464.301 579.75 464.301 576.95C464.301 574.15 464.835 571.667 465.901 569.5C466.968 567.333 468.485 565.65 470.451 564.45C472.418 563.217 474.701 562.6 477.301 562.6ZM499.077 562.6C500.977 562.6 502.76 562.883 504.427 563.45C506.094 564.017 507.56 564.817 508.827 565.85L505.927 570.3C503.76 568.933 501.577 568.25 499.377 568.25C498.344 568.25 497.544 568.433 496.977 568.8C496.444 569.133 496.177 569.617 496.177 570.25C496.177 570.75 496.294 571.167 496.527 571.5C496.794 571.8 497.31 572.117 498.077 572.45C498.844 572.783 500.027 573.183 501.627 573.65C504.394 574.45 506.444 575.5 507.777 576.8C509.144 578.067 509.827 579.833 509.827 582.1C509.827 583.9 509.31 585.467 508.277 586.8C507.244 588.1 505.827 589.1 504.027 589.8C502.227 590.5 500.227 590.85 498.027 590.85C495.794 590.85 493.71 590.5 491.777 589.8C489.877 589.1 488.26 588.133 486.927 586.9L490.777 582.6C493.01 584.333 495.36 585.2 497.827 585.2C499.027 585.2 499.96 584.983 500.627 584.55C501.327 584.117 501.677 583.5 501.677 582.7C501.677 582.067 501.544 581.567 501.277 581.2C501.01 580.833 500.494 580.5 499.727 580.2C498.96 579.867 497.744 579.467 496.077 579C493.444 578.233 491.477 577.167 490.177 575.8C488.877 574.433 488.227 572.733 488.227 570.7C488.227 569.167 488.66 567.8 489.527 566.6C490.427 565.367 491.694 564.4 493.327 563.7C494.994 562.967 496.91 562.6 499.077 562.6ZM516.797 581.8C518.03 581.8 519.08 582.25 519.947 583.15C520.847 584.017 521.297 585.067 521.297 586.3C521.297 587.567 520.847 588.65 519.947 589.55C519.08 590.417 518.03 590.85 516.797 590.85C515.53 590.85 514.447 590.417 513.547 589.55C512.68 588.65 512.247 587.567 512.247 586.3C512.247 585.067 512.68 584.017 513.547 583.15C514.447 582.25 515.53 581.8 516.797 581.8ZM536.92 562.6C538.754 562.6 540.404 562.867 541.87 563.4C543.337 563.933 544.72 564.75 546.02 565.85L542.62 570.55C540.954 569.283 539.27 568.65 537.57 568.65C535.804 568.65 534.47 569.3 533.57 570.6C532.67 571.9 532.22 574 532.22 576.9C532.22 579.7 532.67 581.683 533.57 582.85C534.47 584.017 535.77 584.6 537.47 584.6C538.37 584.6 539.187 584.467 539.92 584.2C540.654 583.9 541.537 583.433 542.57 582.8L546.02 587.7C543.387 589.8 540.404 590.85 537.07 590.85C534.37 590.85 532.037 590.283 530.07 589.15C528.104 587.983 526.587 586.367 525.52 584.3C524.454 582.2 523.92 579.75 523.92 576.95C523.92 574.15 524.454 571.667 525.52 569.5C526.587 567.333 528.104 565.65 530.07 564.45C532.037 563.217 534.32 562.6 536.92 562.6ZM559.87 562.6C563.936 562.6 567.12 563.85 569.42 566.35C571.72 568.817 572.87 572.283 572.87 576.75C572.87 579.583 572.336 582.067 571.27 584.2C570.236 586.3 568.736 587.933 566.77 589.1C564.836 590.267 562.536 590.85 559.87 590.85C555.836 590.85 552.653 589.617 550.32 587.15C548.02 584.65 546.87 581.167 546.87 576.7C546.87 573.867 547.386 571.4 548.42 569.3C549.486 567.167 550.986 565.517 552.92 564.35C554.886 563.183 557.203 562.6 559.87 562.6ZM559.87 568.4C558.27 568.4 557.07 569.083 556.27 570.45C555.47 571.783 555.07 573.867 555.07 576.7C555.07 579.6 555.453 581.717 556.22 583.05C557.02 584.383 558.236 585.05 559.87 585.05C561.47 585.05 562.67 584.383 563.47 583.05C564.27 581.683 564.67 579.583 564.67 576.75C564.67 573.85 564.27 571.733 563.47 570.4C562.703 569.067 561.503 568.4 559.87 568.4ZM606.919 562.6C609.019 562.6 610.702 563.317 611.969 564.75C613.235 566.15 613.869 568.1 613.869 570.6V590H605.969V571.95C605.969 569.583 605.219 568.4 603.719 568.4C602.885 568.4 602.152 568.683 601.519 569.25C600.885 569.817 600.269 570.683 599.669 571.85V590H591.769V571.95C591.769 569.583 591.019 568.4 589.519 568.4C588.719 568.4 587.985 568.7 587.319 569.3C586.685 569.867 586.069 570.717 585.469 571.85V590H577.569V563.45H584.469L585.019 566.55C586.052 565.217 587.185 564.233 588.419 563.6C589.685 562.933 591.119 562.6 592.719 562.6C594.219 562.6 595.502 562.967 596.569 563.7C597.669 564.433 598.469 565.467 598.969 566.8C600.035 565.367 601.202 564.317 602.469 563.65C603.769 562.95 605.252 562.6 606.919 562.6Z" fill="white"/>
<g clip-path="url(#clip2_139_243)">
<path d="M147.667 431C137.357 431 129 439.357 129 449.667C129 459.976 137.357 468.333 147.667 468.333C157.976 468.333 166.333 459.976 166.333 449.667C166.333 439.357 157.976 431 147.667 431ZM140.958 438.415C141.343 438.392 141.691 438.622 141.954 439.03L144.506 443.87C144.775 444.443 144.622 445.057 144.221 445.467L143.052 446.636C142.98 446.735 142.933 446.846 142.932 446.969C143.38 448.704 144.74 450.305 145.94 451.405C147.139 452.506 148.429 453.996 150.103 454.349C150.309 454.407 150.563 454.428 150.711 454.29L152.069 452.907C152.538 452.552 153.216 452.379 153.716 452.67H153.739L158.344 455.388C159.02 455.812 159.09 456.631 158.606 457.129L155.435 460.276C154.966 460.756 154.344 460.918 153.739 460.919C151.065 460.839 148.539 459.526 146.464 458.177C143.057 455.699 139.933 452.626 137.971 448.912C137.219 447.355 136.335 445.369 136.419 443.631C136.427 442.977 136.604 442.336 137.064 441.915L140.236 438.743C140.483 438.533 140.728 438.428 140.958 438.415Z" fill="#FFD532"/>
</g>
<path fill-rule="evenodd" clip-rule="evenodd" d="M134.611 505.931C133.193 505.931 131.833 506.494 130.83 507.497C129.827 508.5 129.264 509.86 129.264 511.278V513.708H130.722C131.567 513.708 132.393 513.953 133.102 514.412C133.81 514.872 134.371 515.526 134.716 516.297C135.061 517.068 135.175 517.923 135.045 518.757C134.915 519.592 134.546 520.371 133.983 521C134.546 521.63 134.915 522.409 135.045 523.243C135.175 524.078 135.061 524.932 134.716 525.703C134.371 526.474 133.81 527.128 133.102 527.588C132.393 528.047 131.567 528.292 130.722 528.292H129.264V530.722C129.264 532.141 129.827 533.501 130.83 534.503C131.833 535.506 133.193 536.07 134.611 536.07H159.889C161.307 536.07 162.667 535.506 163.67 534.503C164.673 533.501 165.236 532.141 165.236 530.722V511.278C165.236 509.86 164.673 508.5 163.67 507.497C162.667 506.494 161.307 505.931 159.889 505.931H134.611ZM139.309 513.953C138.987 513.744 138.595 513.67 138.219 513.747C137.843 513.825 137.513 514.047 137.3 514.367C137.087 514.686 137.008 515.077 137.082 515.454C137.155 515.831 137.374 516.164 137.691 516.38L146.441 522.213C146.68 522.373 146.962 522.458 147.25 522.458C147.538 522.458 147.819 522.373 148.059 522.213L156.809 516.38C157.126 516.164 157.345 515.831 157.418 515.454C157.491 515.077 157.413 514.686 157.2 514.367C156.987 514.047 156.656 513.825 156.28 513.747C155.904 513.67 155.513 513.744 155.191 513.953L147.25 519.248L139.309 513.953Z" fill="#FFD532"/>
<path fill-rule="evenodd" clip-rule="evenodd" d="M132.181 523.917C132.181 524.303 132.027 524.674 131.754 524.948C131.48 525.221 131.109 525.375 130.722 525.375H126.834C126.447 525.375 126.076 525.221 125.802 524.948C125.529 524.674 125.375 524.303 125.375 523.917C125.375 523.53 125.529 523.159 125.802 522.885C126.076 522.612 126.447 522.458 126.834 522.458H130.722C131.109 522.458 131.48 522.612 131.754 522.885C132.027 523.159 132.181 523.53 132.181 523.917ZM132.181 518.083C132.181 518.47 132.027 518.841 131.754 519.115C131.48 519.388 131.109 519.542 130.722 519.542H122.945C122.558 519.542 122.187 519.388 121.913 519.115C121.64 518.841 121.486 518.47 121.486 518.083C121.486 517.697 121.64 517.326 121.913 517.052C122.187 516.779 122.558 516.625 122.945 516.625H130.722C131.109 516.625 131.48 516.779 131.754 517.052C132.027 517.326 132.181 517.697 132.181 518.083Z" fill="#FFD532"/>
<path fill-rule="evenodd" clip-rule="evenodd" d="M142.067 570.895C143.822 570.084 145.733 569.665 147.667 569.666C150.01 569.666 152.311 570.283 154.34 571.455C156.368 572.627 158.052 574.313 159.222 576.343H157.992C156.908 576.343 156.03 576.76 156.03 577.843C156.03 578.393 156.03 581.243 152.653 581.19C149.367 581.19 149.367 578.303 149.367 577.843C149.367 575.461 148.055 575.093 146.447 574.638C145.823 574.463 145.157 574.275 144.503 573.953C142.83 573.125 142.257 571.981 142.067 570.895ZM137.667 569.666C135.73 571.124 134.132 572.983 132.98 575.116C131.677 577.539 130.997 580.248 131 583C131 591.815 137.843 599.031 146.507 599.626L146.597 599.633C147.238 599.674 147.88 599.678 148.522 599.645H148.525C149.365 599.602 150.201 599.497 151.025 599.328C152.326 599.061 153.59 598.639 154.79 598.071C158.556 596.285 161.52 593.157 163.102 589.3C163.921 587.301 164.339 585.16 164.333 583C164.335 581.594 164.158 580.194 163.808 578.833C162.884 575.255 160.797 572.085 157.875 569.822C154.953 567.559 151.362 566.332 147.667 566.333C144.06 566.328 140.549 567.498 137.667 569.666ZM159.953 588.188C159.548 588.065 159.127 588.002 158.703 588.001H158.342C156.837 588.001 155.394 588.599 154.329 589.663C153.265 590.727 152.667 592.17 152.667 593.675V595.365C155.95 594.031 158.571 591.451 159.953 588.188ZM147.857 596.333H147.667C145.318 596.333 143.011 595.713 140.979 594.535C138.947 593.357 137.262 591.663 136.095 589.625C134.927 587.587 134.319 585.277 134.332 582.928C134.345 580.579 134.978 578.275 136.167 576.25C137.75 577.151 138.535 578.811 139.225 580.275C139.573 581.01 139.897 581.696 140.287 582.211C141.187 583.398 142.058 583.91 142.938 584.425C143.805 584.933 144.683 585.446 145.605 586.618C148.005 589.66 147.97 593.895 147.855 596.331L147.857 596.333Z" fill="#FFD532"/>
<rect x="974" y="244.642" width="415.272" height="415.272" transform="rotate(-45 974 244.642)" fill="#FFD532"/>
<rect x="800.266" y="652.196" width="371.148" height="371.148" transform="rotate(-45 800.266 652.196)" fill="#FFD532"/>
<path d="M837 359.806L934.806 262L1032.61 359.806L934.806 457.612L837 359.806Z" fill="white"/>
<rect x="941" y="31.8057" width="138.318" height="138.318" transform="rotate(-45 941 31.8057)" fill="white"/>
</g>
<defs>
<clipPath id="clip0_139_243">
<rect width="1270" height="726" fill="white"/>
</clipPath>
<clipPath id="clip1_139_243">
<rect width="188" height="68" fill="white" transform="translate(145 107)"/>
</clipPath>
<clipPath id="clip2_139_243">
<rect width="37.3333" height="37.3333" fill="white" transform="translate(129 431)"/>
</clipPath>
</defs>
</svg>
