<svg width="1270" height="726" viewBox="0 0 1270 726" fill="none" xmlns="http://www.w3.org/2000/svg">
<g clip-path="url(#clip0_139_222)">
<rect width="1270" height="726" fill="black"/>
<g clip-path="url(#clip1_139_222)">
<path d="M351.46 341.643C353.967 341.63 356.453 342.104 358.774 343.039C361.096 343.974 363.208 345.352 364.99 347.093C366.772 348.834 368.189 350.904 369.161 353.186C370.132 355.467 370.638 357.916 370.651 360.39C370.68 365.45 368.672 370.313 365.069 373.911C361.465 377.509 356.562 379.546 351.436 379.575C346.311 379.604 341.384 377.622 337.739 374.065C334.094 370.509 332.029 365.668 332 360.609C331.85 350.048 340.507 341.612 351.46 341.643Z" fill="white"/>
<path d="M435.877 341.644C438.39 341.6 440.887 342.051 443.222 342.971C445.556 343.89 447.682 345.26 449.475 346.999C451.267 348.739 452.691 350.813 453.662 353.102C454.633 355.39 455.132 357.847 455.131 360.328C455.202 364.109 454.13 367.824 452.053 371.001C449.976 374.178 446.987 376.673 443.468 378.167C439.949 379.661 436.059 380.087 432.294 379.39C428.529 378.693 425.059 376.905 422.328 374.254C419.596 371.603 417.726 368.209 416.956 364.505C416.186 360.801 416.551 356.955 418.005 353.457C419.458 349.958 421.934 346.966 425.117 344.862C428.3 342.759 432.046 341.638 435.877 341.644Z" fill="white"/>
<path d="M436.073 298.275C425.84 298.384 416.748 289.683 416.566 279.528C416.376 269.162 425.223 260.14 435.709 260C446.195 259.859 455.185 268.748 455.161 279.153C455.145 289.362 446.361 298.15 436.073 298.275Z" fill="white"/>
<path d="M436.003 464.999C425.787 465.062 416.694 456.266 416.559 446.19C416.425 435.824 425.312 426.825 435.782 426.739C446.252 426.653 455.186 435.511 455.155 445.963C455.131 456.149 446.283 464.937 436.003 464.999Z" fill="white"/>
<path d="M501.131 360.493C501.131 349.479 509.187 341.597 520.385 341.644C531.195 341.699 539.236 349.76 539.236 360.54C539.278 363.015 538.82 365.474 537.89 367.774C536.96 370.073 535.575 372.166 533.817 373.932C532.059 375.698 529.962 377.101 527.65 378.059C525.337 379.017 522.854 379.512 520.346 379.513C508.42 379.74 500.063 368.999 501.131 360.493Z" fill="white"/>
<path d="M500.453 317.311C500.453 328.138 492.539 336.012 481.61 336.129C470.681 336.246 462.317 328.052 462.309 317.225C462.299 314.719 462.795 312.236 463.768 309.92C464.741 307.605 466.171 305.504 467.975 303.74C469.779 301.976 471.921 300.585 474.275 299.646C476.63 298.708 479.15 298.242 481.69 298.275C492.334 298.345 500.477 306.61 500.453 317.311Z" fill="white"/>
<path d="M500.454 400.603C500.454 411.648 492.311 419.663 481.264 419.499C470.366 419.342 462.334 411.375 462.27 400.697C462.245 398.187 462.727 395.698 463.688 393.375C464.649 391.052 466.069 388.941 467.867 387.166C469.664 385.392 471.802 383.989 474.155 383.039C476.508 382.09 479.03 381.613 481.572 381.637C492.264 381.684 500.454 389.925 500.454 400.603Z" fill="white"/>
<path d="M390.04 298.275C395.099 298.273 399.954 300.24 403.552 303.751C407.149 307.261 409.199 312.03 409.255 317.023C409.331 319.539 408.887 322.045 407.951 324.388C407.015 326.73 405.607 328.86 403.811 330.649C402.016 332.437 399.87 333.847 397.506 334.791C395.141 335.736 392.607 336.197 390.056 336.145C387.512 336.174 384.988 335.7 382.633 334.752C380.277 333.803 378.138 332.398 376.341 330.62C374.545 328.842 373.127 326.728 372.171 324.4C371.216 322.073 370.742 319.58 370.778 317.069C370.778 306.868 379.642 298.275 390.04 298.275Z" fill="white"/>
<path d="M390.065 381.637C395.13 381.645 399.987 383.626 403.581 387.15C407.174 390.674 409.214 395.455 409.255 400.455C409.324 402.969 408.874 405.47 407.933 407.807C406.992 410.144 405.58 412.269 403.783 414.051C401.985 415.833 399.839 417.236 397.476 418.176C395.112 419.115 392.58 419.57 390.033 419.514C387.488 419.541 384.964 419.064 382.609 418.112C380.254 417.159 378.117 415.751 376.322 413.971C374.527 412.19 373.112 410.072 372.16 407.743C371.208 405.413 370.738 402.919 370.779 400.408C370.779 390.23 379.674 381.629 390.065 381.637Z" fill="white"/>
<path d="M667.773 319.554C660.17 318.96 652.533 318.929 644.926 319.46C634.408 320.327 627.824 326.982 627.666 337.426C627.571 344.222 627.666 351.025 627.666 357.821C627.666 364.898 627.539 371.983 627.666 379.06C627.895 389.215 633.902 395.229 644.142 396.198C652.021 396.917 659.952 396.901 667.828 396.151C677.831 395.229 684.162 388.566 684.241 378.732C684.336 364.718 684.336 350.7 684.241 336.676C684.162 326.763 677.831 320.202 667.773 319.554ZM661.932 379.279C658.047 379.224 654.161 379.208 650.275 379.279C646.39 379.349 644.459 377.545 644.522 373.623C644.601 368.241 644.522 362.852 644.522 357.47C644.522 352.088 644.562 346.706 644.522 341.324C644.482 337.793 646.358 336.02 649.737 335.856C653.9 335.699 658.078 335.707 662.249 335.856C665.414 335.973 667.322 337.699 667.322 340.98C667.322 352.036 667.322 363.086 667.322 374.131C667.337 377.685 665.486 379.326 661.932 379.279Z" fill="#FFD532"/>
<path d="M738.712 351.806C746.34 334.981 734.755 321.342 720.716 320.452C717.131 320.217 713.522 320.358 709.921 320.397C698.708 320.506 692.353 326.755 692.258 337.886C692.179 346.674 692.258 355.454 692.258 364.242V391.019C692.258 396.221 692.741 396.487 697.869 395.034C699.784 394.479 701.185 392.901 703.804 393.753C712.311 396.518 721.096 395.471 729.785 394.534C732.452 394.253 734.533 392.581 736.488 390.894C744.892 383.567 746.451 364.64 739.258 356.071C737.976 354.517 737.857 353.689 738.712 351.806ZM716.79 334.848C724.008 334.848 725.883 336.715 725.598 343.557C725.393 348.721 723.81 350.205 718.437 350.275C717.716 350.275 717.004 350.275 716.284 350.275C708.536 350.275 708.536 350.275 708.536 342.511C708.536 334.746 708.536 334.84 716.79 334.848ZM720.407 380.653C717.827 380.731 715.208 380.427 712.66 380.724C709.114 381.145 708.07 379.708 708.505 376.49C708.6 375.078 708.6 373.661 708.505 372.248C708.505 363.828 708.505 363.828 716.901 363.828C718.057 363.828 719.204 363.828 720.352 363.828C725.773 363.945 728.265 366.554 728.265 372.194C728.265 377.833 725.773 380.481 720.407 380.653Z" fill="#FFD532"/>
<path d="M788.228 321.053C782.182 319.186 776.001 319.624 769.837 319.624C758.575 319.624 751.817 326.216 751.77 337.215C751.77 346.135 751.77 355.056 751.77 363.976C751.77 373.608 751.77 383.231 751.77 392.878C751.77 394.87 752.007 396.003 754.508 395.956C762.849 395.807 771.206 396.19 779.523 395.792C795.153 395.05 805.86 385.387 806.644 370.999C807.302 361.53 807.196 352.025 806.327 342.573C805.243 332.153 798.413 324.201 788.228 321.053ZM790.492 366.702C790.262 375.045 785.419 379.669 776.927 379.794C768.436 379.919 768.341 379.919 768.341 371.444V357.454C768.341 351.205 768.444 345.01 768.293 338.8C768.238 336.387 769.022 335.738 771.459 335.676C786.875 335.238 790.507 338.668 790.507 353.993C790.507 358.227 790.602 362.469 790.492 366.702Z" fill="#FFD532"/>
<path d="M870.017 320.827C862.515 321.256 855.258 327.591 854.586 335.004C854.273 339.241 854.186 343.491 854.324 347.737C854.364 350.08 853.644 351.01 851.159 350.916C846.561 350.744 841.947 350.674 837.357 350.916C834.192 351.103 833.1 350.189 833.203 346.932C833.44 339.293 833.147 331.638 833.345 323.99C833.424 320.928 832.364 320.538 829.61 321.061C821.324 322.623 815.531 328.74 815.444 337.332C815.223 356.024 815.444 374.725 815.31 393.417C815.31 395.761 816.188 396.307 818.348 396.096C825.843 395.378 832.593 388.707 833.076 381.255C833.321 377.162 833.305 373.038 833.203 368.937C833.155 366.867 833.907 366.249 835.949 366.296C840.839 366.414 845.746 366.539 850.621 366.296C853.786 366.117 854.411 367.312 854.34 370.155C854.158 377.662 854.475 385.176 854.198 392.675C854.063 396.409 855.781 396.581 858.59 395.917C866.694 394.011 871.964 387.848 872.115 379.513C872.281 370.452 872.115 361.383 872.115 352.314C872.115 342.831 872.115 333.333 872.115 323.85C872.122 322.491 872.938 320.663 870.017 320.827Z" fill="#FFD532"/>
<path d="M616.025 377.693C608.262 377.857 600.491 377.584 592.735 377.826C589.34 377.935 588.406 376.951 588.446 373.6C588.628 357.196 588.446 340.792 588.62 324.342C588.668 320.772 587.52 320.436 584.473 321.139C576.71 322.834 571.226 328.818 571.091 336.621C570.917 345.815 571.051 355.017 571.051 364.218H570.996C570.996 373.592 571.036 382.903 570.996 392.245C570.996 394.198 571.146 395.37 573.687 395.307C583.603 395.159 593.527 395.393 603.443 395.175C611.301 394.995 617.608 388.926 618.938 381.114C619.381 378.529 618.874 377.63 616.025 377.693Z" fill="#FFD532"/>
<path d="M897.913 352.103C897.913 342.612 897.913 333.121 897.873 323.639C897.873 322.35 898.775 320.389 895.863 320.561C888.076 321.006 880.661 328.013 880.59 335.848C880.423 354.821 880.59 373.795 880.455 392.776C880.455 395.37 881.563 395.471 883.534 395.26C891.202 394.479 897.699 387.793 897.834 380.138C898 370.764 897.834 361.445 897.834 352.103H897.913Z" fill="#FFD532"/>
</g>
<rect width="96" height="429" transform="matrix(-1 0 0 1 1167 -246)" fill="#FFD532"/>
<rect width="96" height="429" transform="matrix(-1 0 0 1 210 584)" fill="#FFD532"/>
</g>
<defs>
<clipPath id="clip0_139_222">
<rect width="1270" height="726" fill="white"/>
</clipPath>
<clipPath id="clip1_139_222">
<rect width="566" height="205" fill="white" transform="translate(332 260)"/>
</clipPath>
</defs>
</svg>
