<svg width="1270" height="726" viewBox="0 0 1270 726" fill="none" xmlns="http://www.w3.org/2000/svg">
<g clip-path="url(#clip0_139_151)">
<rect width="1270" height="726" fill="black"/>
<g clip-path="url(#clip1_139_151)">
<path d="M151.463 124.082C152.296 124.077 153.122 124.235 153.893 124.545C154.664 124.855 155.366 125.312 155.958 125.889C156.549 126.467 157.02 127.153 157.343 127.91C157.665 128.667 157.834 129.479 157.838 130.3C157.847 131.978 157.181 133.592 155.984 134.785C154.787 135.978 153.158 136.654 151.456 136.664C149.753 136.673 148.116 136.016 146.906 134.836C145.695 133.656 145.009 132.051 145 130.373C144.95 126.87 147.825 124.071 151.463 124.082Z" fill="white"/>
<path d="M179.503 124.082C180.338 124.068 181.167 124.217 181.943 124.522C182.718 124.827 183.424 125.282 184.02 125.859C184.615 126.436 185.088 127.124 185.411 127.883C185.733 128.642 185.899 129.457 185.899 130.28C185.922 131.534 185.566 132.766 184.876 133.82C184.186 134.874 183.194 135.702 182.025 136.197C180.856 136.693 179.564 136.834 178.313 136.603C177.063 136.372 175.91 135.779 175.003 134.899C174.095 134.02 173.474 132.894 173.219 131.665C172.963 130.437 173.084 129.161 173.567 128.001C174.05 126.84 174.872 125.848 175.929 125.15C176.987 124.452 178.231 124.08 179.503 124.082Z" fill="white"/>
<path d="M179.568 109.696C176.17 109.733 173.149 106.846 173.089 103.478C173.026 100.039 175.965 97.0467 179.447 97.0001C182.93 96.9534 185.916 99.9021 185.909 103.353C185.903 106.74 182.986 109.655 179.568 109.696Z" fill="white"/>
<path d="M179.545 165C176.151 165.021 173.131 162.103 173.086 158.761C173.042 155.322 175.994 152.337 179.471 152.309C182.949 152.28 185.917 155.219 185.906 158.685C185.898 162.064 182.959 164.979 179.545 165Z" fill="white"/>
<path d="M201.177 130.334C201.177 126.681 203.853 124.067 207.572 124.082C211.163 124.1 213.834 126.774 213.834 130.35C213.848 131.171 213.696 131.987 213.387 132.749C213.078 133.512 212.618 134.206 212.034 134.792C211.45 135.378 210.754 135.843 209.985 136.161C209.217 136.479 208.392 136.643 207.559 136.644C203.598 136.719 200.822 133.156 201.177 130.334Z" fill="white"/>
<path d="M200.952 116.011C200.952 119.602 198.324 122.214 194.693 122.253C191.063 122.292 188.285 119.574 188.282 115.982C188.279 115.151 188.444 114.327 188.767 113.559C189.09 112.791 189.565 112.094 190.164 111.509C190.764 110.924 191.475 110.462 192.257 110.151C193.039 109.84 193.876 109.685 194.72 109.696C198.255 109.72 200.96 112.461 200.952 116.011Z" fill="white"/>
<path d="M200.953 143.639C200.953 147.303 198.248 149.961 194.578 149.907C190.959 149.855 188.291 147.212 188.27 143.67C188.261 142.838 188.421 142.012 188.741 141.242C189.06 140.471 189.532 139.771 190.129 139.182C190.726 138.593 191.436 138.128 192.217 137.813C192.999 137.498 193.837 137.34 194.681 137.348C198.232 137.363 200.953 140.097 200.953 143.639Z" fill="white"/>
<path d="M164.279 109.696C165.959 109.696 167.571 110.348 168.766 111.512C169.961 112.677 170.642 114.259 170.661 115.915C170.686 116.75 170.539 117.581 170.228 118.358C169.917 119.135 169.449 119.841 168.853 120.435C168.256 121.028 167.544 121.495 166.758 121.809C165.973 122.122 165.131 122.275 164.284 122.258C163.439 122.268 162.6 122.11 161.818 121.796C161.036 121.481 160.325 121.015 159.728 120.425C159.132 119.836 158.661 119.134 158.343 118.362C158.026 117.59 157.869 116.763 157.881 115.93C157.881 112.546 160.825 109.696 164.279 109.696Z" fill="white"/>
<path d="M164.287 137.348C165.969 137.351 167.582 138.008 168.776 139.177C169.97 140.346 170.647 141.932 170.661 143.59C170.684 144.424 170.534 145.254 170.222 146.029C169.909 146.804 169.44 147.509 168.843 148.1C168.246 148.691 167.533 149.157 166.748 149.468C165.963 149.78 165.122 149.931 164.276 149.912C163.431 149.921 162.592 149.763 161.81 149.447C161.028 149.131 160.318 148.664 159.722 148.073C159.126 147.483 158.656 146.78 158.34 146.008C158.023 145.235 157.867 144.408 157.881 143.574C157.881 140.198 160.835 137.346 164.287 137.348Z" fill="white"/>
<path d="M256.529 116.755C254.004 116.558 251.467 116.547 248.94 116.723C245.447 117.011 243.26 119.219 243.207 122.683C243.176 124.937 243.207 127.194 243.207 129.448C243.207 131.796 243.165 134.146 243.207 136.493C243.283 139.862 245.279 141.857 248.68 142.178C251.297 142.416 253.931 142.411 256.547 142.163C259.87 141.857 261.973 139.647 261.999 136.384C262.031 131.736 262.031 127.086 261.999 122.434C261.973 119.146 259.87 116.97 256.529 116.755ZM254.589 136.566C253.298 136.548 252.008 136.543 250.717 136.566C249.426 136.589 248.785 135.991 248.806 134.69C248.832 132.905 248.806 131.117 248.806 129.332C248.806 127.546 248.819 125.761 248.806 123.976C248.793 122.805 249.416 122.217 250.538 122.162C251.921 122.11 253.309 122.113 254.694 122.162C255.746 122.201 256.379 122.774 256.379 123.862C256.379 127.529 256.379 131.195 256.379 134.858C256.384 136.037 255.769 136.581 254.589 136.566Z" fill="#FFD532"/>
<path d="M280.091 127.453C282.625 121.872 278.777 117.348 274.114 117.053C272.923 116.975 271.724 117.022 270.528 117.035C266.803 117.071 264.693 119.144 264.661 122.836C264.635 125.751 264.661 128.663 264.661 131.578V140.46C264.661 142.186 264.821 142.274 266.525 141.792C267.161 141.608 267.626 141.085 268.496 141.367C271.322 142.284 274.24 141.937 277.126 141.626C278.012 141.533 278.703 140.979 279.352 140.419C282.144 137.988 282.662 131.71 280.272 128.868C279.847 128.352 279.807 128.078 280.091 127.453ZM272.81 121.828C275.207 121.828 275.83 122.447 275.735 124.717C275.667 126.43 275.141 126.922 273.356 126.945C273.117 126.945 272.881 126.945 272.642 126.945C270.068 126.945 270.068 126.945 270.068 124.37C270.068 121.794 270.068 121.825 272.81 121.828ZM274.011 137.022C273.154 137.048 272.284 136.947 271.438 137.045C270.26 137.185 269.913 136.708 270.058 135.641C270.089 135.172 270.089 134.702 270.058 134.234C270.058 131.441 270.058 131.441 272.847 131.441C273.23 131.441 273.611 131.441 273.993 131.441C275.793 131.48 276.621 132.345 276.621 134.216C276.621 136.087 275.793 136.965 274.011 137.022Z" fill="#FFD532"/>
<path d="M296.539 117.252C294.53 116.633 292.477 116.778 290.43 116.778C286.689 116.778 284.444 118.965 284.429 122.613C284.429 125.572 284.429 128.531 284.429 131.49C284.429 134.685 284.429 137.877 284.429 141.077C284.429 141.738 284.508 142.113 285.338 142.098C288.109 142.049 290.885 142.176 293.647 142.043C298.839 141.797 302.395 138.592 302.655 133.819C302.874 130.679 302.839 127.526 302.55 124.391C302.19 120.934 299.922 118.296 296.539 117.252ZM297.29 132.394C297.214 135.162 295.606 136.695 292.785 136.737C289.965 136.778 289.933 136.778 289.933 133.967V129.327C289.933 127.254 289.967 125.199 289.917 123.139C289.899 122.338 290.159 122.123 290.969 122.103C296.089 121.958 297.296 123.095 297.296 128.179C297.296 129.583 297.327 130.99 297.29 132.394Z" fill="#FFD532"/>
<path d="M323.705 117.177C321.213 117.319 318.802 119.421 318.579 121.88C318.475 123.285 318.446 124.695 318.492 126.103C318.505 126.88 318.266 127.189 317.441 127.158C315.914 127.101 314.381 127.077 312.856 127.158C311.805 127.22 311.442 126.917 311.476 125.836C311.555 123.302 311.458 120.763 311.524 118.226C311.55 117.21 311.198 117.081 310.283 117.254C307.531 117.773 305.607 119.802 305.578 122.652C305.504 128.852 305.578 135.055 305.533 141.256C305.533 142.033 305.825 142.214 306.543 142.144C309.032 141.906 311.274 139.693 311.434 137.221C311.516 135.864 311.511 134.495 311.476 133.135C311.461 132.449 311.71 132.244 312.389 132.259C314.013 132.298 315.643 132.34 317.262 132.259C318.313 132.2 318.521 132.596 318.497 133.539C318.437 136.029 318.542 138.522 318.45 141.009C318.405 142.248 318.976 142.305 319.909 142.085C322.601 141.452 324.351 139.408 324.401 136.643C324.456 133.638 324.401 130.63 324.401 127.621C324.401 124.476 324.401 121.325 324.401 118.18C324.404 117.729 324.675 117.122 323.705 117.177Z" fill="#FFD532"/>
<path d="M239.341 136.04C236.762 136.094 234.181 136.003 231.605 136.084C230.477 136.12 230.167 135.794 230.18 134.682C230.24 129.241 230.18 123.8 230.238 118.343C230.253 117.159 229.872 117.047 228.86 117.28C226.282 117.843 224.46 119.827 224.415 122.416C224.358 125.466 224.402 128.518 224.402 131.57H224.384C224.384 134.679 224.397 137.768 224.384 140.867C224.384 141.515 224.434 141.903 225.278 141.883C228.571 141.833 231.867 141.911 235.161 141.839C237.771 141.779 239.866 139.766 240.308 137.175C240.455 136.317 240.287 136.019 239.341 136.04Z" fill="#FFD532"/>
<path d="M332.971 127.551C332.971 124.403 332.971 121.255 332.957 118.109C332.957 117.682 333.257 117.031 332.29 117.088C329.703 117.236 327.24 119.56 327.217 122.159C327.161 128.453 327.217 134.747 327.172 141.043C327.172 141.903 327.54 141.937 328.194 141.867C330.742 141.608 332.9 139.39 332.944 136.851C332.999 133.741 332.944 130.65 332.944 127.551H332.971Z" fill="#FFD532"/>
</g>
<path d="M135.6 340V312.28H152.12L151.44 316.96H142.16V324.32H150.24V329H142.16V340H135.6ZM162.766 318.08C166.019 318.08 168.566 319.08 170.406 321.08C172.246 323.053 173.166 325.827 173.166 329.4C173.166 331.667 172.739 333.653 171.886 335.36C171.059 337.04 169.859 338.347 168.286 339.28C166.739 340.213 164.899 340.68 162.766 340.68C159.539 340.68 156.993 339.693 155.126 337.72C153.286 335.72 152.366 332.933 152.366 329.36C152.366 327.093 152.779 325.12 153.606 323.44C154.459 321.733 155.659 320.413 157.206 319.48C158.779 318.547 160.633 318.08 162.766 318.08ZM162.766 322.72C161.486 322.72 160.526 323.267 159.886 324.36C159.246 325.427 158.926 327.093 158.926 329.36C158.926 331.68 159.233 333.373 159.846 334.44C160.486 335.507 161.459 336.04 162.766 336.04C164.046 336.04 165.006 335.507 165.646 334.44C166.286 333.347 166.606 331.667 166.606 329.4C166.606 327.08 166.286 325.387 165.646 324.32C165.033 323.253 164.073 322.72 162.766 322.72ZM194.845 340H189.365L189.085 337.32C187.539 339.56 185.392 340.68 182.645 340.68C180.699 340.68 179.219 340.093 178.205 338.92C177.219 337.747 176.725 336.107 176.725 334V318.76H183.045V333.2C183.045 334.24 183.205 334.973 183.525 335.4C183.872 335.8 184.392 336 185.085 336C186.419 336 187.565 335.173 188.525 333.52V318.76H194.845V340ZM212.256 318.08C214.096 318.08 215.536 318.64 216.576 319.76C217.616 320.88 218.136 322.453 218.136 324.48V340H211.816V325.56C211.816 324.493 211.643 323.76 211.296 323.36C210.976 322.933 210.483 322.72 209.816 322.72C208.536 322.72 207.309 323.64 206.136 325.48V340H199.816V318.76H205.336L205.776 321.28C206.683 320.213 207.656 319.413 208.696 318.88C209.763 318.347 210.949 318.08 212.256 318.08ZM241.942 310.32V340H236.342L236.022 337.52C234.529 339.627 232.515 340.68 229.982 340.68C227.342 340.68 225.329 339.667 223.942 337.64C222.582 335.613 221.902 332.84 221.902 329.32C221.902 327.16 222.262 325.227 222.982 323.52C223.702 321.813 224.715 320.48 226.022 319.52C227.355 318.56 228.875 318.08 230.582 318.08C232.609 318.08 234.289 318.747 235.622 320.08V309.64L241.942 310.32ZM231.942 336.04C233.409 336.04 234.635 335.24 235.622 333.64V324.48C235.115 323.867 234.595 323.413 234.062 323.12C233.555 322.827 232.969 322.68 232.302 322.68C231.129 322.68 230.195 323.227 229.502 324.32C228.809 325.413 228.462 327.093 228.462 329.36C228.462 331.84 228.755 333.573 229.342 334.56C229.955 335.547 230.822 336.04 231.942 336.04ZM265.406 328.96C265.406 329.84 265.366 330.6 265.286 331.24H252.126C252.34 333.027 252.846 334.28 253.646 335C254.446 335.72 255.553 336.08 256.966 336.08C257.82 336.08 258.646 335.933 259.446 335.64C260.246 335.32 261.113 334.84 262.046 334.2L264.646 337.72C262.166 339.693 259.406 340.68 256.366 340.68C252.926 340.68 250.286 339.667 248.446 337.64C246.606 335.613 245.686 332.893 245.686 329.48C245.686 327.32 246.073 325.387 246.846 323.68C247.62 321.947 248.753 320.587 250.246 319.6C251.74 318.587 253.526 318.08 255.606 318.08C258.673 318.08 261.073 319.04 262.806 320.96C264.54 322.88 265.406 325.547 265.406 328.96ZM259.206 327.16C259.153 323.907 258.006 322.28 255.766 322.28C254.673 322.28 253.82 322.68 253.206 323.48C252.62 324.28 252.26 325.6 252.126 327.44H259.206V327.16ZM280.477 318.16C281.25 318.16 281.957 318.253 282.597 318.44L281.597 324.56C280.797 324.373 280.157 324.28 279.677 324.28C278.423 324.28 277.463 324.72 276.797 325.6C276.157 326.453 275.65 327.747 275.277 329.48V340H268.957V318.76H274.477L274.997 322.88C275.477 321.413 276.197 320.267 277.157 319.44C278.143 318.587 279.25 318.16 280.477 318.16ZM304.543 311.6C306.303 311.6 307.823 311.88 309.103 312.44C310.41 313 311.397 313.76 312.063 314.72C312.757 315.68 313.103 316.773 313.103 318C313.103 319.573 312.65 320.947 311.743 322.12C310.863 323.267 309.557 324.413 307.823 325.56L313.223 330.64C313.997 329.04 314.637 327.12 315.143 324.88L320.423 326.44C319.41 329.373 318.183 331.853 316.743 333.88L321.583 338.16L316.183 340.68L313.063 337.68C310.583 339.68 307.663 340.68 304.303 340.68C302.357 340.68 300.637 340.36 299.143 339.72C297.65 339.08 296.49 338.173 295.663 337C294.837 335.827 294.423 334.467 294.423 332.92C294.423 331.32 294.85 329.92 295.703 328.72C296.583 327.52 297.957 326.307 299.823 325.08C298.383 323.693 297.383 322.52 296.823 321.56C296.263 320.573 295.983 319.467 295.983 318.24C295.983 317.04 296.303 315.947 296.943 314.96C297.583 313.947 298.543 313.133 299.823 312.52C301.13 311.907 302.703 311.6 304.543 311.6ZM304.623 315.68C303.823 315.68 303.197 315.92 302.743 316.4C302.29 316.853 302.063 317.467 302.063 318.24C302.063 318.933 302.223 319.56 302.543 320.12C302.89 320.68 303.49 321.387 304.343 322.24C305.277 321.627 305.957 321 306.383 320.36C306.837 319.72 307.063 318.987 307.063 318.16C307.063 317.387 306.837 316.787 306.383 316.36C305.957 315.907 305.37 315.68 304.623 315.68ZM303.423 328.48C302.597 329.093 301.983 329.733 301.583 330.4C301.21 331.04 301.023 331.76 301.023 332.56C301.023 333.653 301.423 334.533 302.223 335.2C303.023 335.867 304.077 336.2 305.383 336.2C307.063 336.2 308.57 335.693 309.903 334.68L303.423 328.48ZM345.826 311.6C347.56 311.6 349.093 311.853 350.426 312.36C351.786 312.867 353.066 313.627 354.266 314.64L351.146 318.36C350.32 317.72 349.506 317.24 348.706 316.92C347.906 316.6 347.053 316.44 346.146 316.44C344.28 316.44 342.8 317.227 341.706 318.8C340.64 320.373 340.106 322.8 340.106 326.08C340.106 329.307 340.64 331.707 341.706 333.28C342.8 334.827 344.306 335.6 346.226 335.6C347.24 335.6 348.16 335.413 348.986 335.04C349.813 334.64 350.706 334.08 351.666 333.36L354.586 337.12C353.546 338.16 352.28 339.013 350.786 339.68C349.32 340.347 347.693 340.68 345.906 340.68C343.346 340.68 341.12 340.12 339.226 339C337.333 337.88 335.853 336.227 334.786 334.04C333.746 331.827 333.226 329.173 333.226 326.08C333.226 323.067 333.76 320.467 334.826 318.28C335.92 316.093 337.413 314.44 339.306 313.32C341.226 312.173 343.4 311.6 345.826 311.6ZM374.514 312.28L373.834 316.96H364.074V323.6H372.594V328.2H364.074V335.28H374.514V340H357.514V312.28H374.514ZM389.222 311.6C393.169 311.6 396.235 312.867 398.422 315.4C400.635 317.933 401.742 321.507 401.742 326.12C401.742 329.133 401.235 331.733 400.222 333.92C399.235 336.107 397.795 337.787 395.902 338.96C394.035 340.107 391.809 340.68 389.222 340.68C386.635 340.68 384.409 340.107 382.542 338.96C380.675 337.813 379.235 336.16 378.222 334C377.235 331.813 376.742 329.187 376.742 326.12C376.742 323.133 377.235 320.547 378.222 318.36C379.235 316.173 380.675 314.507 382.542 313.36C384.409 312.187 386.635 311.6 389.222 311.6ZM389.222 316.4C387.329 316.4 385.915 317.173 384.982 318.72C384.075 320.24 383.622 322.707 383.622 326.12C383.622 329.533 384.089 332.013 385.022 333.56C385.955 335.107 387.355 335.88 389.222 335.88C391.142 335.88 392.555 335.12 393.462 333.6C394.395 332.053 394.862 329.56 394.862 326.12C394.862 322.68 394.395 320.2 393.462 318.68C392.529 317.16 391.115 316.4 389.222 316.4Z" fill="white"/>
<path d="M181.945 287H171.48L170.7 269.385C170.483 265.182 170.375 261.433 170.375 258.14C170.375 255.627 170.44 253.243 170.57 250.99L163.615 282.255H153.54L146.13 250.99C146.39 254.76 146.52 258.313 146.52 261.65C146.52 264.163 146.455 266.785 146.325 269.515L145.545 287H135.145L138.525 241.955H151.98L158.74 272.505L165.045 241.955H178.565L181.945 287ZM191.899 276.34C193.502 276.34 194.867 276.925 195.994 278.095C197.164 279.222 197.749 280.587 197.749 282.19C197.749 283.837 197.164 285.245 195.994 286.415C194.867 287.542 193.502 288.105 191.899 288.105C190.252 288.105 188.844 287.542 187.674 286.415C186.547 285.245 185.984 283.837 185.984 282.19C185.984 280.587 186.547 279.222 187.674 278.095C188.844 276.925 190.252 276.34 191.899 276.34ZM264.084 287H253.619L252.839 269.385C252.622 265.182 252.514 261.433 252.514 258.14C252.514 255.627 252.579 253.243 252.709 250.99L245.754 282.255H235.679L228.269 250.99C228.529 254.76 228.659 258.313 228.659 261.65C228.659 264.163 228.594 266.785 228.464 269.515L227.684 287H217.284L220.664 241.955H234.119L240.879 272.505L247.184 241.955H260.704L264.084 287ZM297.697 276.99C297.697 278.29 297.871 279.243 298.217 279.85C298.607 280.457 299.214 280.912 300.037 281.215L297.892 287.91C295.769 287.737 294.036 287.282 292.692 286.545C291.349 285.765 290.309 284.552 289.572 282.905C287.319 286.372 283.852 288.105 279.172 288.105C275.749 288.105 273.019 287.108 270.982 285.115C268.946 283.122 267.927 280.522 267.927 277.315C267.927 273.545 269.314 270.663 272.087 268.67C274.861 266.677 278.869 265.68 284.112 265.68H287.622V264.185C287.622 262.148 287.189 260.762 286.322 260.025C285.456 259.245 283.939 258.855 281.772 258.855C280.646 258.855 279.281 259.028 277.677 259.375C276.074 259.678 274.427 260.112 272.737 260.675L270.397 253.915C272.564 253.092 274.774 252.463 277.027 252.03C279.324 251.597 281.447 251.38 283.397 251.38C288.337 251.38 291.956 252.398 294.252 254.435C296.549 256.472 297.697 259.527 297.697 263.6V276.99ZM282.162 280.76C284.502 280.76 286.322 279.655 287.622 277.445V271.335H285.087C282.747 271.335 280.992 271.747 279.822 272.57C278.696 273.393 278.132 274.672 278.132 276.405C278.132 277.792 278.479 278.875 279.172 279.655C279.909 280.392 280.906 280.76 282.162 280.76ZM317.398 251.38C319.868 251.38 322.186 251.748 324.353 252.485C326.52 253.222 328.426 254.262 330.073 255.605L326.303 261.39C323.486 259.613 320.648 258.725 317.788 258.725C316.445 258.725 315.405 258.963 314.668 259.44C313.975 259.873 313.628 260.502 313.628 261.325C313.628 261.975 313.78 262.517 314.083 262.95C314.43 263.34 315.101 263.752 316.098 264.185C317.095 264.618 318.633 265.138 320.713 265.745C324.31 266.785 326.975 268.15 328.708 269.84C330.485 271.487 331.373 273.783 331.373 276.73C331.373 279.07 330.701 281.107 329.358 282.84C328.015 284.53 326.173 285.83 323.833 286.74C321.493 287.65 318.893 288.105 316.033 288.105C313.13 288.105 310.421 287.65 307.908 286.74C305.438 285.83 303.336 284.573 301.603 282.97L306.608 277.38C309.511 279.633 312.566 280.76 315.773 280.76C317.333 280.76 318.546 280.478 319.413 279.915C320.323 279.352 320.778 278.55 320.778 277.51C320.778 276.687 320.605 276.037 320.258 275.56C319.911 275.083 319.24 274.65 318.243 274.26C317.246 273.827 315.665 273.307 313.498 272.7C310.075 271.703 307.518 270.317 305.828 268.54C304.138 266.763 303.293 264.553 303.293 261.91C303.293 259.917 303.856 258.14 304.983 256.58C306.153 254.977 307.8 253.72 309.923 252.81C312.09 251.857 314.581 251.38 317.398 251.38ZM356.879 251.38C359.869 251.38 362.209 252.29 363.899 254.11C365.589 255.93 366.434 258.487 366.434 261.78V287H356.164V263.535C356.164 261.802 355.882 260.61 355.319 259.96C354.755 259.267 353.954 258.92 352.914 258.92C350.834 258.92 348.84 260.393 346.934 263.34V287H336.664V238.77L346.934 237.73V256.19C348.364 254.587 349.88 253.395 351.484 252.615C353.087 251.792 354.885 251.38 356.879 251.38ZM392.898 251.51C394.155 251.51 395.303 251.662 396.343 251.965L394.718 261.91C393.418 261.607 392.378 261.455 391.598 261.455C389.562 261.455 388.002 262.17 386.918 263.6C385.878 264.987 385.055 267.088 384.448 269.905V287H374.178V252.485H383.148L383.993 259.18C384.773 256.797 385.943 254.933 387.503 253.59C389.107 252.203 390.905 251.51 392.898 251.51ZM429.387 287H420.482L420.027 282.645C417.514 286.285 414.026 288.105 409.562 288.105C406.399 288.105 403.994 287.152 402.347 285.245C400.744 283.338 399.942 280.673 399.942 277.25V252.485H410.212V275.95C410.212 277.64 410.472 278.832 410.992 279.525C411.556 280.175 412.401 280.5 413.527 280.5C415.694 280.5 417.557 279.157 419.117 276.47V252.485H429.387V287ZM456.185 251.51C457.441 251.51 458.59 251.662 459.63 251.965L458.005 261.91C456.705 261.607 455.665 261.455 454.885 261.455C452.848 261.455 451.288 262.17 450.205 263.6C449.165 264.987 448.341 267.088 447.735 269.905V287H437.465V252.485H446.435L447.28 259.18C448.06 256.797 449.23 254.933 450.79 253.59C452.393 252.203 454.191 251.51 456.185 251.51ZM503.353 287V267.695H489.833V287H479.173V241.955H489.833V259.375H503.353V241.955H514.013V287H503.353ZM551.389 287H542.484L542.029 282.645C539.516 286.285 536.028 288.105 531.564 288.105C528.401 288.105 525.996 287.152 524.349 285.245C522.746 283.338 521.944 280.673 521.944 277.25V252.485H532.214V275.95C532.214 277.64 532.474 278.832 532.994 279.525C533.558 280.175 534.403 280.5 535.529 280.5C537.696 280.5 539.559 279.157 541.119 276.47V252.485H551.389V287ZM571.622 251.38C574.092 251.38 576.41 251.748 578.577 252.485C580.743 253.222 582.65 254.262 584.297 255.605L580.527 261.39C577.71 259.613 574.872 258.725 572.012 258.725C570.668 258.725 569.628 258.963 568.892 259.44C568.198 259.873 567.852 260.502 567.852 261.325C567.852 261.975 568.003 262.517 568.307 262.95C568.653 263.34 569.325 263.752 570.322 264.185C571.318 264.618 572.857 265.138 574.937 265.745C578.533 266.785 581.198 268.15 582.932 269.84C584.708 271.487 585.597 273.783 585.597 276.73C585.597 279.07 584.925 281.107 583.582 282.84C582.238 284.53 580.397 285.83 578.057 286.74C575.717 287.65 573.117 288.105 570.257 288.105C567.353 288.105 564.645 287.65 562.132 286.74C559.662 285.83 557.56 284.573 555.827 282.97L560.832 277.38C563.735 279.633 566.79 280.76 569.997 280.76C571.557 280.76 572.77 280.478 573.637 279.915C574.547 279.352 575.002 278.55 575.002 277.51C575.002 276.687 574.828 276.037 574.482 275.56C574.135 275.083 573.463 274.65 572.467 274.26C571.47 273.827 569.888 273.307 567.722 272.7C564.298 271.703 561.742 270.317 560.052 268.54C558.362 266.763 557.517 264.553 557.517 261.91C557.517 259.917 558.08 258.14 559.207 256.58C560.377 254.977 562.023 253.72 564.147 252.81C566.313 251.857 568.805 251.38 571.622 251.38ZM602.598 251.38C605.068 251.38 607.386 251.748 609.553 252.485C611.72 253.222 613.626 254.262 615.273 255.605L611.503 261.39C608.686 259.613 605.848 258.725 602.988 258.725C601.645 258.725 600.605 258.963 599.868 259.44C599.175 259.873 598.828 260.502 598.828 261.325C598.828 261.975 598.98 262.517 599.283 262.95C599.63 263.34 600.301 263.752 601.298 264.185C602.295 264.618 603.833 265.138 605.913 265.745C609.51 266.785 612.175 268.15 613.908 269.84C615.685 271.487 616.573 273.783 616.573 276.73C616.573 279.07 615.901 281.107 614.558 282.84C613.215 284.53 611.373 285.83 609.033 286.74C606.693 287.65 604.093 288.105 601.233 288.105C598.33 288.105 595.621 287.65 593.108 286.74C590.638 285.83 588.536 284.573 586.803 282.97L591.808 277.38C594.711 279.633 597.766 280.76 600.973 280.76C602.533 280.76 603.746 280.478 604.613 279.915C605.523 279.352 605.978 278.55 605.978 277.51C605.978 276.687 605.805 276.037 605.458 275.56C605.111 275.083 604.44 274.65 603.443 274.26C602.446 273.827 600.865 273.307 598.698 272.7C595.275 271.703 592.718 270.317 591.028 268.54C589.338 266.763 588.493 264.553 588.493 261.91C588.493 259.917 589.056 258.14 590.183 256.58C591.353 254.977 593 253.72 595.123 252.81C597.29 251.857 599.781 251.38 602.598 251.38ZM648.659 276.99C648.659 278.29 648.833 279.243 649.179 279.85C649.569 280.457 650.176 280.912 650.999 281.215L648.854 287.91C646.731 287.737 644.998 287.282 643.654 286.545C642.311 285.765 641.271 284.552 640.534 282.905C638.281 286.372 634.814 288.105 630.134 288.105C626.711 288.105 623.981 287.108 621.944 285.115C619.908 283.122 618.889 280.522 618.889 277.315C618.889 273.545 620.276 270.663 623.049 268.67C625.823 266.677 629.831 265.68 635.074 265.68H638.584V264.185C638.584 262.148 638.151 260.762 637.284 260.025C636.418 259.245 634.901 258.855 632.734 258.855C631.608 258.855 630.243 259.028 628.639 259.375C627.036 259.678 625.389 260.112 623.699 260.675L621.359 253.915C623.526 253.092 625.736 252.463 627.989 252.03C630.286 251.597 632.409 251.38 634.359 251.38C639.299 251.38 642.918 252.398 645.214 254.435C647.511 256.472 648.659 259.527 648.659 263.6V276.99ZM633.124 280.76C635.464 280.76 637.284 279.655 638.584 277.445V271.335H636.049C633.709 271.335 631.954 271.747 630.784 272.57C629.658 273.393 629.094 274.672 629.094 276.405C629.094 277.792 629.441 278.875 630.134 279.655C630.871 280.392 631.868 280.76 633.124 280.76ZM667.11 252.485V287H656.84V252.485H667.11ZM661.91 234.285C663.686 234.285 665.138 234.848 666.265 235.975C667.435 237.058 668.02 238.445 668.02 240.135C668.02 241.825 667.435 243.233 666.265 244.36C665.138 245.443 663.686 245.985 661.91 245.985C660.133 245.985 658.681 245.443 657.555 244.36C656.428 243.233 655.865 241.825 655.865 240.135C655.865 238.445 656.428 237.058 657.555 235.975C658.681 234.848 660.133 234.285 661.91 234.285ZM695.399 251.38C698.389 251.38 700.729 252.29 702.419 254.11C704.109 255.93 704.954 258.487 704.954 261.78V287H694.684V263.535C694.684 261.802 694.403 260.61 693.839 259.96C693.319 259.267 692.518 258.92 691.434 258.92C689.354 258.92 687.361 260.415 685.454 263.405V287H675.184V252.485H684.154L684.869 256.58C686.343 254.847 687.924 253.547 689.614 252.68C691.348 251.813 693.276 251.38 695.399 251.38Z" fill="#FFD532"/>
<path d="M208.65 425.5C212.783 425.5 215.933 427.017 218.1 430.05C220.3 433.083 221.4 437.45 221.4 443.15C221.4 448.817 220.3 453.183 218.1 456.25C215.933 459.317 212.783 460.85 208.65 460.85C204.517 460.85 201.35 459.317 199.15 456.25C196.983 453.183 195.9 448.817 195.9 443.15C195.9 437.45 196.983 433.083 199.15 430.05C201.35 427.017 204.517 425.5 208.65 425.5ZM208.65 431.35C207.517 431.35 206.617 431.717 205.95 432.45C205.283 433.183 204.783 434.4 204.45 436.1C204.15 437.8 204 440.15 204 443.15C204 446.15 204.15 448.517 204.45 450.25C204.783 451.95 205.283 453.167 205.95 453.9C206.617 454.633 207.517 455 208.65 455C209.783 455 210.683 454.65 211.35 453.95C212.017 453.217 212.5 452 212.8 450.3C213.133 448.567 213.3 446.183 213.3 443.15C213.3 440.117 213.133 437.75 212.8 436.05C212.5 434.317 212.017 433.1 211.35 432.4C210.683 431.7 209.783 431.35 208.65 431.35ZM241.225 426.2V460H233.475V433.9L226.225 438.35L222.775 433.1L234.175 426.2H241.225ZM259.168 425.5C263.235 425.5 266.352 426.7 268.518 429.1C270.685 431.467 271.768 434.633 271.768 438.6C271.768 443.167 271.018 446.95 269.518 449.95C268.052 452.95 265.785 455.367 262.718 457.2C259.652 459 255.652 460.4 250.718 461.4L249.118 455.9C253.485 454.833 256.768 453.5 258.968 451.9C261.168 450.267 262.602 447.983 263.268 445.05C261.502 447.217 259.168 448.3 256.268 448.3C254.502 448.3 252.885 447.85 251.418 446.95C249.952 446.05 248.785 444.75 247.918 443.05C247.052 441.35 246.618 439.383 246.618 437.15C246.618 434.85 247.168 432.817 248.268 431.05C249.368 429.283 250.868 427.917 252.768 426.95C254.702 425.983 256.835 425.5 259.168 425.5ZM258.718 442.75C259.685 442.75 260.585 442.5 261.418 442C262.285 441.467 263.052 440.717 263.718 439.75C263.752 436.617 263.418 434.4 262.718 433.1C262.018 431.8 260.835 431.15 259.168 431.15C257.735 431.15 256.602 431.65 255.768 432.65C254.968 433.617 254.568 435.033 254.568 436.9C254.568 438.967 254.935 440.467 255.668 441.4C256.435 442.3 257.452 442.75 258.718 442.75ZM284.27 425.5C286.637 425.5 288.654 425.883 290.32 426.65C292.02 427.417 293.304 428.45 294.17 429.75C295.07 431.05 295.52 432.5 295.52 434.1C295.52 436.133 294.937 437.833 293.77 439.2C292.637 440.567 291.02 441.55 288.92 442.15C291.187 442.383 293.037 443.2 294.47 444.6C295.904 445.967 296.62 447.917 296.62 450.45C296.62 452.35 296.12 454.1 295.12 455.7C294.12 457.267 292.637 458.517 290.67 459.45C288.737 460.383 286.42 460.85 283.72 460.85C278.787 460.85 274.92 459.15 272.12 455.75L276.37 451.6C277.504 452.733 278.604 453.567 279.67 454.1C280.77 454.6 281.97 454.85 283.27 454.85C284.837 454.85 286.104 454.417 287.07 453.55C288.037 452.683 288.52 451.483 288.52 449.95C288.52 448.217 288.054 446.983 287.12 446.25C286.22 445.483 284.854 445.1 283.02 445.1H280.22L281.07 439.65H283.02C284.52 439.65 285.704 439.267 286.57 438.5C287.437 437.733 287.87 436.65 287.87 435.25C287.87 434.017 287.47 433.067 286.67 432.4C285.87 431.7 284.77 431.35 283.37 431.35C281.004 431.35 278.804 432.333 276.77 434.3L272.87 430.05C276.07 427.017 279.87 425.5 284.27 425.5ZM315.547 437.25C317.414 437.25 319.08 437.7 320.547 438.6C322.014 439.467 323.164 440.75 323.997 442.45C324.83 444.117 325.247 446.117 325.247 448.45C325.247 450.75 324.747 452.85 323.747 454.75C322.747 456.617 321.314 458.1 319.447 459.2C317.614 460.3 315.464 460.85 312.997 460.85C308.664 460.85 305.447 459.4 303.347 456.5C301.247 453.6 300.197 449.617 300.197 444.55C300.197 440.75 300.78 437.417 301.947 434.55C303.147 431.683 304.847 429.467 307.047 427.9C309.28 426.3 311.897 425.5 314.897 425.5C317.797 425.5 320.364 426.25 322.597 427.75L319.697 432.45C318.197 431.583 316.664 431.15 315.097 431.15C313.197 431.15 311.664 431.95 310.497 433.55C309.33 435.15 308.63 437.417 308.397 440.35C310.43 438.283 312.814 437.25 315.547 437.25ZM313.097 455.2C314.497 455.2 315.547 454.617 316.247 453.45C316.98 452.25 317.347 450.617 317.347 448.55C317.347 446.45 317.014 444.95 316.347 444.05C315.68 443.15 314.68 442.7 313.347 442.7C311.547 442.7 309.897 443.583 308.397 445.35C308.464 448.917 308.847 451.45 309.547 452.95C310.247 454.45 311.43 455.2 313.097 455.2ZM339.637 425.5C343.704 425.5 346.82 426.7 348.987 429.1C351.154 431.467 352.237 434.633 352.237 438.6C352.237 443.167 351.487 446.95 349.987 449.95C348.52 452.95 346.254 455.367 343.187 457.2C340.12 459 336.12 460.4 331.187 461.4L329.587 455.9C333.954 454.833 337.237 453.5 339.437 451.9C341.637 450.267 343.07 447.983 343.737 445.05C341.97 447.217 339.637 448.3 336.737 448.3C334.97 448.3 333.354 447.85 331.887 446.95C330.42 446.05 329.254 444.75 328.387 443.05C327.52 441.35 327.087 439.383 327.087 437.15C327.087 434.85 327.637 432.817 328.737 431.05C329.837 429.283 331.337 427.917 333.237 426.95C335.17 425.983 337.304 425.5 339.637 425.5ZM339.187 442.75C340.154 442.75 341.054 442.5 341.887 442C342.754 441.467 343.52 440.717 344.187 439.75C344.22 436.617 343.887 434.4 343.187 433.1C342.487 431.8 341.304 431.15 339.637 431.15C338.204 431.15 337.07 431.65 336.237 432.65C335.437 433.617 335.037 435.033 335.037 436.9C335.037 438.967 335.404 440.467 336.137 441.4C336.904 442.3 337.92 442.75 339.187 442.75ZM368.416 425.5C372.549 425.5 375.699 427.017 377.866 430.05C380.066 433.083 381.166 437.45 381.166 443.15C381.166 448.817 380.066 453.183 377.866 456.25C375.699 459.317 372.549 460.85 368.416 460.85C364.282 460.85 361.116 459.317 358.916 456.25C356.749 453.183 355.666 448.817 355.666 443.15C355.666 437.45 356.749 433.083 358.916 430.05C361.116 427.017 364.282 425.5 368.416 425.5ZM368.416 431.35C367.282 431.35 366.382 431.717 365.716 432.45C365.049 433.183 364.549 434.4 364.216 436.1C363.916 437.8 363.766 440.15 363.766 443.15C363.766 446.15 363.916 448.517 364.216 450.25C364.549 451.95 365.049 453.167 365.716 453.9C366.382 454.633 367.282 455 368.416 455C369.549 455 370.449 454.65 371.116 453.95C371.782 453.217 372.266 452 372.566 450.3C372.899 448.567 373.066 446.183 373.066 443.15C373.066 440.117 372.899 437.75 372.566 436.05C372.266 434.317 371.782 433.1 371.116 432.4C370.449 431.7 369.549 431.35 368.416 431.35ZM405.714 431.85H393.464V438.95C395.03 438.217 396.697 437.85 398.464 437.85C400.33 437.85 401.997 438.283 403.464 439.15C404.93 440.017 406.08 441.283 406.914 442.95C407.747 444.617 408.164 446.583 408.164 448.85C408.164 451.217 407.614 453.317 406.514 455.15C405.447 456.95 403.897 458.35 401.864 459.35C399.864 460.35 397.547 460.85 394.914 460.85C390.347 460.85 386.597 459.15 383.664 455.75L388.064 451.65C389.897 453.817 392.08 454.9 394.614 454.9C396.347 454.9 397.68 454.383 398.614 453.35C399.58 452.317 400.064 450.833 400.064 448.9C400.064 445.133 398.48 443.25 395.314 443.25C394.647 443.25 393.997 443.35 393.364 443.55C392.73 443.717 392.03 444.017 391.264 444.45H385.914V426.2H406.614L405.714 431.85ZM422.938 425.5C427.005 425.5 430.121 426.7 432.288 429.1C434.455 431.467 435.538 434.633 435.538 438.6C435.538 443.167 434.788 446.95 433.288 449.95C431.821 452.95 429.555 455.367 426.488 457.2C423.421 459 419.421 460.4 414.488 461.4L412.888 455.9C417.255 454.833 420.538 453.5 422.738 451.9C424.938 450.267 426.371 447.983 427.038 445.05C425.271 447.217 422.938 448.3 420.038 448.3C418.271 448.3 416.655 447.85 415.188 446.95C413.721 446.05 412.555 444.75 411.688 443.05C410.821 441.35 410.388 439.383 410.388 437.15C410.388 434.85 410.938 432.817 412.038 431.05C413.138 429.283 414.638 427.917 416.538 426.95C418.471 425.983 420.605 425.5 422.938 425.5ZM422.488 442.75C423.455 442.75 424.355 442.5 425.188 442C426.055 441.467 426.821 440.717 427.488 439.75C427.521 436.617 427.188 434.4 426.488 433.1C425.788 431.8 424.605 431.15 422.938 431.15C421.505 431.15 420.371 431.65 419.538 432.65C418.738 433.617 418.338 435.033 418.338 436.9C418.338 438.967 418.705 440.467 419.438 441.4C420.205 442.3 421.221 442.75 422.488 442.75ZM451.716 425.5C455.85 425.5 459 427.017 461.166 430.05C463.366 433.083 464.466 437.45 464.466 443.15C464.466 448.817 463.366 453.183 461.166 456.25C459 459.317 455.85 460.85 451.716 460.85C447.583 460.85 444.416 459.317 442.216 456.25C440.05 453.183 438.966 448.817 438.966 443.15C438.966 437.45 440.05 433.083 442.216 430.05C444.416 427.017 447.583 425.5 451.716 425.5ZM451.716 431.35C450.583 431.35 449.683 431.717 449.016 432.45C448.35 433.183 447.85 434.4 447.516 436.1C447.216 437.8 447.066 440.15 447.066 443.15C447.066 446.15 447.216 448.517 447.516 450.25C447.85 451.95 448.35 453.167 449.016 453.9C449.683 454.633 450.583 455 451.716 455C452.85 455 453.75 454.65 454.416 453.95C455.083 453.217 455.566 452 455.866 450.3C456.2 448.567 456.366 446.183 456.366 443.15C456.366 440.117 456.2 437.75 455.866 436.05C455.566 434.317 455.083 433.1 454.416 432.4C453.75 431.7 452.85 431.35 451.716 431.35ZM483.564 437.25C485.431 437.25 487.098 437.7 488.564 438.6C490.031 439.467 491.181 440.75 492.014 442.45C492.848 444.117 493.264 446.117 493.264 448.45C493.264 450.75 492.764 452.85 491.764 454.75C490.764 456.617 489.331 458.1 487.464 459.2C485.631 460.3 483.481 460.85 481.014 460.85C476.681 460.85 473.464 459.4 471.364 456.5C469.264 453.6 468.214 449.617 468.214 444.55C468.214 440.75 468.798 437.417 469.964 434.55C471.164 431.683 472.864 429.467 475.064 427.9C477.298 426.3 479.914 425.5 482.914 425.5C485.814 425.5 488.381 426.25 490.614 427.75L487.714 432.45C486.214 431.583 484.681 431.15 483.114 431.15C481.214 431.15 479.681 431.95 478.514 433.55C477.348 435.15 476.648 437.417 476.414 440.35C478.448 438.283 480.831 437.25 483.564 437.25ZM481.114 455.2C482.514 455.2 483.564 454.617 484.264 453.45C484.998 452.25 485.364 450.617 485.364 448.55C485.364 446.45 485.031 444.95 484.364 444.05C483.698 443.15 482.698 442.7 481.364 442.7C479.564 442.7 477.914 443.583 476.414 445.35C476.481 448.917 476.864 451.45 477.564 452.95C478.264 454.45 479.448 455.2 481.114 455.2ZM226.45 492.6C228.55 492.6 230.233 493.317 231.5 494.75C232.767 496.15 233.4 498.1 233.4 500.6V520H225.5V501.95C225.5 499.583 224.75 498.4 223.25 498.4C222.417 498.4 221.683 498.683 221.05 499.25C220.417 499.817 219.8 500.683 219.2 501.85V520H211.3V501.95C211.3 499.583 210.55 498.4 209.05 498.4C208.25 498.4 207.517 498.7 206.85 499.3C206.217 499.867 205.6 500.717 205 501.85V520H197.1V493.45H204L204.55 496.55C205.583 495.217 206.717 494.233 207.95 493.6C209.217 492.933 210.65 492.6 212.25 492.6C213.75 492.6 215.033 492.967 216.1 493.7C217.2 494.433 218 495.467 218.5 496.8C219.567 495.367 220.733 494.317 222 493.65C223.3 492.95 224.783 492.6 226.45 492.6ZM242.236 511.8C243.47 511.8 244.52 512.25 245.386 513.15C246.286 514.017 246.736 515.067 246.736 516.3C246.736 517.567 246.286 518.65 245.386 519.55C244.52 520.417 243.47 520.85 242.236 520.85C240.97 520.85 239.886 520.417 238.986 519.55C238.12 518.65 237.686 517.567 237.686 516.3C237.686 515.067 238.12 514.017 238.986 513.15C239.886 512.25 240.97 511.8 242.236 511.8ZM280.698 492.6C282.798 492.6 284.481 493.317 285.748 494.75C287.015 496.15 287.648 498.1 287.648 500.6V520H279.748V501.95C279.748 499.583 278.998 498.4 277.498 498.4C276.665 498.4 275.931 498.683 275.298 499.25C274.665 499.817 274.048 500.683 273.448 501.85V520H265.548V501.95C265.548 499.583 264.798 498.4 263.298 498.4C262.498 498.4 261.765 498.7 261.098 499.3C260.465 499.867 259.848 500.717 259.248 501.85V520H251.348V493.45H258.248L258.798 496.55C259.831 495.217 260.965 494.233 262.198 493.6C263.465 492.933 264.898 492.6 266.498 492.6C267.998 492.6 269.281 492.967 270.348 493.7C271.448 494.433 272.248 495.467 272.748 496.8C273.815 495.367 274.981 494.317 276.248 493.65C277.548 492.95 279.031 492.6 280.698 492.6ZM314.684 512.3C314.684 513.3 314.818 514.033 315.084 514.5C315.384 514.967 315.851 515.317 316.484 515.55L314.834 520.7C313.201 520.567 311.868 520.217 310.834 519.65C309.801 519.05 309.001 518.117 308.434 516.85C306.701 519.517 304.034 520.85 300.434 520.85C297.801 520.85 295.701 520.083 294.134 518.55C292.568 517.017 291.784 515.017 291.784 512.55C291.784 509.65 292.851 507.433 294.984 505.9C297.118 504.367 300.201 503.6 304.234 503.6H306.934V502.45C306.934 500.883 306.601 499.817 305.934 499.25C305.268 498.65 304.101 498.35 302.434 498.35C301.568 498.35 300.518 498.483 299.284 498.75C298.051 498.983 296.784 499.317 295.484 499.75L293.684 494.55C295.351 493.917 297.051 493.433 298.784 493.1C300.551 492.767 302.184 492.6 303.684 492.6C307.484 492.6 310.268 493.383 312.034 494.95C313.801 496.517 314.684 498.867 314.684 502V512.3ZM302.734 515.2C304.534 515.2 305.934 514.35 306.934 512.65V507.95H304.984C303.184 507.95 301.834 508.267 300.934 508.9C300.068 509.533 299.634 510.517 299.634 511.85C299.634 512.917 299.901 513.75 300.434 514.35C301.001 514.917 301.768 515.2 302.734 515.2ZM329.839 492.6C331.739 492.6 333.522 492.883 335.189 493.45C336.855 494.017 338.322 494.817 339.589 495.85L336.689 500.3C334.522 498.933 332.339 498.25 330.139 498.25C329.105 498.25 328.305 498.433 327.739 498.8C327.205 499.133 326.939 499.617 326.939 500.25C326.939 500.75 327.055 501.167 327.289 501.5C327.555 501.8 328.072 502.117 328.839 502.45C329.605 502.783 330.789 503.183 332.389 503.65C335.155 504.45 337.205 505.5 338.539 506.8C339.905 508.067 340.589 509.833 340.589 512.1C340.589 513.9 340.072 515.467 339.039 516.8C338.005 518.1 336.589 519.1 334.789 519.8C332.989 520.5 330.989 520.85 328.789 520.85C326.555 520.85 324.472 520.5 322.539 519.8C320.639 519.1 319.022 518.133 317.689 516.9L321.539 512.6C323.772 514.333 326.122 515.2 328.589 515.2C329.789 515.2 330.722 514.983 331.389 514.55C332.089 514.117 332.439 513.5 332.439 512.7C332.439 512.067 332.305 511.567 332.039 511.2C331.772 510.833 331.255 510.5 330.489 510.2C329.722 509.867 328.505 509.467 326.839 509C324.205 508.233 322.239 507.167 320.939 505.8C319.639 504.433 318.989 502.733 318.989 500.7C318.989 499.167 319.422 497.8 320.289 496.6C321.189 495.367 322.455 494.4 324.089 493.7C325.755 492.967 327.672 492.6 329.839 492.6ZM360.209 492.6C362.509 492.6 364.309 493.3 365.609 494.7C366.909 496.1 367.559 498.067 367.559 500.6V520H359.659V501.95C359.659 500.617 359.442 499.7 359.009 499.2C358.575 498.667 357.959 498.4 357.159 498.4C355.559 498.4 354.025 499.533 352.559 501.8V520H344.659V482.9L352.559 482.1V496.3C353.659 495.067 354.825 494.15 356.059 493.55C357.292 492.917 358.675 492.6 360.209 492.6ZM387.916 492.7C388.883 492.7 389.766 492.817 390.566 493.05L389.316 500.7C388.316 500.467 387.516 500.35 386.916 500.35C385.349 500.35 384.149 500.9 383.316 502C382.516 503.067 381.883 504.683 381.416 506.85V520H373.516V493.45H380.416L381.066 498.6C381.666 496.767 382.566 495.333 383.766 494.3C384.999 493.233 386.383 492.7 387.916 492.7ZM415.984 520H409.134L408.784 516.65C406.851 519.45 404.168 520.85 400.734 520.85C398.301 520.85 396.451 520.117 395.184 518.65C393.951 517.183 393.334 515.133 393.334 512.5V493.45H401.234V511.5C401.234 512.8 401.434 513.717 401.834 514.25C402.268 514.75 402.918 515 403.784 515C405.451 515 406.884 513.967 408.084 511.9V493.45H415.984V520ZM436.598 492.7C437.564 492.7 438.448 492.817 439.248 493.05L437.998 500.7C436.998 500.467 436.198 500.35 435.598 500.35C434.031 500.35 432.831 500.9 431.998 502C431.198 503.067 430.564 504.683 430.098 506.85V520H422.198V493.45H429.098L429.748 498.6C430.348 496.767 431.248 495.333 432.448 494.3C433.681 493.233 435.064 492.7 436.598 492.7ZM457.816 492.6C460.116 492.6 461.916 493.3 463.216 494.7C464.516 496.1 465.166 498.067 465.166 500.6V520H457.266V501.95C457.266 500.617 457.049 499.7 456.616 499.2C456.183 498.667 455.566 498.4 454.766 498.4C453.166 498.4 451.633 499.533 450.166 501.8V520H442.266V482.9L450.166 482.1V496.3C451.266 495.067 452.433 494.15 453.666 493.55C454.899 492.917 456.283 492.6 457.816 492.6ZM493.523 520H486.673L486.323 516.65C484.39 519.45 481.707 520.85 478.273 520.85C475.84 520.85 473.99 520.117 472.723 518.65C471.49 517.183 470.873 515.133 470.873 512.5V493.45H478.773V511.5C478.773 512.8 478.973 513.717 479.373 514.25C479.807 514.75 480.457 515 481.323 515C482.99 515 484.423 513.967 485.623 511.9V493.45H493.523V520ZM509.087 492.6C510.987 492.6 512.77 492.883 514.437 493.45C516.103 494.017 517.57 494.817 518.837 495.85L515.937 500.3C513.77 498.933 511.587 498.25 509.387 498.25C508.353 498.25 507.553 498.433 506.987 498.8C506.453 499.133 506.187 499.617 506.187 500.25C506.187 500.75 506.303 501.167 506.537 501.5C506.803 501.8 507.32 502.117 508.087 502.45C508.853 502.783 510.037 503.183 511.637 503.65C514.403 504.45 516.453 505.5 517.787 506.8C519.153 508.067 519.837 509.833 519.837 512.1C519.837 513.9 519.32 515.467 518.287 516.8C517.253 518.1 515.837 519.1 514.037 519.8C512.237 520.5 510.237 520.85 508.037 520.85C505.803 520.85 503.72 520.5 501.787 519.8C499.887 519.1 498.27 518.133 496.937 516.9L500.787 512.6C503.02 514.333 505.37 515.2 507.837 515.2C509.037 515.2 509.97 514.983 510.637 514.55C511.337 514.117 511.687 513.5 511.687 512.7C511.687 512.067 511.553 511.567 511.287 511.2C511.02 510.833 510.503 510.5 509.737 510.2C508.97 509.867 507.753 509.467 506.087 509C503.453 508.233 501.487 507.167 500.187 505.8C498.887 504.433 498.237 502.733 498.237 500.7C498.237 499.167 498.67 497.8 499.537 496.6C500.437 495.367 501.703 494.4 503.337 493.7C505.003 492.967 506.92 492.6 509.087 492.6ZM532.915 492.6C534.815 492.6 536.598 492.883 538.265 493.45C539.932 494.017 541.398 494.817 542.665 495.85L539.765 500.3C537.598 498.933 535.415 498.25 533.215 498.25C532.182 498.25 531.382 498.433 530.815 498.8C530.282 499.133 530.015 499.617 530.015 500.25C530.015 500.75 530.132 501.167 530.365 501.5C530.632 501.8 531.148 502.117 531.915 502.45C532.682 502.783 533.865 503.183 535.465 503.65C538.232 504.45 540.282 505.5 541.615 506.8C542.982 508.067 543.665 509.833 543.665 512.1C543.665 513.9 543.148 515.467 542.115 516.8C541.082 518.1 539.665 519.1 537.865 519.8C536.065 520.5 534.065 520.85 531.865 520.85C529.632 520.85 527.548 520.5 525.615 519.8C523.715 519.1 522.098 518.133 520.765 516.9L524.615 512.6C526.848 514.333 529.198 515.2 531.665 515.2C532.865 515.2 533.798 514.983 534.465 514.55C535.165 514.117 535.515 513.5 535.515 512.7C535.515 512.067 535.382 511.567 535.115 511.2C534.848 510.833 534.332 510.5 533.565 510.2C532.798 509.867 531.582 509.467 529.915 509C527.282 508.233 525.315 507.167 524.015 505.8C522.715 504.433 522.065 502.733 522.065 500.7C522.065 499.167 522.498 497.8 523.365 496.6C524.265 495.367 525.532 494.4 527.165 493.7C528.832 492.967 530.748 492.6 532.915 492.6ZM568.346 512.3C568.346 513.3 568.48 514.033 568.746 514.5C569.046 514.967 569.513 515.317 570.146 515.55L568.496 520.7C566.863 520.567 565.53 520.217 564.496 519.65C563.463 519.05 562.663 518.117 562.096 516.85C560.363 519.517 557.696 520.85 554.096 520.85C551.463 520.85 549.363 520.083 547.796 518.55C546.23 517.017 545.446 515.017 545.446 512.55C545.446 509.65 546.513 507.433 548.646 505.9C550.78 504.367 553.863 503.6 557.896 503.6H560.596V502.45C560.596 500.883 560.263 499.817 559.596 499.25C558.93 498.65 557.763 498.35 556.096 498.35C555.23 498.35 554.18 498.483 552.946 498.75C551.713 498.983 550.446 499.317 549.146 499.75L547.346 494.55C549.013 493.917 550.713 493.433 552.446 493.1C554.213 492.767 555.846 492.6 557.346 492.6C561.146 492.6 563.93 493.383 565.696 494.95C567.463 496.517 568.346 498.867 568.346 502V512.3ZM556.396 515.2C558.196 515.2 559.596 514.35 560.596 512.65V507.95H558.646C556.846 507.95 555.496 508.267 554.596 508.9C553.73 509.533 553.296 510.517 553.296 511.85C553.296 512.917 553.563 513.75 554.096 514.35C554.663 514.917 555.43 515.2 556.396 515.2ZM582.539 493.45V520H574.639V493.45H582.539ZM578.539 479.45C579.906 479.45 581.022 479.883 581.889 480.75C582.789 481.583 583.239 482.65 583.239 483.95C583.239 485.25 582.789 486.333 581.889 487.2C581.022 488.033 579.906 488.45 578.539 488.45C577.172 488.45 576.056 488.033 575.189 487.2C574.322 486.333 573.889 485.25 573.889 483.95C573.889 482.65 574.322 481.583 575.189 480.75C576.056 479.883 577.172 479.45 578.539 479.45ZM604.3 492.6C606.6 492.6 608.4 493.3 609.7 494.7C611 496.1 611.65 498.067 611.65 500.6V520H603.75V501.95C603.75 500.617 603.534 499.7 603.1 499.2C602.7 498.667 602.084 498.4 601.25 498.4C599.65 498.4 598.117 499.55 596.65 501.85V520H588.75V493.45H595.65L596.2 496.6C597.334 495.267 598.55 494.267 599.85 493.6C601.184 492.933 602.667 492.6 604.3 492.6ZM640.858 494.85C642.258 494.85 643.708 495.05 645.208 495.45C646.741 495.817 648.174 496.367 649.508 497.1V509.45C649.508 511.483 649.674 512.9 650.008 513.7C650.374 514.5 650.991 514.9 651.858 514.9C653.158 514.9 654.174 514.1 654.908 512.5C655.641 510.867 656.008 508.133 656.008 504.3C656.008 499.833 654.741 496.383 652.208 493.95C649.674 491.483 645.874 490.25 640.808 490.25C637.308 490.25 634.291 491 631.758 492.5C629.258 493.967 627.341 496.033 626.008 498.7C624.708 501.333 624.058 504.4 624.058 507.9C624.058 513.3 625.491 517.533 628.358 520.6C631.258 523.7 635.424 525.25 640.858 525.25C642.524 525.25 644.241 525.083 646.008 524.75C647.774 524.45 649.341 524.05 650.708 523.55L652.558 529C650.924 529.633 649.058 530.133 646.958 530.5C644.891 530.9 642.841 531.1 640.808 531.1C636.008 531.1 631.808 530.15 628.208 528.25C624.608 526.35 621.824 523.65 619.858 520.15C617.891 516.65 616.908 512.567 616.908 507.9C616.908 503.433 617.924 499.417 619.958 495.85C622.024 492.283 624.874 489.5 628.508 487.5C632.141 485.5 636.258 484.5 640.858 484.5C645.424 484.5 649.391 485.417 652.758 487.25C656.124 489.05 658.691 491.45 660.458 494.45C662.224 497.45 663.108 500.7 663.108 504.2C663.108 507.2 662.658 509.883 661.758 512.25C660.858 514.617 659.574 516.467 657.908 517.8C656.274 519.133 654.374 519.8 652.208 519.8C650.341 519.8 648.824 519.3 647.658 518.3C646.524 517.3 645.808 516.1 645.508 514.7C644.874 516.2 643.958 517.4 642.758 518.3C641.558 519.167 640.091 519.6 638.358 519.6C635.324 519.6 633.041 518.583 631.508 516.55C629.974 514.483 629.208 511.75 629.208 508.35C629.208 504.217 630.224 500.933 632.258 498.5C634.324 496.067 637.191 494.85 640.858 494.85ZM639.408 514.65C640.208 514.65 640.891 514.417 641.458 513.95C642.024 513.483 642.474 512.9 642.808 512.2V500.3C642.041 500 641.308 499.85 640.608 499.85C639.241 499.85 638.191 500.517 637.458 501.85C636.724 503.15 636.358 505.333 636.358 508.4C636.358 510.667 636.591 512.283 637.058 513.25C637.558 514.183 638.341 514.65 639.408 514.65ZM693.034 495C691.301 495.7 688.751 496.05 685.384 496.05C687.118 496.783 688.384 497.683 689.184 498.75C689.984 499.817 690.384 501.2 690.384 502.9C690.384 504.6 689.934 506.133 689.034 507.5C688.134 508.833 686.834 509.883 685.134 510.65C683.468 511.417 681.501 511.8 679.234 511.8C678.168 511.8 677.151 511.7 676.184 511.5C675.918 511.633 675.701 511.85 675.534 512.15C675.401 512.417 675.334 512.7 675.334 513C675.334 513.5 675.518 513.9 675.884 514.2C676.284 514.467 677.068 514.6 678.234 514.6H682.234C684.268 514.6 686.051 514.933 687.584 515.6C689.118 516.267 690.301 517.183 691.134 518.35C691.968 519.517 692.384 520.833 692.384 522.3C692.384 525.067 691.184 527.217 688.784 528.75C686.418 530.317 682.984 531.1 678.484 531.1C675.251 531.1 672.701 530.75 670.834 530.05C668.968 529.383 667.651 528.433 666.884 527.2C666.151 525.967 665.784 524.417 665.784 522.55H672.884C672.884 523.35 673.034 523.983 673.334 524.45C673.668 524.917 674.251 525.267 675.084 525.5C675.918 525.733 677.118 525.85 678.684 525.85C680.851 525.85 682.351 525.583 683.184 525.05C684.018 524.55 684.434 523.817 684.434 522.85C684.434 522.05 684.118 521.417 683.484 520.95C682.851 520.483 681.901 520.25 680.634 520.25H676.784C674.051 520.25 672.001 519.767 670.634 518.8C669.301 517.8 668.634 516.533 668.634 515C668.634 514.033 668.918 513.1 669.484 512.2C670.051 511.267 670.818 510.5 671.784 509.9C670.118 509 668.901 507.95 668.134 506.75C667.401 505.517 667.034 504.033 667.034 502.3C667.034 499.333 668.101 496.983 670.234 495.25C672.368 493.483 675.184 492.6 678.684 492.6C681.351 492.667 683.601 492.4 685.434 491.8C687.301 491.2 689.218 490.317 691.184 489.15L693.034 495ZM678.884 497.8C677.651 497.8 676.668 498.2 675.934 499C675.234 499.767 674.884 500.833 674.884 502.2C674.884 503.633 675.234 504.75 675.934 505.55C676.668 506.317 677.651 506.7 678.884 506.7C680.184 506.7 681.168 506.317 681.834 505.55C682.534 504.783 682.884 503.633 682.884 502.1C682.884 499.233 681.551 497.8 678.884 497.8ZM725.473 492.6C727.573 492.6 729.257 493.317 730.523 494.75C731.79 496.15 732.423 498.1 732.423 500.6V520H724.523V501.95C724.523 499.583 723.773 498.4 722.273 498.4C721.44 498.4 720.707 498.683 720.073 499.25C719.44 499.817 718.823 500.683 718.223 501.85V520H710.323V501.95C710.323 499.583 709.573 498.4 708.073 498.4C707.273 498.4 706.54 498.7 705.873 499.3C705.24 499.867 704.623 500.717 704.023 501.85V520H696.123V493.45H703.023L703.573 496.55C704.607 495.217 705.74 494.233 706.973 493.6C708.24 492.933 709.673 492.6 711.273 492.6C712.773 492.6 714.057 492.967 715.123 493.7C716.223 494.433 717.023 495.467 717.523 496.8C718.59 495.367 719.757 494.317 721.023 493.65C722.323 492.95 723.807 492.6 725.473 492.6ZM759.46 512.3C759.46 513.3 759.593 514.033 759.86 514.5C760.16 514.967 760.626 515.317 761.26 515.55L759.61 520.7C757.976 520.567 756.643 520.217 755.61 519.65C754.576 519.05 753.776 518.117 753.21 516.85C751.476 519.517 748.81 520.85 745.21 520.85C742.576 520.85 740.476 520.083 738.91 518.55C737.343 517.017 736.56 515.017 736.56 512.55C736.56 509.65 737.626 507.433 739.76 505.9C741.893 504.367 744.976 503.6 749.01 503.6H751.71V502.45C751.71 500.883 751.376 499.817 750.71 499.25C750.043 498.65 748.876 498.35 747.21 498.35C746.343 498.35 745.293 498.483 744.06 498.75C742.826 498.983 741.56 499.317 740.26 499.75L738.46 494.55C740.126 493.917 741.826 493.433 743.56 493.1C745.326 492.767 746.96 492.6 748.46 492.6C752.26 492.6 755.043 493.383 756.81 494.95C758.576 496.517 759.46 498.867 759.46 502V512.3ZM747.51 515.2C749.31 515.2 750.71 514.35 751.71 512.65V507.95H749.76C747.96 507.95 746.61 508.267 745.71 508.9C744.843 509.533 744.41 510.517 744.41 511.85C744.41 512.917 744.676 513.75 745.21 514.35C745.776 514.917 746.543 515.2 747.51 515.2ZM773.652 493.45V520H765.752V493.45H773.652ZM769.652 479.45C771.019 479.45 772.136 479.883 773.002 480.75C773.902 481.583 774.352 482.65 774.352 483.95C774.352 485.25 773.902 486.333 773.002 487.2C772.136 488.033 771.019 488.45 769.652 488.45C768.286 488.45 767.169 488.033 766.302 487.2C765.436 486.333 765.002 485.25 765.002 483.95C765.002 482.65 765.436 481.583 766.302 480.75C767.169 479.883 768.286 479.45 769.652 479.45ZM786.914 520.85C784.614 520.85 782.814 520.2 781.514 518.9C780.247 517.567 779.614 515.683 779.614 513.25V482.9L787.514 482.05V512.95C787.514 514.05 787.964 514.6 788.864 514.6C789.33 514.6 789.764 514.517 790.164 514.35L791.714 519.95C790.28 520.55 788.68 520.85 786.914 520.85ZM797.998 511.8C799.231 511.8 800.281 512.25 801.148 513.15C802.048 514.017 802.498 515.067 802.498 516.3C802.498 517.567 802.048 518.65 801.148 519.55C800.281 520.417 799.231 520.85 797.998 520.85C796.731 520.85 795.648 520.417 794.748 519.55C793.881 518.65 793.448 517.567 793.448 516.3C793.448 515.067 793.881 514.017 794.748 513.15C795.648 512.25 796.731 511.8 797.998 511.8ZM818.121 492.6C819.955 492.6 821.605 492.867 823.071 493.4C824.538 493.933 825.921 494.75 827.221 495.85L823.821 500.55C822.155 499.283 820.471 498.65 818.771 498.65C817.005 498.65 815.671 499.3 814.771 500.6C813.871 501.9 813.421 504 813.421 506.9C813.421 509.7 813.871 511.683 814.771 512.85C815.671 514.017 816.971 514.6 818.671 514.6C819.571 514.6 820.388 514.467 821.121 514.2C821.855 513.9 822.738 513.433 823.771 512.8L827.221 517.7C824.588 519.8 821.605 520.85 818.271 520.85C815.571 520.85 813.238 520.283 811.271 519.15C809.305 517.983 807.788 516.367 806.721 514.3C805.655 512.2 805.121 509.75 805.121 506.95C805.121 504.15 805.655 501.667 806.721 499.5C807.788 497.333 809.305 495.65 811.271 494.45C813.238 493.217 815.521 492.6 818.121 492.6ZM841.071 492.6C845.137 492.6 848.321 493.85 850.621 496.35C852.921 498.817 854.071 502.283 854.071 506.75C854.071 509.583 853.537 512.067 852.471 514.2C851.437 516.3 849.937 517.933 847.971 519.1C846.037 520.267 843.737 520.85 841.071 520.85C837.037 520.85 833.854 519.617 831.521 517.15C829.221 514.65 828.071 511.167 828.071 506.7C828.071 503.867 828.587 501.4 829.621 499.3C830.687 497.167 832.187 495.517 834.121 494.35C836.087 493.183 838.404 492.6 841.071 492.6ZM841.071 498.4C839.471 498.4 838.271 499.083 837.471 500.45C836.671 501.783 836.271 503.867 836.271 506.7C836.271 509.6 836.654 511.717 837.421 513.05C838.221 514.383 839.437 515.05 841.071 515.05C842.671 515.05 843.871 514.383 844.671 513.05C845.471 511.683 845.871 509.583 845.871 506.75C845.871 503.85 845.471 501.733 844.671 500.4C843.904 499.067 842.704 498.4 841.071 498.4ZM888.12 492.6C890.22 492.6 891.903 493.317 893.17 494.75C894.437 496.15 895.07 498.1 895.07 500.6V520H887.17V501.95C887.17 499.583 886.42 498.4 884.92 498.4C884.087 498.4 883.353 498.683 882.72 499.25C882.087 499.817 881.47 500.683 880.87 501.85V520H872.97V501.95C872.97 499.583 872.22 498.4 870.72 498.4C869.92 498.4 869.187 498.7 868.52 499.3C867.887 499.867 867.27 500.717 866.67 501.85V520H858.77V493.45H865.67L866.22 496.55C867.253 495.217 868.387 494.233 869.62 493.6C870.887 492.933 872.32 492.6 873.92 492.6C875.42 492.6 876.703 492.967 877.77 493.7C878.87 494.433 879.67 495.467 880.17 496.8C881.237 495.367 882.403 494.317 883.67 493.65C884.97 492.95 886.453 492.6 888.12 492.6ZM204.15 580.85C201.85 580.85 200.05 580.2 198.75 578.9C197.483 577.567 196.85 575.683 196.85 573.25V542.9L204.75 542.05V572.95C204.75 574.05 205.2 574.6 206.1 574.6C206.567 574.6 207 574.517 207.4 574.35L208.95 579.95C207.517 580.55 205.917 580.85 204.15 580.85ZM223.2 552.6C227.266 552.6 230.45 553.85 232.75 556.35C235.05 558.817 236.2 562.283 236.2 566.75C236.2 569.583 235.666 572.067 234.6 574.2C233.566 576.3 232.066 577.933 230.1 579.1C228.166 580.267 225.866 580.85 223.2 580.85C219.166 580.85 215.983 579.617 213.65 577.15C211.35 574.65 210.2 571.167 210.2 566.7C210.2 563.867 210.716 561.4 211.75 559.3C212.816 557.167 214.316 555.517 216.25 554.35C218.216 553.183 220.533 552.6 223.2 552.6ZM223.2 558.4C221.6 558.4 220.4 559.083 219.6 560.45C218.8 561.783 218.4 563.867 218.4 566.7C218.4 569.6 218.783 571.717 219.55 573.05C220.35 574.383 221.566 575.05 223.2 575.05C224.8 575.05 226 574.383 226.8 573.05C227.6 571.683 228 569.583 228 566.75C228 563.85 227.6 561.733 226.8 560.4C226.033 559.067 224.833 558.4 223.2 558.4ZM255.949 552.6C259.115 552.6 261.549 553.85 263.249 556.35C264.949 558.817 265.799 562.283 265.799 566.75C265.799 569.483 265.365 571.917 264.499 574.05C263.665 576.183 262.449 577.85 260.849 579.05C259.282 580.25 257.415 580.85 255.249 580.85C253.815 580.85 252.499 580.55 251.299 579.95C250.132 579.35 249.132 578.517 248.299 577.45L247.899 580H240.899V542.9L248.799 542.05V556.15C249.599 555.05 250.615 554.183 251.849 553.55C253.115 552.917 254.482 552.6 255.949 552.6ZM252.949 575.1C256.049 575.1 257.599 572.317 257.599 566.75C257.599 563.583 257.232 561.4 256.499 560.2C255.765 559 254.699 558.4 253.299 558.4C251.532 558.4 250.032 559.433 248.799 561.5V572.55C249.299 573.35 249.899 573.983 250.599 574.45C251.332 574.883 252.115 575.1 252.949 575.1ZM294.533 542.9V580H287.533L287.133 576.9C285.266 579.533 282.749 580.85 279.583 580.85C276.283 580.85 273.766 579.583 272.033 577.05C270.333 574.517 269.483 571.05 269.483 566.65C269.483 563.95 269.933 561.533 270.833 559.4C271.733 557.267 272.999 555.6 274.633 554.4C276.299 553.2 278.199 552.6 280.333 552.6C282.866 552.6 284.966 553.433 286.633 555.1V542.05L294.533 542.9ZM282.033 575.05C283.866 575.05 285.399 574.05 286.633 572.05V560.6C285.999 559.833 285.349 559.267 284.683 558.9C284.049 558.533 283.316 558.35 282.483 558.35C281.016 558.35 279.849 559.033 278.983 560.4C278.116 561.767 277.683 563.867 277.683 566.7C277.683 569.8 278.049 571.967 278.783 573.2C279.549 574.433 280.633 575.05 282.033 575.05ZM316.263 552.6C318.563 552.6 320.363 553.3 321.663 554.7C322.963 556.1 323.613 558.067 323.613 560.6V580H315.713V561.95C315.713 560.617 315.497 559.7 315.063 559.2C314.63 558.667 314.013 558.4 313.213 558.4C311.613 558.4 310.08 559.533 308.613 561.8V580H300.713V542.9L308.613 542.1V556.3C309.713 555.067 310.88 554.15 312.113 553.55C313.347 552.917 314.73 552.6 316.263 552.6ZM337.471 553.45V580H329.571V553.45H337.471ZM333.471 539.45C334.837 539.45 335.954 539.883 336.821 540.75C337.721 541.583 338.171 542.65 338.171 543.95C338.171 545.25 337.721 546.333 336.821 547.2C335.954 548.033 334.837 548.45 333.471 548.45C332.104 548.45 330.987 548.033 330.121 547.2C329.254 546.333 328.821 545.25 328.821 543.95C328.821 542.65 329.254 541.583 330.121 540.75C330.987 539.883 332.104 539.45 333.471 539.45ZM358.682 552.6C362.015 552.6 364.499 553.833 366.132 556.3C367.765 558.767 368.582 562.217 368.582 566.65C368.582 569.383 368.149 571.833 367.282 574C366.449 576.133 365.232 577.817 363.632 579.05C362.032 580.25 360.165 580.85 358.032 580.85C355.365 580.85 353.215 579.933 351.582 578.1V590.25L343.682 591.1V553.45H350.632L351.032 556.4C352.065 555.1 353.249 554.15 354.582 553.55C355.915 552.917 357.282 552.6 358.682 552.6ZM355.632 575.05C358.799 575.05 360.382 572.283 360.382 566.75C360.382 563.617 360.032 561.45 359.332 560.25C358.632 559.017 357.582 558.4 356.182 558.4C355.282 558.4 354.432 558.667 353.632 559.2C352.865 559.733 352.182 560.5 351.582 561.5V572.7C352.649 574.267 353.999 575.05 355.632 575.05ZM389.066 552.6C391.366 552.6 393.166 553.3 394.466 554.7C395.766 556.1 396.416 558.067 396.416 560.6V580H388.516V561.95C388.516 560.617 388.299 559.7 387.866 559.2C387.433 558.667 386.816 558.4 386.016 558.4C384.416 558.4 382.883 559.533 381.416 561.8V580H373.516V542.9L381.416 542.1V556.3C382.516 555.067 383.683 554.15 384.916 553.55C386.149 552.917 387.533 552.6 389.066 552.6ZM416.73 580.05C415.664 583.483 413.914 586.117 411.48 587.95C409.08 589.817 405.847 590.867 401.78 591.1L400.93 585.55C403.464 585.217 405.33 584.65 406.53 583.85C407.764 583.05 408.747 581.767 409.48 580H406.78L398.68 553.45H407.08L411.83 574.95L417.03 553.45H425.18L416.73 580.05ZM436.87 552.6C438.77 552.6 440.553 552.883 442.22 553.45C443.887 554.017 445.353 554.817 446.62 555.85L443.72 560.3C441.553 558.933 439.37 558.25 437.17 558.25C436.137 558.25 435.337 558.433 434.77 558.8C434.237 559.133 433.97 559.617 433.97 560.25C433.97 560.75 434.087 561.167 434.32 561.5C434.587 561.8 435.103 562.117 435.87 562.45C436.637 562.783 437.82 563.183 439.42 563.65C442.187 564.45 444.237 565.5 445.57 566.8C446.937 568.067 447.62 569.833 447.62 572.1C447.62 573.9 447.103 575.467 446.07 576.8C445.037 578.1 443.62 579.1 441.82 579.8C440.02 580.5 438.02 580.85 435.82 580.85C433.587 580.85 431.503 580.5 429.57 579.8C427.67 579.1 426.053 578.133 424.72 576.9L428.57 572.6C430.803 574.333 433.153 575.2 435.62 575.2C436.82 575.2 437.753 574.983 438.42 574.55C439.12 574.117 439.47 573.5 439.47 572.7C439.47 572.067 439.337 571.567 439.07 571.2C438.803 570.833 438.287 570.5 437.52 570.2C436.753 569.867 435.537 569.467 433.87 569C431.237 568.233 429.27 567.167 427.97 565.8C426.67 564.433 426.02 562.733 426.02 560.7C426.02 559.167 426.453 557.8 427.32 556.6C428.22 555.367 429.487 554.4 431.12 553.7C432.787 552.967 434.703 552.6 436.87 552.6ZM459.59 553.45V580H451.69V553.45H459.59ZM455.59 539.45C456.957 539.45 458.073 539.883 458.94 540.75C459.84 541.583 460.29 542.65 460.29 543.95C460.29 545.25 459.84 546.333 458.94 547.2C458.073 548.033 456.957 548.45 455.59 548.45C454.223 548.45 453.107 548.033 452.24 547.2C451.373 546.333 450.94 545.25 450.94 543.95C450.94 542.65 451.373 541.583 452.24 540.75C453.107 539.883 454.223 539.45 455.59 539.45ZM477.301 552.6C479.135 552.6 480.785 552.867 482.251 553.4C483.718 553.933 485.101 554.75 486.401 555.85L483.001 560.55C481.335 559.283 479.651 558.65 477.951 558.65C476.185 558.65 474.851 559.3 473.951 560.6C473.051 561.9 472.601 564 472.601 566.9C472.601 569.7 473.051 571.683 473.951 572.85C474.851 574.017 476.151 574.6 477.851 574.6C478.751 574.6 479.568 574.467 480.301 574.2C481.035 573.9 481.918 573.433 482.951 572.8L486.401 577.7C483.768 579.8 480.785 580.85 477.451 580.85C474.751 580.85 472.418 580.283 470.451 579.15C468.485 577.983 466.968 576.367 465.901 574.3C464.835 572.2 464.301 569.75 464.301 566.95C464.301 564.15 464.835 561.667 465.901 559.5C466.968 557.333 468.485 555.65 470.451 554.45C472.418 553.217 474.701 552.6 477.301 552.6ZM499.077 552.6C500.977 552.6 502.76 552.883 504.427 553.45C506.094 554.017 507.56 554.817 508.827 555.85L505.927 560.3C503.76 558.933 501.577 558.25 499.377 558.25C498.344 558.25 497.544 558.433 496.977 558.8C496.444 559.133 496.177 559.617 496.177 560.25C496.177 560.75 496.294 561.167 496.527 561.5C496.794 561.8 497.31 562.117 498.077 562.45C498.844 562.783 500.027 563.183 501.627 563.65C504.394 564.45 506.444 565.5 507.777 566.8C509.144 568.067 509.827 569.833 509.827 572.1C509.827 573.9 509.31 575.467 508.277 576.8C507.244 578.1 505.827 579.1 504.027 579.8C502.227 580.5 500.227 580.85 498.027 580.85C495.794 580.85 493.71 580.5 491.777 579.8C489.877 579.1 488.26 578.133 486.927 576.9L490.777 572.6C493.01 574.333 495.36 575.2 497.827 575.2C499.027 575.2 499.96 574.983 500.627 574.55C501.327 574.117 501.677 573.5 501.677 572.7C501.677 572.067 501.544 571.567 501.277 571.2C501.01 570.833 500.494 570.5 499.727 570.2C498.96 569.867 497.744 569.467 496.077 569C493.444 568.233 491.477 567.167 490.177 565.8C488.877 564.433 488.227 562.733 488.227 560.7C488.227 559.167 488.66 557.8 489.527 556.6C490.427 555.367 491.694 554.4 493.327 553.7C494.994 552.967 496.91 552.6 499.077 552.6ZM516.797 571.8C518.03 571.8 519.08 572.25 519.947 573.15C520.847 574.017 521.297 575.067 521.297 576.3C521.297 577.567 520.847 578.65 519.947 579.55C519.08 580.417 518.03 580.85 516.797 580.85C515.53 580.85 514.447 580.417 513.547 579.55C512.68 578.65 512.247 577.567 512.247 576.3C512.247 575.067 512.68 574.017 513.547 573.15C514.447 572.25 515.53 571.8 516.797 571.8ZM536.92 552.6C538.754 552.6 540.404 552.867 541.87 553.4C543.337 553.933 544.72 554.75 546.02 555.85L542.62 560.55C540.954 559.283 539.27 558.65 537.57 558.65C535.804 558.65 534.47 559.3 533.57 560.6C532.67 561.9 532.22 564 532.22 566.9C532.22 569.7 532.67 571.683 533.57 572.85C534.47 574.017 535.77 574.6 537.47 574.6C538.37 574.6 539.187 574.467 539.92 574.2C540.654 573.9 541.537 573.433 542.57 572.8L546.02 577.7C543.387 579.8 540.404 580.85 537.07 580.85C534.37 580.85 532.037 580.283 530.07 579.15C528.104 577.983 526.587 576.367 525.52 574.3C524.454 572.2 523.92 569.75 523.92 566.95C523.92 564.15 524.454 561.667 525.52 559.5C526.587 557.333 528.104 555.65 530.07 554.45C532.037 553.217 534.32 552.6 536.92 552.6ZM559.87 552.6C563.936 552.6 567.12 553.85 569.42 556.35C571.72 558.817 572.87 562.283 572.87 566.75C572.87 569.583 572.336 572.067 571.27 574.2C570.236 576.3 568.736 577.933 566.77 579.1C564.836 580.267 562.536 580.85 559.87 580.85C555.836 580.85 552.653 579.617 550.32 577.15C548.02 574.65 546.87 571.167 546.87 566.7C546.87 563.867 547.386 561.4 548.42 559.3C549.486 557.167 550.986 555.517 552.92 554.35C554.886 553.183 557.203 552.6 559.87 552.6ZM559.87 558.4C558.27 558.4 557.07 559.083 556.27 560.45C555.47 561.783 555.07 563.867 555.07 566.7C555.07 569.6 555.453 571.717 556.22 573.05C557.02 574.383 558.236 575.05 559.87 575.05C561.47 575.05 562.67 574.383 563.47 573.05C564.27 571.683 564.67 569.583 564.67 566.75C564.67 563.85 564.27 561.733 563.47 560.4C562.703 559.067 561.503 558.4 559.87 558.4ZM606.919 552.6C609.019 552.6 610.702 553.317 611.969 554.75C613.235 556.15 613.869 558.1 613.869 560.6V580H605.969V561.95C605.969 559.583 605.219 558.4 603.719 558.4C602.885 558.4 602.152 558.683 601.519 559.25C600.885 559.817 600.269 560.683 599.669 561.85V580H591.769V561.95C591.769 559.583 591.019 558.4 589.519 558.4C588.719 558.4 587.985 558.7 587.319 559.3C586.685 559.867 586.069 560.717 585.469 561.85V580H577.569V553.45H584.469L585.019 556.55C586.052 555.217 587.185 554.233 588.419 553.6C589.685 552.933 591.119 552.6 592.719 552.6C594.219 552.6 595.502 552.967 596.569 553.7C597.669 554.433 598.469 555.467 598.969 556.8C600.035 555.367 601.202 554.317 602.469 553.65C603.769 552.95 605.252 552.6 606.919 552.6Z" fill="white"/>
<g clip-path="url(#clip2_139_151)">
<path d="M147.667 421C137.357 421 129 429.357 129 439.667C129 449.976 137.357 458.333 147.667 458.333C157.976 458.333 166.333 449.976 166.333 439.667C166.333 429.357 157.976 421 147.667 421ZM140.958 428.415C141.343 428.392 141.691 428.622 141.954 429.03L144.506 433.87C144.775 434.443 144.622 435.057 144.221 435.467L143.052 436.636C142.98 436.735 142.933 436.846 142.932 436.969C143.38 438.704 144.74 440.305 145.94 441.405C147.139 442.506 148.429 443.996 150.103 444.349C150.309 444.407 150.563 444.428 150.711 444.29L152.069 442.907C152.538 442.552 153.216 442.379 153.716 442.67H153.739L158.344 445.388C159.02 445.812 159.09 446.631 158.606 447.129L155.435 450.276C154.966 450.756 154.344 450.918 153.739 450.919C151.065 450.839 148.539 449.526 146.464 448.177C143.057 445.699 139.933 442.626 137.971 438.912C137.219 437.355 136.335 435.369 136.419 433.631C136.427 432.977 136.604 432.336 137.064 431.915L140.236 428.743C140.483 428.533 140.728 428.428 140.958 428.415Z" fill="#FFD532"/>
</g>
<path fill-rule="evenodd" clip-rule="evenodd" d="M134.611 495.93C133.193 495.93 131.833 496.494 130.83 497.496C129.827 498.499 129.264 499.859 129.264 501.277V503.708H130.722C131.567 503.708 132.393 503.952 133.102 504.412C133.81 504.871 134.371 505.526 134.716 506.297C135.061 507.068 135.175 507.922 135.045 508.757C134.915 509.591 134.546 510.37 133.983 511C134.546 511.629 134.915 512.408 135.045 513.243C135.175 514.077 135.061 514.931 134.716 515.702C134.371 516.473 133.81 517.128 133.102 517.587C132.393 518.047 131.567 518.291 130.722 518.291H129.264V520.722C129.264 522.14 129.827 523.5 130.83 524.503C131.833 525.506 133.193 526.069 134.611 526.069H159.889C161.307 526.069 162.667 525.506 163.67 524.503C164.673 523.5 165.236 522.14 165.236 520.722V501.277C165.236 499.859 164.673 498.499 163.67 497.496C162.667 496.494 161.307 495.93 159.889 495.93H134.611ZM139.309 503.953C138.987 503.743 138.595 503.669 138.219 503.747C137.843 503.824 137.513 504.047 137.3 504.366C137.087 504.686 137.008 505.076 137.082 505.453C137.155 505.83 137.374 506.163 137.691 506.38L146.441 512.213C146.68 512.373 146.962 512.458 147.25 512.458C147.538 512.458 147.819 512.373 148.059 512.213L156.809 506.38C157.126 506.163 157.345 505.83 157.418 505.453C157.491 505.076 157.413 504.686 157.2 504.366C156.987 504.047 156.656 503.824 156.28 503.747C155.904 503.669 155.513 503.743 155.191 503.953L147.25 509.248L139.309 503.953Z" fill="#FFD532"/>
<path fill-rule="evenodd" clip-rule="evenodd" d="M132.181 513.916C132.181 514.303 132.027 514.674 131.754 514.947C131.48 515.221 131.109 515.375 130.722 515.375H126.834C126.447 515.375 126.076 515.221 125.802 514.947C125.529 514.674 125.375 514.303 125.375 513.916C125.375 513.529 125.529 513.158 125.802 512.885C126.076 512.611 126.447 512.458 126.834 512.458H130.722C131.109 512.458 131.48 512.611 131.754 512.885C132.027 513.158 132.181 513.529 132.181 513.916ZM132.181 508.083C132.181 508.47 132.027 508.841 131.754 509.114C131.48 509.388 131.109 509.541 130.722 509.541H122.945C122.558 509.541 122.187 509.388 121.913 509.114C121.64 508.841 121.486 508.47 121.486 508.083C121.486 507.696 121.64 507.325 121.913 507.052C122.187 506.778 122.558 506.625 122.945 506.625H130.722C131.109 506.625 131.48 506.778 131.754 507.052C132.027 507.325 132.181 507.696 132.181 508.083Z" fill="#FFD532"/>
<path fill-rule="evenodd" clip-rule="evenodd" d="M142.067 560.895C143.822 560.085 145.733 559.665 147.667 559.667C150.01 559.666 152.311 560.283 154.34 561.456C156.368 562.628 158.052 564.314 159.222 566.344H157.992C156.908 566.344 156.03 566.76 156.03 567.844C156.03 568.394 156.03 571.244 152.653 571.19C149.367 571.19 149.367 568.304 149.367 567.844C149.367 565.462 148.055 565.094 146.447 564.639C145.823 564.464 145.157 564.275 144.503 563.954C142.83 563.125 142.257 561.982 142.067 560.895ZM137.667 559.667C135.73 561.125 134.132 562.984 132.98 565.117C131.677 567.54 130.997 570.249 131 573C131 581.815 137.843 589.032 146.507 589.627L146.597 589.634C147.238 589.674 147.88 589.678 148.522 589.645H148.525C149.365 589.603 150.201 589.497 151.025 589.329C152.326 589.061 153.59 588.639 154.79 588.072C158.556 586.285 161.52 583.157 163.102 579.3C163.921 577.301 164.339 575.161 164.333 573C164.335 571.595 164.158 570.195 163.808 568.834C162.884 565.255 160.797 562.085 157.875 559.823C154.953 557.56 151.362 556.333 147.667 556.334C144.06 556.329 140.549 557.499 137.667 559.667ZM159.953 578.189C159.548 578.066 159.127 578.003 158.703 578.002H158.342C156.837 578.002 155.394 578.6 154.329 579.663C153.265 580.727 152.667 582.17 152.667 583.675V585.365C155.95 584.032 158.571 581.452 159.953 578.189ZM147.857 586.334H147.667C145.318 586.334 143.011 585.714 140.979 584.536C138.947 583.358 137.262 581.664 136.095 579.626C134.927 577.587 134.319 575.277 134.332 572.928C134.345 570.579 134.978 568.276 136.167 566.25C137.75 567.152 138.535 568.812 139.225 570.275C139.573 571.01 139.897 571.697 140.287 572.212C141.187 573.399 142.058 573.91 142.938 574.425C143.805 574.934 144.683 575.447 145.605 576.619C148.005 579.66 147.97 583.895 147.855 586.332L147.857 586.334Z" fill="#FFD532"/>
<rect x="974" y="244.642" width="415.272" height="415.272" transform="rotate(-45 974 244.642)" fill="#FFD532"/>
<rect x="800.266" y="652.196" width="371.148" height="371.148" transform="rotate(-45 800.266 652.196)" fill="#FFD532"/>
<path d="M837 359.806L934.806 262L1032.61 359.806L934.806 457.612L837 359.806Z" fill="white"/>
<rect x="941" y="31.8057" width="138.318" height="138.318" transform="rotate(-45 941 31.8057)" fill="white"/>
</g>
<defs>
<clipPath id="clip0_139_151">
<rect width="1270" height="726" fill="white"/>
</clipPath>
<clipPath id="clip1_139_151">
<rect width="188" height="68" fill="white" transform="translate(145 97)"/>
</clipPath>
<clipPath id="clip2_139_151">
<rect width="37.3333" height="37.3333" fill="white" transform="translate(129 421)"/>
</clipPath>
</defs>
</svg>
