<svg width="793" height="358" viewBox="0 0 793 358" fill="none" xmlns="http://www.w3.org/2000/svg">
<path d="M191.108 279.631C200.403 296.294 211.994 311.687 225.624 325.327C232.474 332.183 239.767 338.524 247.441 344.317C231.644 350.881 214.915 355.174 197.751 356.998C165.619 360.415 133.161 355.055 103.828 341.489C74.4956 327.923 49.3829 306.658 31.1588 279.952C12.9348 253.247 2.28009 222.099 0.327041 189.819C-1.62601 157.539 5.19549 125.332 20.0667 96.621C34.9379 67.91 57.3033 43.7673 84.7862 26.7583C112.269 9.74927 143.843 0.50942 176.153 0.0204828C200.195 -0.343335 223.976 4.1483 246.102 13.1329C223.154 30.7478 204.155 52.944 190.293 78.2728C186.003 77.7849 181.672 77.5704 177.325 77.6362C159.027 77.9131 141.145 83.1461 125.581 92.779C110.016 102.412 97.3494 116.085 88.9272 132.345C80.505 148.606 76.6417 166.846 77.7478 185.127C78.8539 203.409 84.8881 221.049 95.2091 236.174C105.53 251.298 119.753 263.342 136.365 271.024C152.978 278.708 171.359 281.743 189.557 279.808C189.871 279.775 190.184 279.74 190.498 279.704C190.701 279.68 190.905 279.656 191.108 279.631Z" fill="#1E1E1E"/>
<path d="M391.079 0.0605022C357.331 0.938659 324.484 11.3609 296.362 30.1669C266.949 49.8357 244.024 77.7917 230.487 110.5C216.95 143.208 213.408 179.199 220.309 213.921C227.21 248.644 244.245 280.539 269.258 305.572C294.272 330.606 326.141 347.654 360.836 354.56C395.531 361.467 431.493 357.922 464.175 344.374C496.856 330.826 524.79 307.883 544.443 278.447C553.126 265.441 560.021 251.426 565.012 236.779C556.148 242.92 545.391 246.517 533.794 246.517C514.511 246.517 497.549 236.57 487.752 221.522C485.544 226.309 482.957 230.936 480.005 235.357C468.868 252.038 453.038 265.04 434.517 272.718C415.996 280.395 395.617 282.404 375.955 278.49C356.294 274.576 338.233 264.915 324.058 250.728C309.883 236.542 300.229 218.467 296.319 198.79C292.408 179.113 294.415 158.716 302.086 140.181C309.758 121.645 322.749 105.803 339.418 94.6563C356.086 83.51 375.682 77.5607 395.729 77.5607V77.5034H614.11V77.5212C640.108 77.5212 665.113 87.5118 683.963 105.43C702.813 123.349 714.069 147.827 715.406 173.811C716.744 199.795 708.06 225.301 691.15 245.063C674.663 264.329 651.585 276.701 626.476 279.787H617.954C607.311 302.677 577.704 350.223 544.413 357.29H632.696L632.72 357.094C678.24 352.329 720.207 330.284 749.982 295.489C779.807 260.635 795.122 215.651 792.763 169.824C790.405 123.996 770.553 80.8247 737.308 49.2224C704.437 17.9761 660.954 0.398775 615.659 0.00671721V0H391.079V0.0605022Z" fill="#1E1E1E"/>
<path d="M576.164 183.295C576.164 205.768 557.961 223.985 535.507 223.985C513.053 223.985 494.85 205.768 494.85 183.295C494.85 160.823 513.053 142.606 535.507 142.606C557.961 142.606 576.164 160.823 576.164 183.295Z" fill="#2BFD98"/>
</svg>
