<svg width="6217" height="2176" viewBox="0 0 6217 2176" fill="none" xmlns="http://www.w3.org/2000/svg">
<path d="M1047.42 1307.24C1064.12 1337.17 1084.95 1364.82 1109.44 1389.32C1121.75 1401.63 1134.86 1413.02 1148.65 1423.42C1120.26 1435.21 1090.2 1442.92 1059.35 1446.2C1001.61 1452.34 943.287 1442.71 890.577 1418.34C837.867 1393.98 792.74 1355.78 759.992 1307.82C727.243 1259.85 708.097 1203.91 704.588 1145.93C701.078 1087.95 713.336 1030.11 740.059 978.54C766.783 926.972 806.972 883.61 856.359 853.06C905.745 822.511 962.482 805.915 1020.54 805.037C1063.74 804.383 1106.48 812.451 1146.24 828.588C1105 860.226 1070.86 900.092 1045.95 945.585C1038.24 944.709 1030.46 944.323 1022.65 944.442C989.767 944.939 957.635 954.338 929.665 971.639C901.696 988.941 878.934 1013.5 863.8 1042.7C848.665 1071.91 841.723 1104.67 843.711 1137.5C845.698 1170.34 856.542 1202.02 875.088 1229.19C893.635 1256.35 919.192 1277.98 949.044 1291.78C978.897 1305.58 1011.93 1311.04 1044.63 1307.56C1045.19 1307.5 1045.76 1307.44 1046.32 1307.37C1046.68 1307.33 1047.05 1307.29 1047.42 1307.24Z" fill="white"/>
<path d="M1406.76 805.109C1346.11 806.686 1287.09 825.405 1236.55 859.183C1183.7 894.509 1142.51 944.721 1118.18 1003.47C1093.85 1062.21 1087.49 1126.86 1099.89 1189.22C1112.29 1251.59 1142.9 1308.87 1187.85 1353.83C1232.8 1398.8 1290.07 1429.42 1352.41 1441.82C1414.76 1454.23 1479.38 1447.86 1538.11 1423.53C1596.84 1399.19 1647.03 1357.99 1682.35 1305.12C1697.95 1281.76 1710.34 1256.58 1719.31 1230.28C1703.38 1241.31 1684.05 1247.77 1663.21 1247.77C1628.56 1247.77 1598.08 1229.9 1580.48 1202.87C1576.51 1211.47 1571.86 1219.78 1566.56 1227.72C1546.54 1257.68 1518.1 1281.04 1484.82 1294.83C1451.53 1308.62 1414.91 1312.22 1379.58 1305.19C1344.25 1298.16 1311.8 1280.81 1286.32 1255.33C1260.85 1229.85 1243.5 1197.39 1236.48 1162.04C1229.45 1126.7 1233.06 1090.07 1246.84 1056.78C1260.63 1023.49 1283.97 995.031 1313.92 975.011C1343.88 954.991 1379.09 944.306 1415.11 944.306V944.203H1807.54V944.235C1854.26 944.235 1899.19 962.179 1933.06 994.362C1966.94 1026.55 1987.16 1070.51 1989.57 1117.18C1991.97 1163.85 1976.37 1209.66 1945.98 1245.16C1916.35 1279.76 1874.88 1301.98 1829.76 1307.52H1814.45C1795.32 1348.63 1742.12 1434.03 1682.3 1446.73H1840.94L1840.98 1446.37C1922.78 1437.81 1998.19 1398.22 2051.7 1335.72C2105.29 1273.12 2132.81 1192.33 2128.57 1110.02C2124.34 1027.71 2088.66 950.168 2028.92 893.408C1969.86 837.287 1891.72 805.716 1810.32 805.012V805H1406.76V805.109Z" fill="white"/>
<path d="M1739.35 1134.21C1739.35 1174.58 1706.64 1207.3 1666.29 1207.3C1625.94 1207.3 1593.23 1174.58 1593.23 1134.21C1593.23 1093.85 1625.94 1061.13 1666.29 1061.13C1706.64 1061.13 1739.35 1093.85 1739.35 1134.21Z" fill="#2BFD98"/>
<path d="M4716.02 833.605H4782.98V1076.05H4716.02V833.605Z" fill="white"/>
<path d="M4749.99 805.724C4740.28 805.724 4732.11 802.492 4725.48 796.026C4718.85 789.561 4715.53 781.561 4715.53 772.025C4715.53 762.488 4718.85 754.488 4725.48 748.023C4732.11 741.558 4740.2 738.325 4749.74 738.325C4759.29 738.325 4767.29 741.558 4773.76 748.023C4780.39 754.488 4783.71 762.488 4783.71 772.025C4783.71 781.561 4780.47 789.561 4774 796.026C4767.7 802.492 4759.69 805.724 4749.99 805.724Z" fill="white"/>
<path d="M4676.94 900.519H4633.27V1076.05H4566.31V900.519H4532.83V833.605H4566.31V757.478H4633.27V833.605H4676.94V900.519Z" fill="white"/>
<path d="M5064.14 1076.05V921.854C5064.14 904.237 5059.85 888.316 5051.28 874.093C5042.71 859.708 5031.22 848.233 5016.83 839.666C5002.59 831.1 4986.66 826.817 4969.03 826.817C4956.9 826.817 4945.34 828.999 4934.34 833.363C4923.5 837.727 4914.04 843.788 4905.95 851.546L4905.71 833.605H4838.75L4838.99 1076.05H4905.95V940.28C4905.95 931.714 4907.97 924.036 4912.02 917.248C4916.06 910.298 4921.56 904.803 4928.52 900.762C4935.47 896.721 4943.15 894.701 4951.56 894.701C4959.98 894.701 4967.58 896.721 4974.37 900.762C4981.33 904.803 4986.82 910.298 4990.87 917.248C4995.07 924.036 4997.18 931.714 4997.18 940.28V1076.05H5064.14Z" fill="white"/>
<path fill-rule="evenodd" clip-rule="evenodd" d="M5284.04 833.605H5351V1079.44C5351 1097.38 5347.36 1113.55 5340.08 1127.93C5332.8 1142.48 5322.86 1154.92 5310.24 1165.27C5297.79 1175.61 5283.39 1183.53 5267.06 1189.03C5250.88 1194.52 5233.74 1197.27 5215.62 1197.27C5198.48 1197.27 5182.06 1193.88 5166.37 1187.09C5150.68 1180.46 5136.77 1171.25 5124.64 1159.45C5112.51 1147.65 5103.05 1134.07 5096.25 1118.72L5157.39 1090.84C5160.79 1098.92 5165.4 1105.87 5171.22 1111.69C5177.21 1117.51 5184 1121.95 5191.6 1125.02C5199.37 1128.25 5207.37 1129.87 5215.62 1129.87C5224.52 1129.87 5233.01 1128.82 5241.1 1126.72C5249.34 1124.62 5256.7 1121.47 5263.17 1117.26C5269.64 1113.06 5274.74 1107.81 5278.46 1101.5C5282.18 1095.2 5284.04 1087.85 5284.04 1079.44V1051.32C5276.6 1060.53 5267.54 1068.05 5256.87 1073.87C5246.35 1079.52 5234.14 1082.35 5220.23 1082.35C5202.76 1082.35 5186.35 1079.04 5170.98 1072.41C5155.78 1065.78 5142.35 1056.65 5130.71 1045.02C5119.06 1033.22 5109.92 1019.64 5103.29 1004.29C5096.66 988.93 5093.34 972.444 5093.34 954.827C5093.34 937.209 5096.66 920.723 5103.29 905.368C5109.92 890.014 5119.06 876.518 5130.71 864.88C5142.35 853.081 5155.78 843.869 5170.98 837.242C5186.35 830.615 5202.76 827.302 5220.23 827.302C5234.14 827.302 5246.35 830.211 5256.87 836.03C5267.54 841.687 5276.6 849.121 5284.04 858.334V833.605ZM5221.2 1018.1C5232.2 1018.1 5242.15 1015.28 5251.04 1009.62C5259.94 1003.8 5266.89 996.123 5271.91 986.587C5277.08 977.051 5279.67 966.464 5279.67 954.827C5279.67 943.189 5277.08 932.603 5271.91 923.067C5266.89 913.369 5259.94 905.692 5251.04 900.035C5242.15 894.377 5232.2 891.549 5221.2 891.549C5210.36 891.549 5200.42 894.377 5191.36 900.035C5182.46 905.692 5175.35 913.369 5170.01 923.067C5164.67 932.603 5162 943.189 5162 954.827C5162 966.464 5164.67 977.131 5170.01 986.829C5175.35 996.365 5182.46 1003.96 5191.36 1009.62C5200.42 1015.28 5210.36 1018.1 5221.2 1018.1Z" fill="white"/>
<path fill-rule="evenodd" clip-rule="evenodd" d="M4171.1 1082.35C4148.78 1082.35 4128.4 1076.61 4109.96 1065.14C4091.68 1053.66 4077.04 1038.23 4066.05 1018.83C4055.21 999.436 4049.79 978.02 4049.79 954.584C4049.79 936.967 4052.94 920.481 4059.25 905.126C4065.56 889.609 4074.21 876.033 4085.21 864.395C4096.37 852.596 4109.31 843.384 4124.03 836.757C4138.75 830.13 4154.44 826.817 4171.1 826.817C4190.02 826.817 4207.33 830.857 4223.02 838.939C4238.87 846.859 4252.29 857.769 4263.29 871.669C4274.29 885.569 4282.3 901.408 4287.31 919.188C4292.33 936.967 4293.46 955.554 4290.71 974.949H4113.36C4115.62 984.001 4119.34 992.163 4124.52 999.436C4129.69 1006.55 4136.24 1012.29 4144.17 1016.65C4152.09 1020.85 4161.07 1023.03 4171.1 1023.2C4181.45 1023.36 4190.83 1020.93 4199.24 1015.92C4207.81 1010.75 4214.93 1003.8 4220.59 995.072L4281 1009.13C4271.14 1030.63 4256.42 1048.25 4236.85 1061.99C4217.28 1075.56 4195.36 1082.35 4171.1 1082.35ZM4230.78 930.582C4229 920.885 4225.2 912.157 4219.38 904.399C4213.72 896.479 4206.68 890.175 4198.27 885.488C4189.86 880.801 4180.8 878.457 4171.1 878.457C4161.39 878.457 4152.42 880.801 4144.17 885.488C4135.92 890.014 4128.88 896.236 4123.06 904.156C4117.4 911.914 4113.52 920.723 4111.42 930.582H4230.78Z" fill="white"/>
<path fill-rule="evenodd" clip-rule="evenodd" d="M3203.22 840.612C3217.94 834.521 3233.7 831.357 3249.62 831.297L3250.09 831.296H3444.64V831.492C3458.35 832.269 3471.85 835.347 3484.57 840.612C3499.43 846.762 3512.93 855.776 3524.3 867.139C3535.67 878.503 3544.69 891.994 3550.85 906.841C3557 921.688 3560.17 937.602 3560.17 953.672C3560.17 969.743 3557 985.656 3550.85 1000.5C3544.69 1015.35 3535.67 1028.84 3524.3 1040.21C3512.93 1051.57 3499.43 1060.58 3484.57 1066.73C3471.85 1072 3458.35 1075.08 3444.64 1075.85V1076.05H3249.62C3233.7 1075.99 3217.94 1072.82 3203.22 1066.73C3188.36 1060.58 3174.86 1051.57 3163.49 1040.21C3152.12 1028.84 3143.1 1015.35 3136.94 1000.5C3130.79 985.656 3127.62 969.743 3127.62 953.672C3127.62 937.602 3130.79 921.688 3136.94 906.841C3143.1 891.994 3152.12 878.503 3163.49 867.139C3174.86 855.776 3188.36 846.762 3203.22 840.612ZM3249.62 1008.69V1008.63H3440.48C3446.77 1008.31 3452.95 1006.92 3458.78 1004.51C3465.46 1001.74 3471.53 997.689 3476.64 992.58C3481.76 987.47 3485.81 981.405 3488.58 974.729C3491.35 968.053 3492.77 960.898 3492.77 953.672C3492.77 946.446 3491.35 939.291 3488.58 932.616C3485.81 925.94 3481.76 919.874 3476.64 914.765C3471.53 909.655 3465.46 905.602 3458.78 902.837C3452.95 900.426 3446.77 899.035 3440.48 898.719H3249.62V898.651C3242.55 898.71 3235.55 900.131 3229.01 902.837C3222.33 905.602 3216.26 909.655 3211.15 914.765C3206.04 919.874 3201.98 925.94 3199.21 932.616C3196.45 939.291 3195.02 946.446 3195.02 953.672C3195.02 960.898 3196.45 968.053 3199.21 974.729C3201.98 981.405 3206.04 987.47 3211.15 992.58C3216.26 997.689 3222.33 1001.74 3229.01 1004.51C3235.55 1007.21 3242.55 1008.63 3249.62 1008.69Z" fill="white"/>
<path d="M3125.69 849.793C3106.32 838.12 3083.94 831.954 3061 832.229C3029.84 832.602 2999.99 844.831 2977.54 866.426C2955.09 888.021 2941.72 917.357 2940.15 948.458C2938.59 979.558 2948.95 1010.08 2969.13 1033.82C2989.3 1057.55 3017.77 1072.71 3048.73 1076.2C3076.51 1079.33 3104.42 1072.87 3127.89 1058.04C3115.57 1045.2 3105.57 1030.73 3098.25 1015.13C3096.04 1010.42 3094.08 1005.64 3092.39 1000.79C3081.73 1007.68 3068.98 1010.7 3056.29 1009.27C3042.37 1007.7 3029.57 1000.89 3020.5 990.217C3011.43 979.545 3006.77 965.82 3007.47 951.836C3008.17 937.852 3014.18 924.662 3024.28 914.952C3034.37 905.243 3047.79 899.744 3061.8 899.576C3072.3 899.45 3082.54 902.325 3091.36 907.757C3093.28 901.862 3095.57 896.055 3098.25 890.366C3105.13 875.71 3114.38 862.046 3125.69 849.793Z" fill="white"/>
<path fill-rule="evenodd" clip-rule="evenodd" d="M4876.69 1151.18H4943.65V1393.63H4876.45L4873.3 1368.41C4866.99 1377.79 4858.9 1385.38 4849.03 1391.2C4839.17 1397.02 4827.6 1399.93 4814.34 1399.93C4796.23 1399.93 4779.32 1396.53 4763.63 1389.75C4747.94 1382.96 4734.12 1373.58 4722.15 1361.62C4710.18 1349.66 4700.8 1335.84 4694 1320.17C4687.37 1304.33 4684.06 1287.35 4684.06 1269.25C4684.06 1251.96 4687.21 1235.8 4693.52 1220.76C4699.83 1205.73 4708.72 1192.48 4720.21 1181C4731.69 1169.53 4744.87 1160.56 4759.75 1154.09C4774.79 1147.63 4790.97 1144.39 4808.28 1144.39C4823.16 1144.39 4836.5 1147.55 4848.31 1153.85C4860.28 1160.15 4870.71 1168.15 4879.6 1177.85L4876.69 1151.18ZM4812.64 1335.68C4823.64 1335.68 4833.59 1332.85 4842.48 1327.2C4851.38 1321.54 4858.42 1313.94 4863.59 1304.41C4868.77 1294.71 4871.35 1284.04 4871.35 1272.4C4871.35 1260.61 4868.77 1249.94 4863.59 1240.4C4858.42 1230.87 4851.38 1223.27 4842.48 1217.61C4833.59 1211.95 4823.64 1209.13 4812.64 1209.13C4801.48 1209.13 4791.37 1211.95 4782.32 1217.61C4773.26 1223.27 4766.06 1230.95 4760.72 1240.64C4755.39 1250.18 4752.72 1260.77 4752.72 1272.4C4752.72 1284.04 4755.39 1294.71 4760.72 1304.41C4766.22 1313.94 4773.5 1321.54 4782.56 1327.2C4791.62 1332.85 4801.64 1335.68 4812.64 1335.68Z" fill="white"/>
<path d="M4992.89 1393.63V1150.72H5059.85V1393.63H4992.89Z" fill="white"/>
<path d="M4438.12 831.305C4461.06 831.03 4483.45 837.197 4502.82 848.869C4491.51 861.123 4482.25 874.786 4475.38 889.442C4472.7 895.132 4470.41 900.938 4468.49 906.834C4459.67 901.402 4449.43 898.527 4438.93 898.653C4424.92 898.82 4411.5 904.319 4401.41 914.029C4391.31 923.738 4385.3 936.929 4384.6 950.912C4383.9 964.896 4388.55 978.622 4397.63 989.293C4406.7 999.965 4419.5 1006.78 4433.42 1008.35C4446.11 1009.78 4458.86 1006.76 4469.52 999.862C4471.21 1004.71 4473.17 1009.5 4475.38 1014.21C4482.7 1029.8 4492.7 1044.27 4505.02 1057.12C4481.55 1071.94 4453.64 1078.41 4425.86 1075.28C4394.9 1071.79 4366.43 1056.63 4346.25 1032.9C4326.08 1009.16 4315.72 978.635 4317.28 947.534C4318.85 916.433 4332.22 887.098 4354.67 865.503C4377.12 843.908 4406.96 831.678 4438.12 831.305Z" fill="white"/>
<path d="M3478.18 1144.47C3454.11 1145.28 3430.72 1152.78 3410.65 1166.19C3389.37 1180.39 3372.78 1200.59 3362.99 1224.21C3353.19 1247.84 3350.63 1273.84 3355.63 1298.92C3360.62 1324.01 3372.94 1347.04 3391.04 1365.13C3409.13 1383.21 3432.19 1395.53 3457.29 1400.52C3482.39 1405.5 3508.41 1402.94 3532.05 1393.16C3555.69 1383.37 3575.9 1366.8 3590.12 1345.53C3596.4 1336.14 3601.39 1326.01 3605 1315.43C3598.59 1319.87 3590.81 1322.47 3582.42 1322.47C3561.73 1322.47 3544.73 1306.66 3542.86 1286.48C3541.24 1294.1 3538.19 1301.39 3533.81 1307.93C3527.03 1318.07 3517.4 1325.97 3506.13 1330.63C3494.86 1335.3 3482.47 1336.52 3470.5 1334.14C3458.54 1331.76 3447.55 1325.89 3438.93 1317.27C3430.3 1308.65 3424.43 1297.67 3422.05 1285.72C3419.67 1273.77 3420.89 1261.37 3425.56 1250.11C3430.23 1238.85 3438.13 1229.23 3448.27 1222.46C3458.41 1215.69 3470.34 1212.07 3482.53 1212.07V1211.82H4519.35V1211.84C4526.69 1211.84 4533.95 1213.28 4540.73 1216.09C4547.52 1218.9 4553.68 1223.01 4558.87 1228.2C4564.06 1233.39 4568.18 1239.54 4570.98 1246.32C4573.79 1253.1 4575.24 1260.36 4575.24 1267.69C4575.24 1275.03 4573.79 1282.29 4570.98 1289.07C4568.18 1295.85 4564.06 1302 4558.87 1307.19C4553.68 1312.38 4547.52 1316.49 4540.73 1319.3C4533.95 1322.1 4526.69 1323.55 4519.35 1323.55V1323.57H3675.88C3670.64 1343.48 3656.05 1384.84 3639.66 1390.99H4519.81C4535.85 1390.93 4551.74 1387.75 4566.56 1381.61C4581.53 1375.41 4595.14 1366.33 4606.59 1354.88C4618.05 1343.43 4627.14 1329.84 4633.34 1314.88C4639.54 1299.92 4642.73 1283.89 4642.73 1267.69C4642.73 1251.5 4639.54 1235.47 4633.34 1220.51C4627.14 1205.55 4618.05 1191.96 4606.59 1180.51C4595.14 1169.06 4581.53 1159.98 4566.56 1153.78C4551.78 1147.66 4535.95 1144.48 4519.96 1144.39H3478.18V1144.47Z" fill="white"/>
<path d="M3583.28 1023.82V1076.05H3650.74V900.566H3688.58V900.582C3692.23 900.582 3695.84 901.31 3699.21 902.725C3702.59 904.14 3705.65 906.214 3708.23 908.828C3710.81 911.442 3712.86 914.546 3714.25 917.961C3715.65 921.377 3716.37 925.038 3716.37 928.735H3716.39V1076.05H3784.76V928.273H3784.76C3784.7 915.635 3782.22 903.127 3777.44 891.447C3772.61 879.625 3765.52 868.884 3756.59 859.835C3747.66 850.787 3737.06 843.61 3725.39 838.713C3714.42 834.111 3702.71 831.608 3690.86 831.324V831.296H3583.28V881.673C3584.84 884.528 3586.32 887.427 3587.7 890.366C3596.98 910.144 3601.76 931.341 3601.76 952.749C3601.76 974.156 3596.98 995.354 3587.7 1015.13C3586.32 1018.07 3584.84 1020.97 3583.28 1023.82Z" fill="white"/>
<path d="M4014.05 891.447C4014.44 892.395 4014.81 893.348 4015.17 894.306C4007.05 912.947 4002.89 932.756 4002.89 952.749C4002.89 974.156 4007.66 995.354 4016.95 1015.13C4018.33 1018.07 4019.8 1020.97 4021.37 1023.82V1076.05H3952.99V928.735H3952.98C3952.98 925.038 3952.26 921.377 3950.86 917.961C3949.46 914.546 3947.42 911.442 3944.84 908.828C3942.26 906.214 3939.19 904.14 3935.82 902.725C3932.45 901.31 3928.84 900.582 3925.19 900.582V900.566H3887.35V1076.05H3819.88V831.296H3927.46V831.324C3939.32 831.608 3951.03 834.111 3961.99 838.713C3973.66 843.61 3984.27 850.787 3993.2 859.835C4002.13 868.884 4009.21 879.625 4014.05 891.447Z" fill="white"/>
<path d="M4795.06 760.18C4795.06 785.684 4774.97 806.359 4750.19 806.359C4725.4 806.359 4705.31 785.684 4705.31 760.18C4705.31 734.675 4725.4 714 4750.19 714C4774.97 714 4795.06 734.675 4795.06 760.18Z" fill="#2BFD98"/>
<path d="M3614.68 1275.32C3614.68 1289.94 3603.05 1301.78 3588.7 1301.78C3574.35 1301.78 3562.71 1289.94 3562.71 1275.32C3562.71 1260.7 3574.35 1248.86 3588.7 1248.86C3603.05 1248.86 3614.68 1260.7 3614.68 1275.32Z" fill="#2BFD98"/>
</svg>
