<svg width="3933" height="1613" viewBox="0 0 3933 1613" fill="none" xmlns="http://www.w3.org/2000/svg">
<rect width="3933" height="1613" fill="black"/>
<path d="M2519.02 550.605H2585.98V793.048H2519.02V550.605Z" fill="white"/>
<path d="M2552.99 522.724C2543.28 522.724 2535.11 519.492 2528.48 513.026C2521.85 506.561 2518.53 498.561 2518.53 489.025C2518.53 479.488 2521.85 471.488 2528.48 465.023C2535.11 458.558 2543.2 455.325 2552.74 455.325C2562.29 455.325 2570.29 458.558 2576.76 465.023C2583.39 471.488 2586.71 479.488 2586.71 489.025C2586.71 498.561 2583.47 506.561 2577 513.026C2570.7 519.492 2562.69 522.724 2552.99 522.724Z" fill="white"/>
<path d="M2479.94 617.519H2436.27V793.048H2369.31V617.519H2335.83V550.605H2369.31V474.478H2436.27V550.605H2479.94V617.519Z" fill="white"/>
<path d="M2867.14 793.048V638.854C2867.14 621.237 2862.85 605.316 2854.28 591.093C2845.71 576.708 2834.22 565.233 2819.83 556.666C2805.59 548.1 2789.66 543.817 2772.03 543.817C2759.9 543.817 2748.34 545.999 2737.34 550.363C2726.5 554.727 2717.04 560.788 2708.95 568.546L2708.71 550.605H2641.75L2641.99 793.048H2708.95V657.28C2708.95 648.714 2710.97 641.036 2715.02 634.248C2719.06 627.298 2724.56 621.803 2731.52 617.762C2738.47 613.721 2746.15 611.701 2754.56 611.701C2762.98 611.701 2770.58 613.721 2777.37 617.762C2784.33 621.803 2789.82 627.298 2793.87 634.248C2798.07 641.036 2800.18 648.714 2800.18 657.28V793.048H2867.14Z" fill="white"/>
<path fill-rule="evenodd" clip-rule="evenodd" d="M3087.04 550.605H3154V796.442C3154 814.383 3150.36 830.546 3143.08 844.931C3135.8 859.478 3125.86 871.923 3113.24 882.267C3100.79 892.611 3086.39 900.531 3070.06 906.027C3053.88 911.522 3036.74 914.27 3018.62 914.27C3001.48 914.27 2985.06 910.875 2969.37 904.087C2953.68 897.46 2939.77 888.247 2927.64 876.449C2915.51 864.65 2906.05 851.073 2899.25 835.718L2960.39 807.837C2963.79 815.919 2968.4 822.869 2974.22 828.687C2980.21 834.506 2987 838.951 2994.6 842.022C3002.37 845.254 3010.37 846.871 3018.62 846.871C3027.52 846.871 3036.01 845.82 3044.1 843.719C3052.34 841.618 3059.7 838.466 3066.17 834.263C3072.64 830.061 3077.74 824.808 3081.46 818.505C3085.18 812.201 3087.04 804.847 3087.04 796.442V768.319C3079.6 777.532 3070.54 785.048 3059.87 790.866C3049.35 796.523 3037.14 799.352 3023.23 799.352C3005.76 799.352 2989.35 796.038 2973.98 789.412C2958.78 782.785 2945.35 773.653 2933.71 762.015C2922.06 750.217 2912.92 736.64 2906.29 721.285C2899.66 705.93 2896.34 689.444 2896.34 671.827C2896.34 654.209 2899.66 637.723 2906.29 622.368C2912.92 607.014 2922.06 593.518 2933.71 581.88C2945.35 570.081 2958.78 560.869 2973.98 554.242C2989.35 547.615 3005.76 544.302 3023.23 544.302C3037.14 544.302 3049.35 547.211 3059.87 553.03C3070.54 558.687 3079.6 566.121 3087.04 575.334V550.605ZM3024.2 735.104C3035.2 735.104 3045.15 732.276 3054.04 726.619C3062.94 720.8 3069.89 713.123 3074.91 703.587C3080.08 694.051 3082.67 683.464 3082.67 671.827C3082.67 660.189 3080.08 649.603 3074.91 640.067C3069.89 630.369 3062.94 622.692 3054.04 617.035C3045.15 611.377 3035.2 608.549 3024.2 608.549C3013.36 608.549 3003.42 611.377 2994.36 617.035C2985.46 622.692 2978.35 630.369 2973.01 640.067C2967.67 649.603 2965 660.189 2965 671.827C2965 683.464 2967.67 694.131 2973.01 703.829C2978.35 713.365 2985.46 720.962 2994.36 726.619C3003.42 732.276 3013.36 735.104 3024.2 735.104Z" fill="white"/>
<path fill-rule="evenodd" clip-rule="evenodd" d="M1974.1 799.352C1951.78 799.352 1931.4 793.614 1912.96 782.138C1894.68 770.663 1880.04 755.227 1869.05 735.832C1858.21 716.436 1852.79 695.02 1852.79 671.584C1852.79 653.967 1855.94 637.481 1862.25 622.126C1868.56 606.609 1877.21 593.033 1888.21 581.395C1899.37 569.596 1912.31 560.384 1927.03 553.757C1941.75 547.13 1957.44 543.817 1974.1 543.817C1993.02 543.817 2010.33 547.857 2026.02 555.939C2041.87 563.859 2055.29 574.769 2066.29 588.669C2077.29 602.569 2085.3 618.408 2090.31 636.188C2095.33 653.967 2096.46 672.554 2093.71 691.949H1916.36C1918.62 701.001 1922.34 709.163 1927.52 716.436C1932.69 723.548 1939.24 729.286 1947.17 733.65C1955.09 737.852 1964.07 740.034 1974.1 740.196C1984.45 740.357 1993.83 737.933 2002.24 732.922C2010.81 727.75 2017.93 720.8 2023.59 712.072L2084 726.134C2074.14 747.631 2059.42 765.248 2039.85 778.986C2020.28 792.563 1998.36 799.352 1974.1 799.352ZM2033.78 647.582C2032 637.885 2028.2 629.157 2022.38 621.399C2016.72 613.479 2009.68 607.175 2001.27 602.488C1992.86 597.801 1983.8 595.457 1974.1 595.457C1964.39 595.457 1955.42 597.801 1947.17 602.488C1938.92 607.014 1931.88 613.236 1926.06 621.156C1920.4 628.914 1916.52 637.723 1914.42 647.582H2033.78Z" fill="white"/>
<path fill-rule="evenodd" clip-rule="evenodd" d="M1006.22 557.612C1020.94 551.521 1036.7 548.357 1052.62 548.297L1053.09 548.296H1247.64V548.492C1261.35 549.269 1274.85 552.347 1287.57 557.612C1302.43 563.762 1315.93 572.776 1327.3 584.139C1338.67 595.503 1347.69 608.994 1353.85 623.841C1360 638.688 1363.17 654.602 1363.17 670.672C1363.17 686.743 1360 702.656 1353.85 717.504C1347.69 732.351 1338.67 745.841 1327.3 757.205C1315.93 768.569 1302.43 777.583 1287.57 783.733C1274.85 788.998 1261.35 792.075 1247.64 792.852V793.048H1052.62C1036.7 792.988 1020.94 789.824 1006.22 783.733C991.363 777.583 977.863 768.569 966.491 757.205C955.119 745.841 946.099 732.351 939.944 717.504C933.79 702.656 930.622 686.743 930.622 670.672C930.622 654.602 933.79 638.688 939.944 623.841C946.099 608.994 955.119 595.503 966.491 584.139C977.863 572.776 991.363 563.762 1006.22 557.612ZM1052.62 725.694V725.626H1243.48C1249.77 725.309 1255.95 723.918 1261.78 721.507C1268.46 718.742 1274.53 714.689 1279.64 709.58C1284.76 704.47 1288.81 698.405 1291.58 691.729C1294.35 685.053 1295.77 677.898 1295.77 670.672C1295.77 663.446 1294.35 656.291 1291.58 649.616C1288.81 642.94 1284.76 636.874 1279.64 631.765C1274.53 626.655 1268.46 622.602 1261.78 619.837C1255.95 617.426 1249.77 616.035 1243.48 615.719H1052.62V615.651C1045.55 615.71 1038.55 617.131 1032.01 619.837C1025.33 622.602 1019.26 626.655 1014.15 631.765C1009.04 636.874 1004.98 642.94 1002.21 649.616C999.447 656.291 998.023 663.446 998.023 670.672C998.023 677.898 999.447 685.053 1002.21 691.729C1004.98 698.405 1009.04 704.47 1014.15 709.58C1019.26 714.689 1025.33 718.742 1032.01 721.507C1038.55 724.214 1045.55 725.635 1052.62 725.694Z" fill="white"/>
<path d="M928.692 566.793C909.317 555.12 886.935 548.954 863.995 549.229C832.835 549.602 802.99 561.831 780.538 583.426C758.086 605.021 744.717 634.357 743.154 665.458C741.591 696.558 751.952 727.085 772.125 750.819C792.299 774.553 820.768 789.709 851.733 793.2C879.511 796.332 907.423 789.866 930.891 775.042C918.575 762.198 908.566 747.726 901.245 732.131C899.036 727.424 897.082 722.637 895.386 717.786C884.731 724.679 871.979 727.703 859.29 726.273C845.367 724.703 832.566 717.888 823.496 707.217C814.425 696.545 809.767 682.82 810.47 668.836C811.172 654.852 817.183 641.662 827.278 631.952C837.373 622.243 850.793 616.744 864.803 616.576C875.302 616.45 885.541 619.325 894.359 624.757C896.277 618.862 898.575 613.055 901.245 607.366C908.125 592.71 917.38 579.046 928.692 566.793Z" fill="white"/>
<path fill-rule="evenodd" clip-rule="evenodd" d="M2679.69 868.182H2746.65V1110.63H2679.45L2676.3 1085.41C2669.99 1094.79 2661.9 1102.38 2652.03 1108.2C2642.17 1114.02 2630.6 1116.93 2617.34 1116.93C2599.23 1116.93 2582.32 1113.53 2566.63 1106.75C2550.94 1099.96 2537.12 1090.58 2525.15 1078.62C2513.18 1066.66 2503.8 1052.84 2497 1037.17C2490.37 1021.33 2487.06 1004.35 2487.06 986.252C2487.06 968.958 2490.21 952.795 2496.52 937.764C2502.83 922.732 2511.72 909.479 2523.21 898.003C2534.69 886.527 2547.87 877.557 2562.75 871.092C2577.79 864.627 2593.97 861.394 2611.28 861.394C2626.16 861.394 2639.5 864.546 2651.31 870.849C2663.28 877.153 2673.71 885.154 2682.6 894.851L2679.69 868.182ZM2615.64 1052.68C2626.64 1052.68 2636.59 1049.85 2645.48 1044.2C2654.38 1038.54 2661.42 1030.94 2666.59 1021.41C2671.77 1011.71 2674.35 1001.04 2674.35 989.404C2674.35 977.605 2671.77 966.938 2666.59 957.402C2661.42 947.865 2654.38 940.269 2645.48 934.612C2636.59 928.955 2626.64 926.126 2615.64 926.126C2604.48 926.126 2594.37 928.955 2585.32 934.612C2576.26 940.269 2569.06 947.946 2563.72 957.644C2558.39 967.18 2555.72 977.767 2555.72 989.404C2555.72 1001.04 2558.39 1011.71 2563.72 1021.41C2569.22 1030.94 2576.5 1038.54 2585.56 1044.2C2594.62 1049.85 2604.64 1052.68 2615.64 1052.68Z" fill="white"/>
<path d="M2795.89 1110.63V867.721H2862.85V1110.63H2795.89Z" fill="white"/>
<path d="M2241.12 548.305C2264.06 548.03 2286.45 554.197 2305.82 565.869C2294.51 578.123 2285.25 591.786 2278.38 606.442C2275.7 612.132 2273.41 617.938 2271.49 623.834C2262.67 618.402 2252.43 615.527 2241.93 615.653C2227.92 615.82 2214.5 621.319 2204.41 631.029C2194.31 640.738 2188.3 653.929 2187.6 667.912C2186.9 681.896 2191.55 695.622 2200.63 706.293C2209.7 716.965 2222.5 723.779 2236.42 725.349C2249.11 726.78 2261.86 723.756 2272.52 716.862C2274.21 721.713 2276.17 726.501 2278.38 731.208C2285.7 746.803 2295.7 761.274 2308.02 774.119C2284.55 788.942 2256.64 795.408 2228.86 792.277C2197.9 788.786 2169.43 773.629 2149.25 749.895C2129.08 726.161 2118.72 695.635 2120.28 664.534C2121.85 633.433 2135.22 604.098 2157.67 582.503C2180.12 560.908 2209.96 548.678 2241.12 548.305Z" fill="white"/>
<path d="M1281.18 861.467C1257.11 862.277 1233.72 869.784 1213.65 883.186C1192.37 897.394 1175.78 917.588 1165.99 941.215C1156.19 964.842 1153.63 990.84 1158.63 1015.92C1163.62 1041.01 1175.94 1064.04 1194.04 1082.13C1212.13 1100.21 1235.19 1112.53 1260.29 1117.52C1285.39 1122.5 1311.41 1119.94 1335.05 1110.16C1358.69 1100.37 1378.9 1083.8 1393.12 1062.53C1399.4 1053.14 1404.39 1043.01 1408 1032.43C1401.59 1036.87 1393.81 1039.47 1385.42 1039.47C1364.73 1039.47 1347.73 1023.66 1345.86 1003.48C1344.24 1011.1 1341.19 1018.39 1336.81 1024.93C1330.03 1035.07 1320.4 1042.97 1309.13 1047.63C1297.86 1052.3 1285.47 1053.52 1273.5 1051.14C1261.54 1048.76 1250.55 1042.89 1241.93 1034.27C1233.3 1025.65 1227.43 1014.67 1225.05 1002.72C1222.67 990.765 1223.89 978.375 1228.56 967.114C1233.23 955.854 1241.13 946.229 1251.27 939.458C1261.41 932.686 1273.34 929.072 1285.53 929.072V928.816H2322.35V928.839C2329.69 928.839 2336.95 930.284 2343.73 933.091C2350.52 935.898 2356.68 940.012 2361.87 945.198C2367.06 950.385 2371.18 956.542 2373.98 963.319C2376.79 970.096 2378.24 977.359 2378.24 984.694C2378.24 992.029 2376.79 999.292 2373.98 1006.07C2371.18 1012.85 2367.06 1019 2361.87 1024.19C2356.68 1029.38 2350.52 1033.49 2343.73 1036.3C2336.95 1039.1 2329.69 1040.55 2322.35 1040.55V1040.57H1478.88C1473.64 1060.48 1459.05 1101.84 1442.66 1107.99H2322.81C2338.85 1107.93 2354.74 1104.75 2369.56 1098.61C2384.53 1092.41 2398.14 1083.33 2409.59 1071.88C2421.05 1060.43 2430.14 1046.84 2436.34 1031.88C2442.54 1016.92 2445.73 1000.89 2445.73 984.694C2445.73 968.502 2442.54 952.468 2436.34 937.509C2430.14 922.55 2421.05 908.957 2409.59 897.508C2398.14 886.058 2384.53 876.976 2369.56 870.78C2354.78 864.661 2338.95 861.475 2322.96 861.394H1281.18V861.467Z" fill="white"/>
<path d="M1386.28 740.825V793.048H1453.74V617.566H1491.58V617.582C1495.23 617.582 1498.84 618.31 1502.21 619.725C1505.59 621.14 1508.65 623.214 1511.23 625.828C1513.81 628.442 1515.86 631.546 1517.25 634.961C1518.65 638.377 1519.37 642.038 1519.37 645.735H1519.39V793.048H1587.76V645.273H1587.76C1587.7 632.635 1585.22 620.127 1580.44 608.447C1575.61 596.625 1568.52 585.884 1559.59 576.835C1550.66 567.787 1540.06 560.61 1528.39 555.713C1517.42 551.111 1505.71 548.608 1493.86 548.324V548.296H1386.28V598.673C1387.84 601.528 1389.32 604.427 1390.7 607.366C1399.98 627.144 1404.76 648.341 1404.76 669.749C1404.76 691.156 1399.98 712.354 1390.7 732.131C1389.32 735.07 1387.84 737.969 1386.28 740.825Z" fill="white"/>
<path d="M1817.05 608.447C1817.44 609.395 1817.81 610.348 1818.17 611.306C1810.05 629.947 1805.89 649.756 1805.89 669.749C1805.89 691.156 1810.66 712.354 1819.95 732.131C1821.33 735.07 1822.8 737.969 1824.37 740.825V793.048H1755.99V645.735H1755.98C1755.98 642.038 1755.26 638.377 1753.86 634.961C1752.46 631.546 1750.42 628.442 1747.84 625.828C1745.26 623.214 1742.19 621.14 1738.82 619.725C1735.45 618.31 1731.84 617.582 1728.19 617.582V617.566H1690.35V793.048H1622.88V548.296H1730.46V548.324C1742.32 548.608 1754.03 551.111 1764.99 555.713C1776.66 560.61 1787.27 567.787 1796.2 576.835C1805.13 585.884 1812.21 596.625 1817.05 608.447Z" fill="white"/>
<path d="M2598.06 477.18C2598.06 502.684 2577.97 523.359 2553.19 523.359C2528.4 523.359 2508.31 502.684 2508.31 477.18C2508.31 451.675 2528.4 431 2553.19 431C2577.97 431 2598.06 451.675 2598.06 477.18Z" fill="#2BFD98"/>
<path d="M1417.68 992.32C1417.68 1006.94 1406.05 1018.78 1391.7 1018.78C1377.35 1018.78 1365.71 1006.94 1365.71 992.32C1365.71 977.704 1377.35 965.855 1391.7 965.855C1406.05 965.855 1417.68 977.704 1417.68 992.32Z" fill="#2BFD98"/>
</svg>
