<svg width="1500" height="1500" viewBox="0 0 1500 1500" fill="none" xmlns="http://www.w3.org/2000/svg">
<rect width="1500" height="1500" fill="#EEEEEE"/>
<path d="M544.108 850.408C553.403 867.057 564.994 882.438 578.624 896.067C585.474 902.918 592.767 909.253 600.441 915.041C584.644 921.601 567.915 925.89 550.751 927.713C518.618 931.126 486.161 925.771 456.828 912.216C427.496 898.661 402.383 877.412 384.159 850.728C365.935 824.044 355.28 792.921 353.327 760.667C351.374 728.413 358.195 696.232 373.067 667.544C387.938 638.856 410.303 614.732 437.786 597.737C465.269 580.741 496.843 571.509 529.153 571.02C553.195 570.657 576.976 575.145 599.102 584.122C576.154 601.723 557.155 623.902 543.293 649.21C539.003 648.723 534.672 648.508 530.325 648.574C512.027 648.851 494.145 654.08 478.581 663.705C463.016 673.33 450.349 686.992 441.927 703.239C433.505 719.487 429.642 737.712 430.748 755.979C431.854 774.246 437.888 791.872 448.209 806.985C458.53 822.097 472.753 834.131 489.365 841.808C505.978 849.485 524.359 852.518 542.557 850.584C542.871 850.551 543.184 850.516 543.498 850.48C543.701 850.456 543.905 850.432 544.108 850.408Z" fill="#222222"/>
<path d="M744.079 571.06C710.331 571.938 677.484 582.352 649.362 601.143C619.949 620.796 597.024 648.729 583.487 681.411C569.95 714.093 566.408 750.055 573.309 784.75C580.21 819.445 597.245 851.314 622.258 876.328C647.272 901.341 679.141 918.376 713.836 925.277C748.531 932.178 784.493 928.636 817.175 915.099C849.856 901.562 877.79 878.637 897.443 849.224C906.126 836.229 913.021 822.225 918.012 807.589C909.148 813.725 898.391 817.32 886.794 817.32C867.511 817.32 850.549 807.38 840.752 792.345C838.544 797.128 835.957 801.751 833.005 806.168C821.868 822.837 806.038 835.828 787.517 843.5C768.996 851.171 748.617 853.178 728.955 849.267C709.294 845.357 691.233 835.703 677.058 821.528C662.883 807.353 653.229 789.292 649.319 769.631C645.408 749.969 647.415 729.59 655.086 711.069C662.758 692.548 675.749 676.718 692.418 665.581C709.086 654.443 728.682 648.499 748.729 648.499V648.441H967.11V648.459C993.108 648.459 1018.11 658.442 1036.96 676.346C1055.81 694.25 1067.07 718.709 1068.41 744.672C1069.74 770.636 1061.06 796.121 1044.15 815.867C1027.66 835.117 1004.59 847.48 979.476 850.563H970.954C960.311 873.435 930.704 920.943 897.413 928.005H985.696L985.72 927.809C1031.24 923.047 1073.21 901.019 1102.98 866.253C1132.81 831.427 1148.12 786.479 1145.76 740.688C1143.4 694.897 1123.55 651.76 1090.31 620.183C1057.44 588.962 1013.95 571.398 968.659 571.007V571H744.079V571.06Z" fill="#222222"/>
<path d="M929.164 754.149C929.164 776.603 910.961 794.806 888.507 794.806C866.053 794.806 847.85 776.603 847.85 754.149C847.85 731.695 866.053 713.492 888.507 713.492C910.961 713.492 929.164 731.695 929.164 754.149Z" fill="#2BFD98"/>
</svg>
