<svg width="1500" height="1500" viewBox="0 0 1500 1500" fill="none" xmlns="http://www.w3.org/2000/svg">
<rect width="1500" height="1500" fill="url(#paint0_radial_21_39)"/>
<path d="M544.108 850.631C553.403 867.294 564.994 882.687 578.624 896.327C585.474 903.183 592.767 909.524 600.441 915.317C584.644 921.881 567.915 926.174 550.751 927.998C518.618 931.415 486.161 926.055 456.828 912.489C427.496 898.923 402.383 877.658 384.159 850.952C365.935 824.247 355.28 793.099 353.327 760.819C351.374 728.539 358.195 696.332 373.067 667.621C387.938 638.91 410.303 614.767 437.786 597.758C465.269 580.749 496.843 571.509 529.153 571.02C553.195 570.657 576.976 575.148 599.102 584.133C576.154 601.748 557.155 623.944 543.293 649.273C539.003 648.785 534.672 648.57 530.325 648.636C512.027 648.913 494.145 654.146 478.581 663.779C463.016 673.412 450.349 687.085 441.927 703.345C433.505 719.605 429.642 737.846 430.748 756.127C431.854 774.409 437.888 792.049 448.209 807.174C458.53 822.298 472.753 834.341 489.365 842.024C505.978 849.708 524.359 852.743 542.557 850.808C542.871 850.775 543.184 850.74 543.498 850.704C543.701 850.68 543.905 850.656 544.108 850.631Z" fill="white"/>
<path d="M744.079 571.061C710.331 571.939 677.484 582.361 649.362 601.167C619.949 620.836 597.024 648.792 583.487 681.5C569.95 714.208 566.408 750.199 573.309 784.921C580.21 819.644 597.245 851.539 622.258 876.572C647.272 901.606 679.141 918.654 713.836 925.56C748.531 932.467 784.493 928.922 817.175 915.374C849.856 901.826 877.79 878.883 897.443 849.447C906.126 836.441 913.021 822.426 918.012 807.779C909.148 813.92 898.391 817.517 886.794 817.517C867.511 817.517 850.549 807.57 840.752 792.522C838.544 797.309 835.957 801.936 833.005 806.357C821.868 823.038 806.038 836.04 787.517 843.718C768.996 851.395 748.617 853.404 728.955 849.49C709.294 845.576 691.233 835.915 677.058 821.728C662.883 807.542 653.229 789.467 649.319 769.79C645.408 750.113 647.415 729.716 655.086 711.181C662.758 692.645 675.749 676.803 692.418 665.656C709.086 654.51 728.682 648.561 748.729 648.561V648.503H967.11V648.521C993.108 648.521 1018.11 658.512 1036.96 676.43C1055.81 694.349 1067.07 718.827 1068.41 744.811C1069.74 770.795 1061.06 796.301 1044.15 816.063C1027.66 835.329 1004.59 847.701 979.476 850.787H970.954C960.311 873.677 930.704 921.223 897.413 928.29H985.696L985.72 928.094C1031.24 923.329 1073.21 901.284 1102.98 866.489C1132.81 831.635 1148.12 786.651 1145.76 740.824C1143.4 694.996 1123.55 651.825 1090.31 620.222C1057.44 588.976 1013.95 571.399 968.659 571.007V571H744.079V571.061Z" fill="white"/>
<path d="M929.164 754.295C929.164 776.768 910.961 794.985 888.507 794.985C866.053 794.985 847.85 776.768 847.85 754.295C847.85 731.823 866.053 713.606 888.507 713.606C910.961 713.606 929.164 731.823 929.164 754.295Z" fill="#2BFD98"/>
<defs>
<radialGradient id="paint0_radial_21_39" cx="0" cy="0" r="1" gradientUnits="userSpaceOnUse" gradientTransform="translate(529.886 138.723) rotate(82.8016) scale(1760.9 1810.09)">
<stop stop-color="#0D00A3"/>
<stop offset="1" stop-color="#05003D"/>
</radialGradient>
</defs>
</svg>
